<?xml version="1.0" encoding="UTF-8"?>
<svg version="1.1" xmlns="http://www.w3.org/2000/svg" width="2048" height="2048">
<path d="M0 0 C1.55858874 0.02280596 3.1171821 0.04529982 4.67578125 0.06738281 C41.45083358 0.63033498 78.17621377 5.00394922 114.5625 10.125 C115.69171875 10.28347412 116.8209375 10.44194824 117.984375 10.60522461 C123.26149119 11.37051894 128.43285021 12.28186413 133.62304688 13.49780273 C136.47428088 14.10020499 139.33254282 14.53522839 142.21484375 14.96484375 C166.12456303 18.53588831 189.57530709 24.39254862 212.94812012 30.46685791 C214.88846457 30.97101963 216.82946681 31.4726478 218.77050781 31.97412109 C232.87179597 35.63153264 246.78016736 39.70326502 260.625 44.23291016 C262.72331694 44.91063547 264.82602989 45.56392364 266.9375 46.19921875 C296.88521792 55.24063783 325.96647238 67.01110847 354.56152344 79.63232422 C358.13925372 81.20634347 361.73216045 82.70865492 365.375 84.125 C368.56496947 85.37488154 371.61584541 86.76854763 374.66796875 88.32421875 C378.8754607 90.44733623 383.114507 92.48542182 387.38085938 94.48706055 C397.72961719 99.34619368 407.88693007 104.49784481 417.95898438 109.90527344 C419.72440534 110.85218104 421.49458801 111.79020084 423.265625 112.7265625 C430.44587681 116.54224605 437.5370972 120.51602021 444.625 124.5 C445.57922852 125.03407471 446.53345703 125.56814941 447.51660156 126.1184082 C453.30843643 129.38791195 458.9564032 132.82047034 464.53588867 136.44091797 C467.59089491 138.37386851 470.73433794 140.10478831 473.90625 141.8359375 C477.35844774 143.75525639 480.67404018 145.87138571 484 148 C485.0415625 148.66 486.083125 149.32 487.15625 150 C495.24446148 155.14310941 503.14526232 160.50550588 511 166 C513.14537144 167.47983651 515.29120702 168.95900036 517.4375 170.4375 C528.28578511 177.95688896 538.96616359 185.63640101 549.38232422 193.74560547 C551.02125875 195.01648468 552.66747356 196.27728245 554.31640625 197.53515625 C560.44778279 202.21557569 566.48371824 206.99174781 572.43359375 211.90234375 C574.86563298 213.8901749 577.32739431 215.82912532 579.8125 217.75 C588.99074569 224.84523957 597.57747452 232.57573265 606.08032227 240.45532227 C609.36395977 243.49653404 612.66616297 246.5136639 616 249.5 C620.43228553 253.47178833 624.80764447 257.50203553 629.17041016 261.54980469 C632.53211526 264.66378426 635.93722221 267.71973994 639.375 270.75 C642.98752328 273.98194951 646.23446361 277.35148835 649.33203125 281.078125 C651.4422065 283.50952131 653.70702288 285.73968637 656 288 C658.35683485 290.33065168 660.71000555 292.6649684 663.0625 295 C663.67416016 295.60328125 664.28582031 296.2065625 664.91601562 296.828125 C668.18249941 300.07695211 671.13848472 303.3829495 674 307 C675.6546141 308.6786327 677.32193123 310.34481398 679 312 C682.23196722 315.46212246 685.41915285 318.96466135 688.60546875 322.46875 C689.88937018 323.87852412 691.17880378 325.28325475 692.46875 326.6875 C696.66388316 331.2849062 700.61793912 335.97238801 704.390625 340.921875 C705.85561887 342.81356611 707.3682952 344.63207082 708.9375 346.4375 C712.0297026 349.99722395 714.96831073 353.6695114 717.8984375 357.36328125 C719.34918085 359.18345181 720.81363662 360.99274776 722.2890625 362.79296875 C723.01867188 363.68628906 723.74828125 364.57960938 724.5 365.5 C725.1703125 366.3146875 725.840625 367.129375 726.53125 367.96875 C728 370 728 370 728 372 C728.66 372 729.32 372 730 372 C731.42342879 373.86580518 732.76232837 375.79630294 734.0625 377.75 C737.14205273 382.31915309 740.29460599 386.79457891 743.625 391.1875 C747.54936354 396.37229281 751.30012205 401.65380633 755 407 C756.10407294 408.56256623 757.20824178 410.1250647 758.3125 411.6875 C769.08855029 427.09218934 779.23508252 442.93878438 789 459 C789.5254541 459.85948242 789.5254541 459.85948242 790.06152344 460.73632812 C795.04202611 468.88949602 799.79889692 477.14355715 804.40527344 485.51391602 C806.74453157 489.76101172 809.13913257 493.96117206 811.625 498.125 C815.41109723 504.56225196 818.69092491 511.22665669 821.97949219 517.92675781 C823.65693891 521.33462327 825.36120945 524.72899553 827.0625 528.125 C827.73568383 529.47395497 828.408861 530.82291325 829.08203125 532.171875 C830.25625136 534.52148186 831.4414913 536.86401638 832.63671875 539.203125 C836.64993278 547.09351191 840.40694553 555.09187256 844.125 563.125 C844.62805664 564.20958496 845.13111328 565.29416992 845.64941406 566.41162109 C848.93335339 573.54267697 852.02847666 580.73356997 855 588 C855.47824219 589.15628906 855.95648437 590.31257812 856.44921875 591.50390625 C861.59821844 604.22209791 866.27929894 617.11819526 871 630 C871.39251953 631.06516846 871.39251953 631.06516846 871.79296875 632.15185547 C878.55500031 650.51691846 884.71966493 669.154906 890 688 C890.399665 689.40757326 890.79940659 690.81512478 891.19921875 692.22265625 C895.51804093 707.52147687 899.7426091 722.89317031 903.18066406 738.41601562 C903.78700029 741.06828493 904.41661091 743.70817476 905.0715332 746.34838867 C908.44917801 760.04141972 911.1565464 773.80432413 913.625 787.6875 C913.82176331 788.78462311 914.01852661 789.88174622 914.22125244 791.01211548 C916.55201219 804.04460501 918.85729582 817.05361277 920.11940002 830.24121094 C920.64518814 835.72580405 921.27551421 841.17375781 922.05448914 846.62788391 C924.1970399 861.80028234 925.25471499 877.02593071 926.1875 892.3125 C926.25228861 893.3545182 926.25228861 893.3545182 926.31838608 894.41758728 C928.19576015 924.62802795 928.51039926 954.7316179 928 985 C927.97723827 986.57584204 927.95474729 988.15168803 927.93261719 989.72753906 C927.09427262 1044.81800827 919.57777849 1100.87825657 907.54199219 1154.56445312 C906.85713738 1157.64198084 906.20855884 1160.72661896 905.5625 1163.8125 C905.04619595 1166.20941992 904.52554704 1168.60510907 904 1171 C903.80325684 1171.89992676 903.60651367 1172.79985352 903.40380859 1173.72705078 C900.32412968 1187.71401889 896.83395244 1201.48280165 892.71484375 1215.19921875 C891.31065153 1219.88795204 890.02507572 1224.59827601 888.78149414 1229.33178711 C884.35999656 1246.12446976 878.42798493 1262.37148776 872.34594727 1278.6237793 C871.00484351 1282.21405555 869.72105963 1285.80965472 868.53125 1289.453125 C866.97476284 1294.17089301 865.17425206 1298.77043877 863.3125 1303.375 C862.79574707 1304.66059814 862.79574707 1304.66059814 862.26855469 1305.97216797 C859.51089798 1312.80380619 856.67489426 1319.60142503 853.7902832 1326.38037109 C852.22051471 1330.07321752 850.69843309 1333.77344635 849.25 1337.515625 C846.55834628 1344.27602729 843.41319624 1350.82731372 840.30175781 1357.40185547 C839.26265594 1359.59824862 838.22862813 1361.7969735 837.1953125 1363.99609375 C833.14680503 1372.59021997 828.98517687 1381.12051531 824.71020508 1389.60424805 C823.27248359 1392.45896156 821.84976173 1395.32014365 820.4375 1398.1875 C811.60313904 1415.82687188 801.88485881 1433.37962025 791.23828125 1449.98828125 C790.15874199 1451.74210686 789.13305098 1453.52885201 788.1171875 1455.3203125 C786.13131116 1458.81258818 783.99796935 1462.19074675 781.8125 1465.5625 C781.02075447 1466.78640732 780.22909021 1468.01036722 779.4375 1469.234375 C779.0353125 1469.85505859 778.633125 1470.47574219 778.21875 1471.11523438 C776.6256968 1473.5788503 775.04363727 1476.04943248 773.46142578 1478.52001953 C767.79736693 1487.35672163 762.02092575 1496.03396489 755.8125 1504.5 C754.45905406 1506.36682199 753.15404294 1508.26893558 751.875 1510.1875 C749.39627709 1513.90558436 746.70091488 1517.44154464 744 1521 C740.64026338 1525.44617319 737.32724651 1529.92095281 734.0625 1534.4375 C728.89350717 1541.55223537 723.57087356 1548.41689731 717.73046875 1554.9921875 C716.01227287 1556.98576015 714.40743086 1559.03189462 712.8125 1561.125 C708.77092689 1566.38718244 704.43426204 1571.3799249 700.09765625 1576.3984375 C698.14691873 1578.65769464 696.2152952 1580.93003081 694.30859375 1583.2265625 C687.44644824 1591.48186171 680.17580384 1599.29720819 672.79833984 1607.09277344 C670.11523702 1609.93833402 667.4586671 1612.80760636 664.8125 1615.6875 C663.97332031 1616.59886719 663.13414063 1617.51023437 662.26953125 1618.44921875 C660.77769128 1620.1259339 659.33475712 1621.8477095 657.94921875 1623.61328125 C656.10330909 1625.8735033 654.24170039 1627.64359187 652 1629.5 C649.73163861 1631.43477883 647.86950528 1633.1631184 646 1635.5 C643.65213581 1638.43483024 640.99216492 1640.67891106 638.140625 1643.11328125 C636.0010586 1644.99906696 633.99853334 1646.96605958 632 1649 C628.93800628 1652.10329229 625.7684013 1654.98347596 622.4609375 1657.8203125 C619.76975764 1660.20392895 617.15846719 1662.66087227 614.54467773 1665.12866211 C609.13377508 1670.23699674 603.7533724 1675.17358201 597.77734375 1679.625 C595.78710835 1681.10474889 595.78710835 1681.10474889 593.4375 1683.5625 C590.79802422 1686.20197578 587.9951933 1688.30640637 584.96484375 1690.47265625 C582.79110006 1692.16238544 580.94199184 1694.05046644 579 1696 C577.64448616 1697.10761832 576.26857961 1698.1906738 574.875 1699.25 C571.61160547 1701.75211326 568.38550623 1704.28981622 565.1875 1706.875 C559.56068024 1711.38863131 553.78510387 1715.69241313 548 1720 C545.97884543 1721.52040639 543.95800962 1723.04123662 541.9375 1724.5625 C537.15064929 1728.15263803 532.3343867 1731.69878129 527.484375 1735.203125 C525.92617133 1736.33012766 524.37321131 1737.46445493 522.828125 1738.609375 C518.21839888 1742 518.21839888 1742 516 1742 C516 1742.66 516 1743.32 516 1744 C514.06990676 1745.3245153 512.07766603 1746.5589053 510.0625 1747.75 C508.85728218 1748.47133673 507.65285683 1749.19399912 506.44921875 1749.91796875 C505.8567334 1750.27294434 505.26424805 1750.62791992 504.65380859 1750.99365234 C502.52036538 1752.29185915 500.44404834 1753.66429065 498.375 1755.0625 C493.31331229 1758.47662209 488.16372124 1761.7427841 483 1765 C482.4239502 1765.36609375 481.84790039 1765.7321875 481.25439453 1766.109375 C472.50264539 1771.67045467 463.65016517 1777.01279982 454.64648438 1782.15722656 C451.02784686 1784.22790865 447.45158793 1786.32996327 443.9375 1788.57421875 C440.77354185 1790.57154519 437.55006041 1792.27484855 434.1875 1793.91015625 C429.71981437 1796.13602105 425.37218504 1798.59351123 421 1801 C415.32147681 1804.12550868 409.64826023 1807.23183438 403.83300781 1810.09667969 C402.04467985 1810.97798143 400.26822343 1811.88324462 398.4921875 1812.7890625 C383.71181112 1820.31209423 368.56708804 1827.0637212 353.35473633 1833.66162109 C349.60789006 1835.28738124 345.89123083 1836.96604764 342.1875 1838.6875 C337.8641258 1840.66796782 333.48753414 1842.35072815 328.99609375 1843.91015625 C325.49222526 1845.18470554 322.04084824 1846.5717843 318.58178711 1847.96264648 C291.28011035 1858.93236984 263.42303456 1868.3881823 235.046875 1876.15478516 C232.24075497 1876.93321364 229.44727677 1877.743531 226.65625 1878.57421875 C212.69298892 1882.71884793 198.55400501 1885.99688405 184.35839844 1889.22900391 C180.72152567 1890.06393006 177.09348319 1890.93124792 173.46655273 1891.80810547 C167.4471369 1893.25973534 161.44270278 1894.49885843 155.3203125 1895.44140625 C151.89473683 1896.01770898 148.50548263 1896.70507863 145.10473633 1897.41064453 C134.52820302 1899.60253533 123.93639988 1901.22687448 113.23681641 1902.68408203 C110.37684886 1903.08801109 107.5327083 1903.56583982 104.6875 1904.0625 C90.01738985 1906.56512954 75.19510399 1907.78184493 60.375 1909 C58.79715729 1909.12973206 58.79715729 1909.12973206 57.18743896 1909.26208496 C-34.45772185 1916.74043233 -125.66845059 1912.35176739 -232.0625 1891 C-237.34602849 1889.80941712 -242.6329581 1888.65679361 -247.9375 1887.5625 C-255.94050431 1885.85815649 -263.82601211 1883.73573429 -271.72509766 1881.60986328 C-273.79796416 1881.05416243 -275.87281152 1880.50713749 -277.94921875 1879.96484375 C-298.4788312 1874.57609319 -318.90500458 1868.46180944 -338.83203125 1861.140625 C-341.31587978 1860.24631702 -343.80204966 1859.39675931 -346.30859375 1858.5703125 C-350.99274761 1857.01858525 -355.62368009 1855.34052197 -360.25 1853.625 C-361.07918945 1853.31828369 -361.90837891 1853.01156738 -362.76269531 1852.69555664 C-369.53039276 1850.18620779 -376.27887176 1847.63181725 -383 1845 C-384.15371094 1844.55140625 -385.30742188 1844.1028125 -386.49609375 1843.640625 C-394.30532218 1840.56651603 -401.987359 1837.26988992 -409.64135742 1833.82763672 C-413.56425884 1832.06702802 -417.48967669 1830.36752332 -421.5 1828.8125 C-424.62370033 1827.59800762 -427.60430964 1826.23689898 -430.58984375 1824.71484375 C-435.09326786 1822.44241677 -439.6333182 1820.26151747 -444.19384766 1818.10644531 C-454.95748554 1813.01684769 -465.53529957 1807.67548982 -476 1802 C-478.24996097 1800.791594 -480.49995855 1799.58325615 -482.75 1798.375 C-483.77996094 1797.818125 -484.80992187 1797.26125 -485.87109375 1796.6875 C-488.04707578 1795.51393666 -490.22707712 1794.34780781 -492.41015625 1793.1875 C-497.72158165 1790.35799209 -502.97923266 1787.52538156 -508.0234375 1784.23828125 C-510.31762005 1782.80101669 -512.6703552 1781.47682286 -515.02392578 1780.13989258 C-518.63885307 1778.05463245 -522.19191708 1775.8678817 -525.75 1773.6875 C-526.54349854 1773.2018457 -527.33699707 1772.71619141 -528.15454102 1772.21582031 C-533.29788997 1769.06116308 -538.41509488 1765.8698932 -543.4921875 1762.609375 C-545.24204672 1761.48641239 -546.99774672 1760.3725219 -548.7578125 1759.265625 C-554.05122575 1755.93328128 -559.23587048 1752.49455768 -564.33984375 1748.87890625 C-566.80462727 1747.13799454 -569.28463254 1745.42081556 -571.77050781 1743.71020508 C-578.25770567 1739.24384346 -584.64731418 1734.65554494 -591 1730 C-592.81228579 1728.68720423 -594.62478762 1727.37470667 -596.4375 1726.0625 C-605.79686711 1719.24962736 -614.99439974 1712.27375406 -624 1705 C-624.845625 1704.3296875 -625.69125 1703.659375 -626.5625 1702.96875 C-631.12895252 1699.34900105 -635.57885573 1695.64778927 -639.9375 1691.78125 C-642.24378682 1689.78945684 -644.61198747 1687.89293676 -647 1686 C-650.79152642 1682.99112812 -654.47710504 1679.89939494 -658.09765625 1676.6875 C-659.3057453 1675.61584811 -660.52112815 1674.55231944 -661.74609375 1673.5 C-667.19016538 1668.81692763 -672.41407885 1663.90518263 -677.63305664 1658.97436523 C-680.29024907 1656.47463606 -682.92732757 1654.05797463 -685.78125 1651.78125 C-687.76837693 1650.18595092 -689.24186188 1648.67570958 -690.8125 1646.6875 C-693.63639835 1643.28863266 -696.76723476 1640.47891924 -700.125 1637.6171875 C-702.545372 1635.52961665 -704.76917766 1633.28802291 -707 1631 C-707.55558594 1630.45472656 -708.11117188 1629.90945313 -708.68359375 1629.34765625 C-711.46148357 1626.61755808 -714.15849673 1623.89220054 -716.625 1620.875 C-719.7243061 1617.1232084 -723.18662405 1613.80257892 -726.6484375 1610.38671875 C-731.9891586 1605.09955789 -737.15706228 1599.75098855 -742 1594 C-742.87479135 1592.96596928 -743.74981027 1591.93213106 -744.625 1590.8984375 C-746.06744707 1589.19404244 -747.50920268 1587.4890883 -748.94873047 1585.78222656 C-751.47773818 1582.78572241 -754.02657396 1579.81182571 -756.625 1576.875 C-760.05598467 1572.97948772 -763.32780835 1568.96154041 -766.6015625 1564.93359375 C-768.67933766 1562.39221078 -770.77815712 1559.87162667 -772.88964844 1557.35839844 C-777.09583447 1552.34832132 -781.13238266 1547.27314245 -785 1542 C-786.49825917 1539.99869556 -787.99840144 1537.99880008 -789.5 1536 C-790.27472656 1534.96617188 -791.04945313 1533.93234375 -791.84765625 1532.8671875 C-793.08118898 1531.22396967 -794.31683253 1529.58232103 -795.55859375 1527.9453125 C-802.90905301 1518.24187336 -809.87207435 1508.24564869 -816.77734375 1498.22265625 C-818.28400373 1496.03813167 -819.7954715 1493.85809006 -821.31640625 1491.68359375 C-829.10582066 1480.5342653 -836.23740055 1469.02815239 -843.3046875 1457.4140625 C-844.89961361 1454.79534359 -846.50367132 1452.18350392 -848.1328125 1449.5859375 C-852.43366547 1442.70805521 -856.43991683 1435.70474686 -860.34863281 1428.59960938 C-862.77384845 1424.19251729 -865.249862 1419.82862984 -867.8125 1415.5 C-870.21983557 1411.40418601 -872.41994053 1407.26959576 -874.5 1403 C-876.11653698 1399.76692604 -877.80787003 1396.57991659 -879.50732422 1393.38989258 C-884.30906952 1384.36753352 -888.81741301 1375.2560039 -893.08837891 1365.97167969 C-893.9473511 1364.11387051 -894.82276247 1362.26368748 -895.69921875 1360.4140625 C-905.53638865 1339.63906033 -914.30761844 1318.43442781 -922.29785156 1296.88671875 C-923.02459946 1294.93389963 -923.76029947 1292.98458274 -924.49609375 1291.03515625 C-926.0101321 1287.00049092 -927.45008107 1282.94185721 -928.875 1278.875 C-930.67738963 1273.73802278 -932.50641232 1268.61336493 -934.375 1263.5 C-944.83894869 1234.19421444 -952.64136145 1204.19969695 -960 1174 C-960.29438965 1172.79585449 -960.5887793 1171.59170898 -960.89208984 1170.35107422 C-967.27829073 1144.05290761 -972.02390567 1117.59772355 -975.48217773 1090.76391602 C-975.86218055 1088.0017739 -976.26894658 1085.25259391 -976.70727539 1082.49975586 C-978.73431778 1069.71943005 -980.04126349 1056.959825 -981.0625 1044.0625 C-981.14649048 1043.01865143 -981.23048096 1041.97480286 -981.3170166 1040.89932251 C-981.90245665 1033.60132092 -982.45955855 1026.30146163 -983 1019 C-983.06378845 1018.14780884 -983.1275769 1017.29561768 -983.19329834 1016.41760254 C-986.59796437 970.59313946 -985.38768309 924.78836174 -982 879 C-981.93963562 878.18078064 -981.87927124 877.36156128 -981.81707764 876.51751709 C-979.72932248 848.5636907 -976.05147647 820.57777604 -971 793 C-970.78730469 791.83017578 -970.57460938 790.66035156 -970.35546875 789.45507812 C-966.65325148 769.1408418 -962.60208614 748.98689457 -957.5 728.97216797 C-956.82325346 726.30285229 -956.16261403 723.62963604 -955.50097656 720.95654297 C-953.62915753 713.41271092 -951.71179851 705.88239812 -949.65429688 698.38671875 C-949.17836534 696.65063415 -948.70621252 694.9135123 -948.23632812 693.17578125 C-940.78696914 665.75250589 -931.77787426 638.60212497 -921.125 612.25 C-920.41914257 610.49744749 -919.71341438 608.74484291 -919.0078125 606.9921875 C-918.66524414 606.14237305 -918.32267578 605.29255859 -917.96972656 604.41699219 C-917.11395049 602.28401557 -916.26831664 600.14757421 -915.4296875 598.0078125 C-912.16404082 589.70985783 -908.63722556 581.56145424 -904.98046875 573.4296875 C-903.77037602 570.73660966 -902.5799427 568.03781788 -901.42578125 565.3203125 C-892.64959793 544.76149516 -882.64967604 524.64752371 -872 505 C-871.42765625 503.94039062 -870.8553125 502.88078125 -870.265625 501.7890625 C-869.30269329 500.0170696 -868.33570654 498.24726963 -867.36328125 496.48046875 C-866.39396739 494.71681745 -865.43399565 492.94801761 -864.48046875 491.17578125 C-861.86607301 486.32425701 -859.16830662 481.58623189 -856.203125 476.94140625 C-854.9581325 474.93244107 -853.81759311 472.88810434 -852.6875 470.8125 C-849.9901722 465.89830591 -847.05332315 461.14502721 -844.09765625 456.3828125 C-842.74166278 454.19605209 -841.39465723 452.00368131 -840.05859375 449.8046875 C-835.30656899 441.99024679 -830.30947246 434.37137318 -825.20068359 426.78710938 C-823.39226503 424.09544124 -821.60404801 421.39041576 -819.8125 418.6875 C-813.67906444 409.49956466 -807.24204101 400.55669213 -800.69140625 391.6640625 C-798.43874802 388.60423462 -796.2166612 385.52352935 -794 382.4375 C-781.51306508 365.2520047 -767.77127956 348.89702114 -753.70703125 332.98828125 C-751.76444789 330.72563839 -749.91987118 328.39558207 -748.0625 326.0625 C-742.68329569 319.44194084 -736.7974767 313.31910693 -730.921875 307.140625 C-727.68928434 303.74067106 -724.52051339 300.29303849 -721.375 296.8125 C-715.63268747 290.51335716 -709.60187989 284.51598284 -703.54125977 278.5246582 C-699.36936365 274.41210467 -699.36936365 274.41210467 -695.3125 270.1875 C-694 269 -694 269 -692 269 C-691.60844727 268.11380981 -691.60844727 268.11380981 -691.20898438 267.2097168 C-689.92619454 264.86510234 -688.61388698 263.45111273 -686.65625 261.64453125 C-685.66008667 260.71785645 -685.66008667 260.71785645 -684.64379883 259.77246094 C-683.93634521 259.12567383 -683.2288916 258.47888672 -682.5 257.8125 C-681.77385498 257.1412207 -681.04770996 256.46994141 -680.29956055 255.77832031 C-678.2052976 253.84601494 -676.10377635 251.92193608 -674 250 C-672.60201172 248.71416016 -672.60201172 248.71416016 -671.17578125 247.40234375 C-661.8594318 238.91753624 -652.15605801 230.86991133 -642.33984375 222.97265625 C-639.99111336 221.04910805 -639.99111336 221.04910805 -637.94921875 218.94921875 C-636.023463 217.023463 -634.04160482 215.39693946 -631.875 213.75 C-628.61160547 211.24788674 -625.38550623 208.71018378 -622.1875 206.125 C-617.49637793 202.35899051 -612.69904836 198.74967378 -607.875 195.15625 C-605.37137039 193.27852779 -602.89817233 191.3708854 -600.4375 189.4375 C-587.4439195 179.2899102 -573.73429333 170.10431909 -560 161 C-558.54156658 160.02098241 -557.0832266 159.04182561 -555.625 158.0625 C-550.03193863 154.33379242 -544.36840477 150.71396724 -538.70605469 147.09179688 C-537.13891189 146.08889725 -535.57328753 145.08362593 -534.0078125 144.078125 C-524.70504589 138.12224609 -515.22419337 132.51781215 -505.62109375 127.0625 C-503.29395594 125.74016375 -500.97550115 124.40567084 -498.66015625 123.0625 C-479.6677031 112.07036842 -460.00153055 102.35183971 -440.25 92.8125 C-439.22052246 92.31314941 -438.19104492 91.81379883 -437.13037109 91.29931641 C-431.02577437 88.36469584 -424.87373389 85.63786326 -418.59716797 83.09082031 C-416.29862588 82.12542399 -414.08824575 81.08234311 -411.875 79.9375 C-408.22549745 78.06018387 -404.48423042 76.54537867 -400.6640625 75.05078125 C-397.96764375 73.98723779 -395.29633401 72.87497024 -392.625 71.75 C-372.92169758 63.5319134 -353.02604334 55.84746256 -332.7253418 49.22363281 C-330.36106903 48.44705931 -328.00023183 47.65988243 -325.64428711 46.85839844 C-316.74445795 43.83433567 -307.78362942 41.12536484 -298.73876953 38.57006836 C-296.50059238 37.93766738 -294.26387208 37.30031434 -292.02734375 36.66210938 C-280.11883233 33.27269973 -268.19446031 29.89807075 -256.125 27.125 C-251.19846735 25.99268278 -246.28417658 24.82718574 -241.3828125 23.58984375 C-226.4689635 19.85564494 -211.51609297 17.05812391 -196.34912109 14.56591797 C-192.46157651 13.90901985 -188.59185308 13.17745183 -184.72021484 12.43359375 C-171.17348023 9.84403921 -157.52320731 8.11874482 -143.83544922 6.46728516 C-141.33540206 6.16269634 -138.83687424 5.84527867 -136.34033203 5.51318359 C-121.7832625 3.64801902 -107.14225274 2.77897008 -92.5 1.875 C-91.78424931 1.83041782 -91.06849861 1.78583565 -90.3310585 1.7399025 C-60.19810616 -0.12909151 -30.19203798 -0.51857571 0 0 Z " fill="#383838" transform="translate(1045,86)"/>
<path d="M0 0 C1.55858874 0.02280596 3.1171821 0.04529982 4.67578125 0.06738281 C41.45083358 0.63033498 78.17621377 5.00394922 114.5625 10.125 C115.69171875 10.28347412 116.8209375 10.44194824 117.984375 10.60522461 C123.26149119 11.37051894 128.43285021 12.28186413 133.62304688 13.49780273 C136.47428088 14.10020499 139.33254282 14.53522839 142.21484375 14.96484375 C166.12456303 18.53588831 189.57530709 24.39254862 212.94812012 30.46685791 C214.88846457 30.97101963 216.82946681 31.4726478 218.77050781 31.97412109 C232.87179597 35.63153264 246.78016736 39.70326502 260.625 44.23291016 C262.72331694 44.91063547 264.82602989 45.56392364 266.9375 46.19921875 C296.88521792 55.24063783 325.96647238 67.01110847 354.56152344 79.63232422 C358.13925372 81.20634347 361.73216045 82.70865492 365.375 84.125 C368.56496947 85.37488154 371.61584541 86.76854763 374.66796875 88.32421875 C378.8754607 90.44733623 383.114507 92.48542182 387.38085938 94.48706055 C397.72961719 99.34619368 407.88693007 104.49784481 417.95898438 109.90527344 C419.72440534 110.85218104 421.49458801 111.79020084 423.265625 112.7265625 C430.44587681 116.54224605 437.5370972 120.51602021 444.625 124.5 C445.57922852 125.03407471 446.53345703 125.56814941 447.51660156 126.1184082 C453.30843643 129.38791195 458.9564032 132.82047034 464.53588867 136.44091797 C467.59089491 138.37386851 470.73433794 140.10478831 473.90625 141.8359375 C477.35844774 143.75525639 480.67404018 145.87138571 484 148 C485.0415625 148.66 486.083125 149.32 487.15625 150 C495.24446148 155.14310941 503.14526232 160.50550588 511 166 C513.14537144 167.47983651 515.29120702 168.95900036 517.4375 170.4375 C528.28578511 177.95688896 538.96616359 185.63640101 549.38232422 193.74560547 C551.02125875 195.01648468 552.66747356 196.27728245 554.31640625 197.53515625 C560.44778279 202.21557569 566.48371824 206.99174781 572.43359375 211.90234375 C574.86563298 213.8901749 577.32739431 215.82912532 579.8125 217.75 C588.99074569 224.84523957 597.57747452 232.57573265 606.08032227 240.45532227 C609.36395977 243.49653404 612.66616297 246.5136639 616 249.5 C620.43228553 253.47178833 624.80764447 257.50203553 629.17041016 261.54980469 C632.53211526 264.66378426 635.93722221 267.71973994 639.375 270.75 C642.98752328 273.98194951 646.23446361 277.35148835 649.33203125 281.078125 C651.4422065 283.50952131 653.70702288 285.73968637 656 288 C658.35683485 290.33065168 660.71000555 292.6649684 663.0625 295 C663.67416016 295.60328125 664.28582031 296.2065625 664.91601562 296.828125 C668.18249941 300.07695211 671.13848472 303.3829495 674 307 C675.6546141 308.6786327 677.32193123 310.34481398 679 312 C682.23196722 315.46212246 685.41915285 318.96466135 688.60546875 322.46875 C689.88937018 323.87852412 691.17880378 325.28325475 692.46875 326.6875 C696.66388316 331.2849062 700.61793912 335.97238801 704.390625 340.921875 C705.85561887 342.81356611 707.3682952 344.63207082 708.9375 346.4375 C712.0297026 349.99722395 714.96831073 353.6695114 717.8984375 357.36328125 C719.34918085 359.18345181 720.81363662 360.99274776 722.2890625 362.79296875 C723.01867188 363.68628906 723.74828125 364.57960938 724.5 365.5 C725.1703125 366.3146875 725.840625 367.129375 726.53125 367.96875 C728 370 728 370 728 372 C728.66 372 729.32 372 730 372 C731.42342879 373.86580518 732.76232837 375.79630294 734.0625 377.75 C737.14205273 382.31915309 740.29460599 386.79457891 743.625 391.1875 C747.54936354 396.37229281 751.30012205 401.65380633 755 407 C756.10407294 408.56256623 757.20824178 410.1250647 758.3125 411.6875 C769.08855029 427.09218934 779.23508252 442.93878438 789 459 C789.5254541 459.85948242 789.5254541 459.85948242 790.06152344 460.73632812 C795.04202611 468.88949602 799.79889692 477.14355715 804.40527344 485.51391602 C806.74453157 489.76101172 809.13913257 493.96117206 811.625 498.125 C815.41109723 504.56225196 818.69092491 511.22665669 821.97949219 517.92675781 C823.65693891 521.33462327 825.36120945 524.72899553 827.0625 528.125 C827.73568383 529.47395497 828.408861 530.82291325 829.08203125 532.171875 C830.25625136 534.52148186 831.4414913 536.86401638 832.63671875 539.203125 C836.64993278 547.09351191 840.40694553 555.09187256 844.125 563.125 C844.62805664 564.20958496 845.13111328 565.29416992 845.64941406 566.41162109 C848.93335339 573.54267697 852.02847666 580.73356997 855 588 C855.47824219 589.15628906 855.95648437 590.31257812 856.44921875 591.50390625 C861.59821844 604.22209791 866.27929894 617.11819526 871 630 C871.39251953 631.06516846 871.39251953 631.06516846 871.79296875 632.15185547 C878.55500031 650.51691846 884.71966493 669.154906 890 688 C890.399665 689.40757326 890.79940659 690.81512478 891.19921875 692.22265625 C895.51804093 707.52147687 899.7426091 722.89317031 903.18066406 738.41601562 C903.78700029 741.06828493 904.41661091 743.70817476 905.0715332 746.34838867 C908.44917801 760.04141972 911.1565464 773.80432413 913.625 787.6875 C913.82176331 788.78462311 914.01852661 789.88174622 914.22125244 791.01211548 C916.55201219 804.04460501 918.85729582 817.05361277 920.11940002 830.24121094 C920.64518814 835.72580405 921.27551421 841.17375781 922.05448914 846.62788391 C924.1970399 861.80028234 925.25471499 877.02593071 926.1875 892.3125 C926.25228861 893.3545182 926.25228861 893.3545182 926.31838608 894.41758728 C928.19576015 924.62802795 928.51039926 954.7316179 928 985 C927.97723827 986.57584204 927.95474729 988.15168803 927.93261719 989.72753906 C927.09427262 1044.81800827 919.57777849 1100.87825657 907.54199219 1154.56445312 C906.85713738 1157.64198084 906.20855884 1160.72661896 905.5625 1163.8125 C905.04619595 1166.20941992 904.52554704 1168.60510907 904 1171 C903.80325684 1171.89992676 903.60651367 1172.79985352 903.40380859 1173.72705078 C900.32412968 1187.71401889 896.83395244 1201.48280165 892.71484375 1215.19921875 C891.31065153 1219.88795204 890.02507572 1224.59827601 888.78149414 1229.33178711 C884.35999656 1246.12446976 878.42798493 1262.37148776 872.34594727 1278.6237793 C871.00484351 1282.21405555 869.72105963 1285.80965472 868.53125 1289.453125 C866.97476284 1294.17089301 865.17425206 1298.77043877 863.3125 1303.375 C862.79574707 1304.66059814 862.79574707 1304.66059814 862.26855469 1305.97216797 C859.51089798 1312.80380619 856.67489426 1319.60142503 853.7902832 1326.38037109 C852.22051471 1330.07321752 850.69843309 1333.77344635 849.25 1337.515625 C846.55834628 1344.27602729 843.41319624 1350.82731372 840.30175781 1357.40185547 C839.26265594 1359.59824862 838.22862813 1361.7969735 837.1953125 1363.99609375 C833.14680503 1372.59021997 828.98517687 1381.12051531 824.71020508 1389.60424805 C823.27248359 1392.45896156 821.84976173 1395.32014365 820.4375 1398.1875 C811.60313904 1415.82687188 801.88485881 1433.37962025 791.23828125 1449.98828125 C790.15874199 1451.74210686 789.13305098 1453.52885201 788.1171875 1455.3203125 C786.13131116 1458.81258818 783.99796935 1462.19074675 781.8125 1465.5625 C781.02075447 1466.78640732 780.22909021 1468.01036722 779.4375 1469.234375 C779.0353125 1469.85505859 778.633125 1470.47574219 778.21875 1471.11523438 C776.6256968 1473.5788503 775.04363727 1476.04943248 773.46142578 1478.52001953 C767.79736693 1487.35672163 762.02092575 1496.03396489 755.8125 1504.5 C754.45905406 1506.36682199 753.15404294 1508.26893558 751.875 1510.1875 C749.39627709 1513.90558436 746.70091488 1517.44154464 744 1521 C740.64026338 1525.44617319 737.32724651 1529.92095281 734.0625 1534.4375 C728.89350717 1541.55223537 723.57087356 1548.41689731 717.73046875 1554.9921875 C716.01227287 1556.98576015 714.40743086 1559.03189462 712.8125 1561.125 C708.77092689 1566.38718244 704.43426204 1571.3799249 700.09765625 1576.3984375 C698.14691873 1578.65769464 696.2152952 1580.93003081 694.30859375 1583.2265625 C687.44644824 1591.48186171 680.17580384 1599.29720819 672.79833984 1607.09277344 C670.11523702 1609.93833402 667.4586671 1612.80760636 664.8125 1615.6875 C663.97332031 1616.59886719 663.13414063 1617.51023437 662.26953125 1618.44921875 C660.77769128 1620.1259339 659.33475712 1621.8477095 657.94921875 1623.61328125 C656.10330909 1625.8735033 654.24170039 1627.64359187 652 1629.5 C649.73163861 1631.43477883 647.86950528 1633.1631184 646 1635.5 C643.65213581 1638.43483024 640.99216492 1640.67891106 638.140625 1643.11328125 C636.0010586 1644.99906696 633.99853334 1646.96605958 632 1649 C628.93800628 1652.10329229 625.7684013 1654.98347596 622.4609375 1657.8203125 C619.76975764 1660.20392895 617.15846719 1662.66087227 614.54467773 1665.12866211 C609.13377508 1670.23699674 603.7533724 1675.17358201 597.77734375 1679.625 C595.78710835 1681.10474889 595.78710835 1681.10474889 593.4375 1683.5625 C590.79802422 1686.20197578 587.9951933 1688.30640637 584.96484375 1690.47265625 C582.79110006 1692.16238544 580.94199184 1694.05046644 579 1696 C577.64448616 1697.10761832 576.26857961 1698.1906738 574.875 1699.25 C571.61160547 1701.75211326 568.38550623 1704.28981622 565.1875 1706.875 C559.56068024 1711.38863131 553.78510387 1715.69241313 548 1720 C545.97884543 1721.52040639 543.95800962 1723.04123662 541.9375 1724.5625 C537.15064929 1728.15263803 532.3343867 1731.69878129 527.484375 1735.203125 C525.92617133 1736.33012766 524.37321131 1737.46445493 522.828125 1738.609375 C518.21839888 1742 518.21839888 1742 516 1742 C516 1742.66 516 1743.32 516 1744 C514.06990676 1745.3245153 512.07766603 1746.5589053 510.0625 1747.75 C508.85728218 1748.47133673 507.65285683 1749.19399912 506.44921875 1749.91796875 C505.8567334 1750.27294434 505.26424805 1750.62791992 504.65380859 1750.99365234 C502.52036538 1752.29185915 500.44404834 1753.66429065 498.375 1755.0625 C493.31331229 1758.47662209 488.16372124 1761.7427841 483 1765 C482.4239502 1765.36609375 481.84790039 1765.7321875 481.25439453 1766.109375 C472.50264539 1771.67045467 463.65016517 1777.01279982 454.64648438 1782.15722656 C451.02784686 1784.22790865 447.45158793 1786.32996327 443.9375 1788.57421875 C440.77354185 1790.57154519 437.55006041 1792.27484855 434.1875 1793.91015625 C429.71981437 1796.13602105 425.37218504 1798.59351123 421 1801 C415.32147681 1804.12550868 409.64826023 1807.23183438 403.83300781 1810.09667969 C402.04467985 1810.97798143 400.26822343 1811.88324462 398.4921875 1812.7890625 C383.71181112 1820.31209423 368.56708804 1827.0637212 353.35473633 1833.66162109 C349.60789006 1835.28738124 345.89123083 1836.96604764 342.1875 1838.6875 C337.8641258 1840.66796782 333.48753414 1842.35072815 328.99609375 1843.91015625 C325.49222526 1845.18470554 322.04084824 1846.5717843 318.58178711 1847.96264648 C291.28011035 1858.93236984 263.42303456 1868.3881823 235.046875 1876.15478516 C232.24075497 1876.93321364 229.44727677 1877.743531 226.65625 1878.57421875 C212.69298892 1882.71884793 198.55400501 1885.99688405 184.35839844 1889.22900391 C180.72152567 1890.06393006 177.09348319 1890.93124792 173.46655273 1891.80810547 C167.4471369 1893.25973534 161.44270278 1894.49885843 155.3203125 1895.44140625 C151.89473683 1896.01770898 148.50548263 1896.70507863 145.10473633 1897.41064453 C134.52820302 1899.60253533 123.93639988 1901.22687448 113.23681641 1902.68408203 C110.37684886 1903.08801109 107.5327083 1903.56583982 104.6875 1904.0625 C90.01738985 1906.56512954 75.19510399 1907.78184493 60.375 1909 C58.79715729 1909.12973206 58.79715729 1909.12973206 57.18743896 1909.26208496 C-34.45772185 1916.74043233 -125.66845059 1912.35176739 -232.0625 1891 C-237.34602849 1889.80941712 -242.6329581 1888.65679361 -247.9375 1887.5625 C-255.94050431 1885.85815649 -263.82601211 1883.73573429 -271.72509766 1881.60986328 C-273.79796416 1881.05416243 -275.87281152 1880.50713749 -277.94921875 1879.96484375 C-298.4788312 1874.57609319 -318.90500458 1868.46180944 -338.83203125 1861.140625 C-341.31587978 1860.24631702 -343.80204966 1859.39675931 -346.30859375 1858.5703125 C-350.99274761 1857.01858525 -355.62368009 1855.34052197 -360.25 1853.625 C-361.07918945 1853.31828369 -361.90837891 1853.01156738 -362.76269531 1852.69555664 C-369.53039276 1850.18620779 -376.27887176 1847.63181725 -383 1845 C-384.15371094 1844.55140625 -385.30742188 1844.1028125 -386.49609375 1843.640625 C-394.30532218 1840.56651603 -401.987359 1837.26988992 -409.64135742 1833.82763672 C-413.56425884 1832.06702802 -417.48967669 1830.36752332 -421.5 1828.8125 C-424.62370033 1827.59800762 -427.60430964 1826.23689898 -430.58984375 1824.71484375 C-435.09326786 1822.44241677 -439.6333182 1820.26151747 -444.19384766 1818.10644531 C-454.95748554 1813.01684769 -465.53529957 1807.67548982 -476 1802 C-478.24996097 1800.791594 -480.49995855 1799.58325615 -482.75 1798.375 C-483.77996094 1797.818125 -484.80992187 1797.26125 -485.87109375 1796.6875 C-488.04707578 1795.51393666 -490.22707712 1794.34780781 -492.41015625 1793.1875 C-497.72158165 1790.35799209 -502.97923266 1787.52538156 -508.0234375 1784.23828125 C-510.31762005 1782.80101669 -512.6703552 1781.47682286 -515.02392578 1780.13989258 C-518.63885307 1778.05463245 -522.19191708 1775.8678817 -525.75 1773.6875 C-526.54349854 1773.2018457 -527.33699707 1772.71619141 -528.15454102 1772.21582031 C-533.29788997 1769.06116308 -538.41509488 1765.8698932 -543.4921875 1762.609375 C-545.24204672 1761.48641239 -546.99774672 1760.3725219 -548.7578125 1759.265625 C-554.05122575 1755.93328128 -559.23587048 1752.49455768 -564.33984375 1748.87890625 C-566.80462727 1747.13799454 -569.28463254 1745.42081556 -571.77050781 1743.71020508 C-578.25770567 1739.24384346 -584.64731418 1734.65554494 -591 1730 C-592.81228579 1728.68720423 -594.62478762 1727.37470667 -596.4375 1726.0625 C-605.79686711 1719.24962736 -614.99439974 1712.27375406 -624 1705 C-624.845625 1704.3296875 -625.69125 1703.659375 -626.5625 1702.96875 C-631.12895252 1699.34900105 -635.57885573 1695.64778927 -639.9375 1691.78125 C-642.24378682 1689.78945684 -644.61198747 1687.89293676 -647 1686 C-650.79152642 1682.99112812 -654.47710504 1679.89939494 -658.09765625 1676.6875 C-659.3057453 1675.61584811 -660.52112815 1674.55231944 -661.74609375 1673.5 C-667.19016538 1668.81692763 -672.41407885 1663.90518263 -677.63305664 1658.97436523 C-680.29024907 1656.47463606 -682.92732757 1654.05797463 -685.78125 1651.78125 C-687.76837693 1650.18595092 -689.24186188 1648.67570958 -690.8125 1646.6875 C-693.63639835 1643.28863266 -696.76723476 1640.47891924 -700.125 1637.6171875 C-702.545372 1635.52961665 -704.76917766 1633.28802291 -707 1631 C-707.55558594 1630.45472656 -708.11117188 1629.90945313 -708.68359375 1629.34765625 C-711.46148357 1626.61755808 -714.15849673 1623.89220054 -716.625 1620.875 C-719.7243061 1617.1232084 -723.18662405 1613.80257892 -726.6484375 1610.38671875 C-731.9891586 1605.09955789 -737.15706228 1599.75098855 -742 1594 C-742.87479135 1592.96596928 -743.74981027 1591.93213106 -744.625 1590.8984375 C-746.06744707 1589.19404244 -747.50920268 1587.4890883 -748.94873047 1585.78222656 C-751.47773818 1582.78572241 -754.02657396 1579.81182571 -756.625 1576.875 C-760.05598467 1572.97948772 -763.32780835 1568.96154041 -766.6015625 1564.93359375 C-768.67933766 1562.39221078 -770.77815712 1559.87162667 -772.88964844 1557.35839844 C-777.09583447 1552.34832132 -781.13238266 1547.27314245 -785 1542 C-786.49825917 1539.99869556 -787.99840144 1537.99880008 -789.5 1536 C-790.27472656 1534.96617188 -791.04945313 1533.93234375 -791.84765625 1532.8671875 C-793.08118898 1531.22396967 -794.31683253 1529.58232103 -795.55859375 1527.9453125 C-802.90905301 1518.24187336 -809.87207435 1508.24564869 -816.77734375 1498.22265625 C-818.28400373 1496.03813167 -819.7954715 1493.85809006 -821.31640625 1491.68359375 C-829.10582066 1480.5342653 -836.23740055 1469.02815239 -843.3046875 1457.4140625 C-844.89961361 1454.79534359 -846.50367132 1452.18350392 -848.1328125 1449.5859375 C-852.43366547 1442.70805521 -856.43991683 1435.70474686 -860.34863281 1428.59960938 C-862.77384845 1424.19251729 -865.249862 1419.82862984 -867.8125 1415.5 C-870.21983557 1411.40418601 -872.41994053 1407.26959576 -874.5 1403 C-876.11653698 1399.76692604 -877.80787003 1396.57991659 -879.50732422 1393.38989258 C-884.30906952 1384.36753352 -888.81741301 1375.2560039 -893.08837891 1365.97167969 C-893.9473511 1364.11387051 -894.82276247 1362.26368748 -895.69921875 1360.4140625 C-905.53638865 1339.63906033 -914.30761844 1318.43442781 -922.29785156 1296.88671875 C-923.02459946 1294.93389963 -923.76029947 1292.98458274 -924.49609375 1291.03515625 C-926.0101321 1287.00049092 -927.45008107 1282.94185721 -928.875 1278.875 C-930.67738963 1273.73802278 -932.50641232 1268.61336493 -934.375 1263.5 C-944.83894869 1234.19421444 -952.64136145 1204.19969695 -960 1174 C-960.29438965 1172.79585449 -960.5887793 1171.59170898 -960.89208984 1170.35107422 C-967.27829073 1144.05290761 -972.02390567 1117.59772355 -975.48217773 1090.76391602 C-975.86218055 1088.0017739 -976.26894658 1085.25259391 -976.70727539 1082.49975586 C-978.73431778 1069.71943005 -980.04126349 1056.959825 -981.0625 1044.0625 C-981.14649048 1043.01865143 -981.23048096 1041.97480286 -981.3170166 1040.89932251 C-981.90245665 1033.60132092 -982.45955855 1026.30146163 -983 1019 C-983.06378845 1018.14780884 -983.1275769 1017.29561768 -983.19329834 1016.41760254 C-986.59796437 970.59313946 -985.38768309 924.78836174 -982 879 C-981.93963562 878.18078064 -981.87927124 877.36156128 -981.81707764 876.51751709 C-979.72932248 848.5636907 -976.05147647 820.57777604 -971 793 C-970.78730469 791.83017578 -970.57460938 790.66035156 -970.35546875 789.45507812 C-966.65325148 769.1408418 -962.60208614 748.98689457 -957.5 728.97216797 C-956.82325346 726.30285229 -956.16261403 723.62963604 -955.50097656 720.95654297 C-953.62915753 713.41271092 -951.71179851 705.88239812 -949.65429688 698.38671875 C-949.17836534 696.65063415 -948.70621252 694.9135123 -948.23632812 693.17578125 C-940.78696914 665.75250589 -931.77787426 638.60212497 -921.125 612.25 C-920.41914257 610.49744749 -919.71341438 608.74484291 -919.0078125 606.9921875 C-918.66524414 606.14237305 -918.32267578 605.29255859 -917.96972656 604.41699219 C-917.11395049 602.28401557 -916.26831664 600.14757421 -915.4296875 598.0078125 C-912.16404082 589.70985783 -908.63722556 581.56145424 -904.98046875 573.4296875 C-903.77037602 570.73660966 -902.5799427 568.03781788 -901.42578125 565.3203125 C-892.64959793 544.76149516 -882.64967604 524.64752371 -872 505 C-871.42765625 503.94039062 -870.8553125 502.88078125 -870.265625 501.7890625 C-869.30269329 500.0170696 -868.33570654 498.24726963 -867.36328125 496.48046875 C-866.39396739 494.71681745 -865.43399565 492.94801761 -864.48046875 491.17578125 C-861.86607301 486.32425701 -859.16830662 481.58623189 -856.203125 476.94140625 C-854.9581325 474.93244107 -853.81759311 472.88810434 -852.6875 470.8125 C-849.9901722 465.89830591 -847.05332315 461.14502721 -844.09765625 456.3828125 C-842.74166278 454.19605209 -841.39465723 452.00368131 -840.05859375 449.8046875 C-835.30656899 441.99024679 -830.30947246 434.37137318 -825.20068359 426.78710938 C-823.39226503 424.09544124 -821.60404801 421.39041576 -819.8125 418.6875 C-813.67906444 409.49956466 -807.24204101 400.55669213 -800.69140625 391.6640625 C-798.43874802 388.60423462 -796.2166612 385.52352935 -794 382.4375 C-781.51306508 365.2520047 -767.77127956 348.89702114 -753.70703125 332.98828125 C-751.76444789 330.72563839 -749.91987118 328.39558207 -748.0625 326.0625 C-742.68329569 319.44194084 -736.7974767 313.31910693 -730.921875 307.140625 C-727.68928434 303.74067106 -724.52051339 300.29303849 -721.375 296.8125 C-715.63268747 290.51335716 -709.60187989 284.51598284 -703.54125977 278.5246582 C-699.36936365 274.41210467 -699.36936365 274.41210467 -695.3125 270.1875 C-694 269 -694 269 -692 269 C-691.60844727 268.11380981 -691.60844727 268.11380981 -691.20898438 267.2097168 C-689.92619454 264.86510234 -688.61388698 263.45111273 -686.65625 261.64453125 C-685.66008667 260.71785645 -685.66008667 260.71785645 -684.64379883 259.77246094 C-683.93634521 259.12567383 -683.2288916 258.47888672 -682.5 257.8125 C-681.77385498 257.1412207 -681.04770996 256.46994141 -680.29956055 255.77832031 C-678.2052976 253.84601494 -676.10377635 251.92193608 -674 250 C-672.60201172 248.71416016 -672.60201172 248.71416016 -671.17578125 247.40234375 C-661.8594318 238.91753624 -652.15605801 230.86991133 -642.33984375 222.97265625 C-639.99111336 221.04910805 -639.99111336 221.04910805 -637.94921875 218.94921875 C-636.023463 217.023463 -634.04160482 215.39693946 -631.875 213.75 C-628.61160547 211.24788674 -625.38550623 208.71018378 -622.1875 206.125 C-617.49637793 202.35899051 -612.69904836 198.74967378 -607.875 195.15625 C-605.37137039 193.27852779 -602.89817233 191.3708854 -600.4375 189.4375 C-587.4439195 179.2899102 -573.73429333 170.10431909 -560 161 C-558.54156658 160.02098241 -557.0832266 159.04182561 -555.625 158.0625 C-550.03193863 154.33379242 -544.36840477 150.71396724 -538.70605469 147.09179688 C-537.13891189 146.08889725 -535.57328753 145.08362593 -534.0078125 144.078125 C-524.70504589 138.12224609 -515.22419337 132.51781215 -505.62109375 127.0625 C-503.29395594 125.74016375 -500.97550115 124.40567084 -498.66015625 123.0625 C-479.6677031 112.07036842 -460.00153055 102.35183971 -440.25 92.8125 C-439.22052246 92.31314941 -438.19104492 91.81379883 -437.13037109 91.29931641 C-431.02577437 88.36469584 -424.87373389 85.63786326 -418.59716797 83.09082031 C-416.29862588 82.12542399 -414.08824575 81.08234311 -411.875 79.9375 C-408.22549745 78.06018387 -404.48423042 76.54537867 -400.6640625 75.05078125 C-397.96764375 73.98723779 -395.29633401 72.87497024 -392.625 71.75 C-372.92169758 63.5319134 -353.02604334 55.84746256 -332.7253418 49.22363281 C-330.36106903 48.44705931 -328.00023183 47.65988243 -325.64428711 46.85839844 C-316.74445795 43.83433567 -307.78362942 41.12536484 -298.73876953 38.57006836 C-296.50059238 37.93766738 -294.26387208 37.30031434 -292.02734375 36.66210938 C-280.11883233 33.27269973 -268.19446031 29.89807075 -256.125 27.125 C-251.19846735 25.99268278 -246.28417658 24.82718574 -241.3828125 23.58984375 C-226.4689635 19.85564494 -211.51609297 17.05812391 -196.34912109 14.56591797 C-192.46157651 13.90901985 -188.59185308 13.17745183 -184.72021484 12.43359375 C-171.17348023 9.84403921 -157.52320731 8.11874482 -143.83544922 6.46728516 C-141.33540206 6.16269634 -138.83687424 5.84527867 -136.34033203 5.51318359 C-121.7832625 3.64801902 -107.14225274 2.77897008 -92.5 1.875 C-91.78424931 1.83041782 -91.06849861 1.78583565 -90.3310585 1.7399025 C-60.19810616 -0.12909151 -30.19203798 -0.51857571 0 0 Z M-118 49 C-118.76303185 49.07404493 -119.52606369 49.14808987 -120.31221771 49.22437859 C-160.01313656 53.107178 -199.13705177 60.06665636 -238 69 C-238.71679932 69.16373108 -239.43359863 69.32746216 -240.17211914 69.49615479 C-322.42988682 88.31928209 -403.44427382 120.21569943 -488.32275391 169.40478516 C-490.75991066 170.85694476 -493.20973574 172.2831373 -495.66796875 173.69921875 C-507.19543229 180.39572688 -518.28554122 187.73456202 -529.375 195.125 C-530.14299927 195.63633484 -530.91099854 196.14766968 -531.70227051 196.67449951 C-541.59903562 203.27331304 -551.37116988 210.01601833 -561 217 C-561.87188965 217.63164062 -562.7437793 218.26328125 -563.64208984 218.9140625 C-576.79570558 228.48423867 -589.64371632 238.36099827 -602.1796875 248.7265625 C-604.28839851 250.42638217 -606.40878406 252.08087587 -608.5703125 253.7109375 C-609.47221313 254.39240845 -609.47221313 254.39240845 -610.39233398 255.08764648 C-611.56986514 255.97307689 -612.75155574 256.85300821 -613.93774414 257.72680664 C-615.32771587 258.77176942 -616.66913993 259.88072341 -618 261 C-618 261.66 -618 262.32 -618 263 C-618.598125 263.28875 -619.19625 263.5775 -619.8125 263.875 C-622.19327792 265.04742026 -622.19327792 265.04742026 -625 267 C-625 267.66 -625 268.32 -625 269 C-625.54140625 269.22300781 -626.0828125 269.44601562 -626.640625 269.67578125 C-629.74969682 271.42077355 -632.17875046 273.75295394 -634.75 276.1875 C-635.82350454 277.18956775 -636.89772354 278.19087067 -637.97265625 279.19140625 C-638.49230957 279.67625488 -639.01196289 280.16110352 -639.54736328 280.66064453 C-641.39022939 282.35979805 -643.28253177 283.99600303 -645.1875 285.625 C-648.05935502 288.10604588 -650.72409876 290.7218298 -653.375 293.4375 C-657.26862953 297.39175698 -661.41621158 300.8174411 -665.78515625 304.23046875 C-668.39653736 306.31681027 -670.70036329 308.5760586 -673 311 C-674.12416407 312.10501772 -675.24924106 313.20910713 -676.375 314.3125 C-679.42501505 317.36251505 -682.27972404 320.5375888 -685.08984375 323.80859375 C-688.07919753 327.23809778 -691.18416695 330.56255734 -694.27734375 333.8984375 C-696.21131402 335.80489822 -696.21131402 335.80489822 -696 338 C-696.556875 338.20625 -697.11375 338.4125 -697.6875 338.625 C-700.97012371 340.57683032 -702.70673246 342.94230994 -705 346 C-705 346.66 -705 347.32 -705 348 C-705.66 348 -706.32 348 -707 348 C-707 348.66 -707 349.32 -707 350 C-707.99 350.33 -708.98 350.66 -710 351 C-712.40995366 353.63541018 -712.40995366 353.63541018 -713 357 C-713.61875 357.226875 -714.2375 357.45375 -714.875 357.6875 C-717.22720631 358.84931972 -717.22720631 358.84931972 -718 361.5 C-719 364 -719 364 -721.125 365.3125 C-721.74375 365.539375 -722.3625 365.76625 -723 366 C-723 366.66 -723 367.32 -723 368 C-723.83724609 368.30550781 -723.83724609 368.30550781 -724.69140625 368.6171875 C-727.86905789 370.52055244 -729.75338221 373.20606122 -731.9375 376.125 C-732.91779405 377.40607931 -733.89962566 378.68598321 -734.8828125 379.96484375 C-735.39360352 380.63112793 -735.90439453 381.29741211 -736.43066406 381.98388672 C-738.47380627 384.60869511 -740.58558192 387.17262101 -742.70336914 389.73730469 C-749.89776671 398.4565958 -756.6386594 407.46898306 -763.27246094 416.61962891 C-764.95859753 418.94295166 -766.65404865 421.25920059 -768.3515625 423.57421875 C-796.51556714 462.10475161 -820.73585266 503.37603296 -842.39648438 545.86035156 C-843.85286815 548.71191907 -845.32309215 551.55583908 -846.796875 554.3984375 C-874.02072502 607.34037148 -894.58199571 664.53685585 -909.50048828 722.08666992 C-910.26507106 725.01532838 -911.05704472 727.93659386 -911.84375 730.859375 C-925.66946046 783.16302966 -934.13885416 837.5783369 -937.31738281 891.58105469 C-937.38022461 892.58168945 -937.44306641 893.58232422 -937.5078125 894.61328125 C-937.55566895 895.46704346 -937.60352539 896.32080566 -937.65283203 897.20043945 C-938 900 -938 900 -939.00552368 903.58209229 C-940.18602492 908.24821931 -940.28174287 912.69276298 -940.25878906 917.48608398 C-940.2622937 918.39938477 -940.26579834 919.31268555 -940.26940918 920.25366211 C-940.27816002 923.25121829 -940.27240039 926.24853546 -940.265625 929.24609375 C-940.26697367 931.34302312 -940.2689159 933.43995219 -940.27142334 935.53688049 C-940.2743657 939.92378731 -940.27010594 944.31061247 -940.26074219 948.69750977 C-940.24935531 954.30371583 -940.255908 959.9097302 -940.26788712 965.51592922 C-940.2751357 969.84407478 -940.27280391 974.17217538 -940.26763153 978.50032234 C-940.26630296 980.56666143 -940.26791481 982.63300469 -940.27259064 984.69933891 C-940.27770448 987.59450877 -940.26987743 990.48937413 -940.25878906 993.38452148 C-940.26283752 994.2279158 -940.26688599 995.07131012 -940.27105713 995.94026184 C-940.2365968 1000.82950588 -939.67016355 1005.25805253 -938.46971989 1010.00136662 C-937.72884922 1013.15373231 -937.54076859 1016.30580812 -937.32421875 1019.53125 C-937.22078053 1020.97431279 -937.11691949 1022.41734532 -937.01269531 1023.86035156 C-936.96036743 1024.61384888 -936.90803955 1025.36734619 -936.85412598 1026.14367676 C-933.26540918 1076.89312756 -926.28258851 1128.55683926 -911.98828125 1177.48828125 C-910.94119213 1181.20896553 -910.17481238 1184.91586688 -909.4831543 1188.71459961 C-908.87934234 1191.57073084 -907.91647207 1194.27406175 -906.97705078 1197.03442383 C-905.74728459 1200.76705 -904.6067573 1204.52370768 -903.46875 1208.28515625 C-887.6682498 1260.40558331 -868.73660837 1310.81959833 -844.62841797 1359.69628906 C-843.11878628 1362.7590081 -841.62239344 1365.82782365 -840.12890625 1368.8984375 C-826.43408986 1396.88156979 -810.48862001 1424.19853105 -793.23388672 1450.14404297 C-792.01457082 1451.97808323 -790.80527663 1453.81839956 -789.59765625 1455.66015625 C-775.41922909 1477.20167876 -760.49138726 1498.32458878 -744.0859375 1518.23046875 C-741.13720911 1521.81211734 -738.28141032 1525.45997148 -735.4375 1529.125 C-731.23009352 1534.528938 -726.85127441 1539.75943107 -722.36157227 1544.93066406 C-718.35575129 1549.54896974 -714.52280206 1554.28054097 -710.7421875 1559.0859375 C-709.87980469 1560.03339844 -709.87980469 1560.03339844 -709 1561 C-708.34 1561 -707.68 1561 -707 1561 C-706.73807861 1561.58410645 -706.47615723 1562.16821289 -706.20629883 1562.77001953 C-704.93364594 1565.12266302 -703.54726477 1566.7526391 -701.69921875 1568.6796875 C-701.05146484 1569.36160156 -700.40371094 1570.04351563 -699.73632812 1570.74609375 C-699.06021484 1571.44863281 -698.38410156 1572.15117188 -697.6875 1572.875 C-696.35647475 1574.26670244 -695.02701821 1575.65990706 -693.69921875 1577.0546875 C-692.74861572 1578.05193848 -692.74861572 1578.05193848 -691.77880859 1579.06933594 C-690.15519982 1580.83155089 -688.6408407 1582.63756296 -687.14453125 1584.5078125 C-686.43683594 1585.33023437 -685.72914063 1586.15265625 -685 1587 C-684.34 1587 -683.68 1587 -683 1587 C-682.7628125 1587.56170898 -682.525625 1588.12341797 -682.28125 1588.70214844 C-680.70680643 1591.52582658 -678.78315455 1593.47614842 -676.5 1595.765625 C-675.613125 1596.65507813 -674.72625 1597.54453125 -673.8125 1598.4609375 C-672.884375 1599.38132812 -671.95625 1600.30171875 -671 1601.25 C-670.071875 1602.18585938 -669.14375 1603.12171875 -668.1875 1604.0859375 C-667.300625 1604.97023438 -666.41375 1605.85453125 -665.5 1606.765625 C-664.6853125 1607.57805664 -663.870625 1608.39048828 -663.03125 1609.22753906 C-661.19815007 1611.21915939 -661.19815007 1611.21915939 -659 1611 C-659 1611.66 -659 1612.32 -659 1613 C-658.34 1613 -657.68 1613 -657 1613 C-657 1613.66 -657 1614.32 -657 1615 C-655.72126041 1616.33252309 -655.72126041 1616.33252309 -653.9375 1617.75 C-649.66660438 1621.37379023 -645.57980665 1625.16486092 -641.5 1629 C-636.41312198 1633.766162 -631.298786 1638.46929491 -626 1643 C-624.96706354 1643.89799555 -623.9345526 1644.79648068 -622.90234375 1645.6953125 C-616.5220684 1651.23173626 -610.05502947 1656.61177505 -603.38110352 1661.79077148 C-599.6358833 1664.70015744 -595.94927263 1667.66938366 -592.28955078 1670.68554688 C-544.15945264 1710.29273062 -489.53247482 1743.00777169 -434 1771 C-432.8229248 1771.59393555 -431.64584961 1772.18787109 -430.43310547 1772.79980469 C-378.90053078 1798.69536491 -324.43381598 1819.5192173 -268.6875 1834.3125 C-267.19041504 1834.71311646 -267.19041504 1834.71311646 -265.66308594 1835.12182617 C-264.72625977 1835.36650635 -263.78943359 1835.61118652 -262.82421875 1835.86328125 C-261.98979248 1836.08282471 -261.15536621 1836.30236816 -260.2956543 1836.52856445 C-257.73755491 1837.13410801 -257.73755491 1837.13410801 -254 1837 C-254 1837.66 -254 1838.32 -254 1839 C-253.3201001 1839.14099121 -252.6402002 1839.28198242 -251.93969727 1839.42724609 C-248.81382924 1840.07584578 -245.68816376 1840.72541664 -242.5625 1841.375 C-241.49322266 1841.59671875 -240.42394531 1841.8184375 -239.32226562 1842.046875 C-236.2138488 1842.69327361 -233.10667159 1843.34526934 -230 1844 C-229.08976074 1844.18981445 -228.17952148 1844.37962891 -227.24169922 1844.57519531 C-221.11651235 1845.88348765 -221.11651235 1845.88348765 -220 1847 C-218.55352389 1847.32166733 -217.09503099 1847.58964421 -215.63354492 1847.83422852 C-214.71100418 1847.99116684 -213.78846344 1848.14810516 -212.83796692 1848.30979919 C-211.83311752 1848.47697952 -210.82826813 1848.64415985 -209.79296875 1848.81640625 C-207.6722351 1849.17649199 -205.55163233 1849.53734927 -203.43115234 1849.89892578 C-202.35218689 1850.08239563 -201.27322144 1850.26586548 -200.16156006 1850.45489502 C-195.51388529 1851.25623063 -190.8764243 1852.11039363 -186.23828125 1852.96484375 C-150.01364141 1859.57366138 -113.8600362 1863.8397486 -77.10888672 1866.10083008 C-75.77774338 1866.18283409 -75.77774338 1866.18283409 -74.41970825 1866.26649475 C-72.77720112 1866.36617442 -71.13452965 1866.46320198 -69.4916687 1866.55686951 C-66.03085967 1866.76297713 -62.65725124 1867.04764887 -59.21899414 1867.52563477 C-53.71018508 1868.24925991 -48.18416045 1868.16247665 -42.63671875 1868.16796875 C-41.45012161 1868.17129715 -40.26352448 1868.17462555 -39.04096985 1868.17805481 C-36.53211858 1868.18310408 -34.02326064 1868.18546375 -31.5144043 1868.18530273 C-27.73800066 1868.187471 -23.96189822 1868.205598 -20.18554688 1868.22460938 C-7.43971678 1868.25484953 4.99016471 1867.8391586 17.63418579 1866.26950073 C22.06241534 1865.76506082 26.50580614 1865.4445911 30.94921875 1865.10546875 C32.86712779 1864.95625158 34.78501488 1864.80675197 36.70288086 1864.65698242 C37.67804657 1864.58095795 38.65321228 1864.50493347 39.65792847 1864.42660522 C129.91033582 1857.30354446 219.59524702 1838.77399051 311 1802 C312.25336845 1801.49263934 313.5069522 1800.98581024 314.76074219 1800.47949219 C335.53300283 1792.07643001 355.82592853 1782.74412608 376 1773 C377.07668945 1772.48163574 378.15337891 1771.96327148 379.26269531 1771.42919922 C392.54863178 1765.00510967 405.4215514 1757.96476168 418.20800781 1750.60107422 C420.8883076 1749.06405026 423.578441 1747.54623241 426.2734375 1746.03515625 C471.44781709 1720.64162754 515.27313624 1690.50865421 554.35302734 1656.42480469 C556.54417884 1654.52922803 558.76485898 1652.67016024 560.98632812 1650.81030273 C566.81966367 1645.92340676 572.47864166 1640.88577124 578.05078125 1635.703125 C580.31214227 1633.61022196 582.61836005 1631.57496739 584.94140625 1629.55078125 C597.3209763 1618.75235699 608.94107024 1607.16278337 620.5625 1595.5625 C621.22252014 1594.90506805 621.88254028 1594.24763611 622.56256104 1593.57028198 C631.81974519 1584.37870436 631.81974519 1584.37870436 640.55151367 1574.69360352 C643.05706399 1571.76405648 645.73046762 1568.99104419 648.375 1566.1875 C653.00272311 1561.24251138 657.39827818 1556.18772762 661.6328125 1550.8984375 C664.46987564 1547.42467372 667.41891018 1544.05987394 670.375 1540.6875 C675.98045122 1534.26484025 681.30592422 1527.67282523 686.51074219 1520.92333984 C688.14557387 1518.81199493 689.794484 1516.71213969 691.4453125 1514.61328125 C698.09877514 1506.1391655 704.58249448 1497.58923661 710.75927734 1488.76171875 C712.03075437 1486.95633146 713.31989539 1485.16474584 714.61328125 1483.375 C762.01256769 1417.50227406 800.61165426 1344.38673281 828 1268 C828.27972656 1267.22009705 828.55945312 1266.44019409 828.84765625 1265.63665771 C853.45590685 1196.81888893 869.15109771 1126.28942067 877.6875 1053.75 C877.79636536 1052.82998199 877.90523071 1051.90996399 878.01739502 1050.96206665 C879.30901399 1039.98305981 880.42424985 1029.04328496 881 1018 C881.05518799 1016.96858887 881.11037598 1015.93717773 881.16723633 1014.87451172 C885.39067394 927.40580549 880.20276956 840.53770893 856.3125 734.75 C856.12608948 733.95734741 855.93967896 733.16469482 855.74761963 732.34802246 C853.66545826 723.52883349 851.4492119 714.78651119 848.86987305 706.09765625 C847.95383467 702.83560324 847.20916928 699.562674 846.5 696.25 C845.44852138 691.56051782 844.03163032 687.36062472 842.15625 682.94921875 C840.64100417 679.08431808 839.41761884 675.15090349 838.1875 671.1875 C835.96902026 664.06557467 833.71156219 656.95918383 831.375 649.875 C831.09809326 649.02317139 830.82118652 648.17134277 830.53588867 647.29370117 C828.91191953 642.39391857 827.03702109 637.71286794 824.89257812 633.01855469 C823.37956961 629.59690413 822.32955113 626.04827412 821.22265625 622.48046875 C819.37639398 617.2248148 817.17527562 612.12670769 815 607 C814.30813599 605.36091675 814.30813599 605.36091675 813.60229492 603.6887207 C806.11191917 586.01082527 798.16967931 568.61631664 789.67578125 551.3984375 C788.07666998 548.15548458 786.49061008 544.90642827 784.90625 541.65625 C778.1123305 527.80189568 770.7530904 514.33892374 763 501 C762.46761719 500.07977051 761.93523437 499.15954102 761.38671875 498.21142578 C745.95629731 471.58831726 729.10625264 445.87967298 711 421 C710.48115234 420.28279785 709.96230469 419.5655957 709.42773438 418.82666016 C701.71583878 408.17721725 693.75172506 397.81160706 685.37646484 387.67626953 C683.53388938 385.43236688 681.73538319 383.15479002 679.9375 380.875 C675.29623036 375.05638523 670.41898728 369.44278063 665.55566406 363.81005859 C664.04636553 362.05394758 662.54859789 360.28874085 661.0546875 358.51953125 C654.2864395 350.52038444 647.25300597 342.81699239 640.05761719 335.20117188 C637.99035656 332.98968377 635.94701074 330.75720089 633.90423584 328.52311707 C627.57379261 321.61378506 621.06426011 314.90862548 614.42578125 308.29541016 C612.73318653 306.60824042 611.04609403 304.91569804 609.359375 303.22265625 C604.31628242 298.17647611 599.24998235 293.20868752 593.81982422 288.57470703 C590.50390139 285.70541508 587.36335582 282.64727385 584.1875 279.625 C578.79050769 274.52359604 573.32089878 269.67120934 567.51171875 265.04296875 C564.9039846 262.92190349 562.41948623 260.70399595 559.9375 258.4375 C555.12509075 254.0632693 550.11800125 250.00922336 545 246 C544.00871094 245.21367187 543.01742188 244.42734375 541.99609375 243.6171875 C538.34614974 240.7249143 534.67611205 237.85891421 531 235 C529.8567627 234.10982178 529.8567627 234.10982178 528.69042969 233.20166016 C515.11191403 222.65894746 501.20849383 212.67503378 487 203 C486.30213379 202.52369141 485.60426758 202.04738281 484.88525391 201.55664062 C480.62186386 198.65512112 476.32364752 195.81084006 472 193 C471.22994629 192.49855469 470.45989258 191.99710938 469.66650391 191.48046875 C447.35291254 176.99931517 424.4909863 163.4802559 401 151 C400.11521973 150.52675293 399.23043945 150.05350586 398.31884766 149.56591797 C353.97030905 125.88294996 307.92867028 106.20323935 260.25 90.25 C259.03739502 89.84362305 257.82479004 89.43724609 256.57543945 89.01855469 C251.05270051 87.20498912 245.59595516 85.58801283 239.90161133 84.41894531 C237.19367097 83.82235709 234.6202073 82.90187057 232 82 C229.03001111 81.13330778 226.04644152 80.31717901 223.0625 79.5 C221.51165149 79.07316096 219.9608693 78.6460809 218.41015625 78.21875 C217.65822998 78.0120166 216.90630371 77.8052832 216.1315918 77.59228516 C214.25856717 77.0718456 212.39055367 76.5334414 210.5234375 75.9921875 C206.22357178 74.78136057 201.89847988 73.69795978 197.5625 72.625 C195.93879161 72.22139628 194.31509409 71.81774886 192.69140625 71.4140625 C191.80670654 71.19548584 190.92200684 70.97690918 190.01049805 70.75170898 C187.81183456 70.20271175 185.61571034 69.64351638 183.42114258 69.07836914 C173.19622785 66.45440275 162.92156832 64.21500756 152.5625 62.1875 C151.69838501 62.01802856 150.83427002 61.84855713 149.94396973 61.6739502 C120.4849354 55.94428602 90.69643555 51.93424 60.875 48.625 C60.17137329 48.54527954 59.46774658 48.46555908 58.74279785 48.38342285 C38.73774667 46.14692908 18.6153372 45.83569552 -1.49609375 45.796875 C-2.51729876 45.79404762 -3.53850376 45.79122025 -4.59065437 45.78830719 C-10.00550703 45.77347564 -15.4203342 45.76414803 -20.83520508 45.75976562 C-25.20638492 45.75540671 -29.57736453 45.74159158 -33.94848633 45.71875 C-62.10981358 45.57467688 -89.9615731 46.27874995 -118 49 Z " fill="#80807D" transform="translate(1045,86)"/>
<path d="M0 0 C3.52088032 0.03690908 7.04071213 0.04101486 10.56176758 0.04052734 C12.8423755 0.05034897 15.12297643 0.06200178 17.40356445 0.07568359 C18.43506119 0.07790924 19.46655792 0.08013489 20.52931213 0.08242798 C35.65529487 0.27690676 50.24655981 4.09652361 64.6809082 8.34912109 C65.50848633 8.58985352 66.33606445 8.83058594 67.1887207 9.07861328 C72.82993107 10.77503158 78.09861413 12.91991052 83.4309082 15.41162109 C84.27395508 15.79310303 85.11700195 16.17458496 85.9855957 16.56762695 C105.39659789 25.37205409 123.09359366 35.6908657 139.4309082 49.41162109 C140.35081543 50.17925781 140.35081543 50.17925781 141.28930664 50.96240234 C153.8337571 61.47901456 165.33604279 72.47589975 175.4309082 85.41162109 C176.23141602 86.40677734 177.03192383 87.40193359 177.85668945 88.42724609 C184.42513952 96.66764193 190.04468158 105.36293404 195.4309082 114.41162109 C195.82165527 115.06001953 196.21240234 115.70841797 196.61499023 116.37646484 C202.96287343 126.96781339 207.91446441 137.92936828 212.4309082 149.41162109 C213.03032227 150.92175781 213.03032227 150.92175781 213.6418457 152.46240234 C238.04117978 216.77904696 229.48108695 279.86553834 201.88061523 341.22802734 C187.60653766 372.57426707 169.09732207 401.8433502 148.76049805 429.59472656 C147.22259144 431.69628752 145.69646218 433.80622679 144.16918945 435.91552734 C137.53297045 445.04090574 130.69190653 453.93483177 123.5168457 462.64208984 C120.56811146 466.22374555 117.71253649 469.87175572 114.8684082 473.53662109 C109.76357934 480.08609062 104.39454282 486.3836101 98.95141602 492.65283203 C97.42233876 494.42153347 95.90530039 496.19985286 94.3918457 497.98193359 C88.7561428 504.61292015 83.02348248 511.12286675 77.09887695 517.49755859 C75.04535115 519.74050186 73.03462754 522.00366419 71.0402832 524.29833984 C67.61061924 528.23254363 64.0756531 532.05395913 60.4934082 535.84912109 C59.16917263 537.25535525 57.84495445 538.66160579 56.52075195 540.06787109 C55.84512207 540.78458984 55.16949219 541.50130859 54.47338867 542.23974609 C52.47532037 544.36439535 50.48520618 546.49620148 48.49731445 548.63037109 C45.18607304 552.18180192 41.85170491 555.71028382 38.50317383 559.2265625 C37.09423101 560.71219377 35.69211344 562.20432151 34.29614258 563.70214844 C14.44848337 584.95277 14.44848337 584.95277 0.8059082 586.22412109 C-14.56179578 584.77003407 -27.05451826 570.23186383 -37.23706055 559.97412109 C-38.32664424 558.8833411 -39.4166025 557.79293513 -40.50691223 556.70288086 C-42.77481722 554.43342424 -45.03936381 552.16068958 -47.30126953 549.88525391 C-50.18059812 546.98890717 -53.06649481 544.09921609 -55.9547224 541.21174622 C-58.20026116 538.96593383 -60.4431717 536.71751183 -62.68523598 534.4682312 C-63.74784317 533.40247399 -64.81102875 532.33729308 -65.87483788 531.2727356 C-71.12706536 526.01275833 -76.31497964 520.73430548 -81.14183044 515.07575989 C-83.49019316 512.33764785 -85.97659725 509.72942625 -88.4440918 507.09912109 C-92.98257703 502.2257656 -97.26257977 497.20858132 -101.43237305 492.01318359 C-103.52791673 489.46175381 -105.70872334 487.02835336 -107.9440918 484.59912109 C-112.46442753 479.63223573 -116.57849673 474.40662319 -120.69018555 469.10302734 C-122.5929619 466.65048801 -124.52110661 464.22252463 -126.47924805 461.81396484 C-133.65166973 452.98938182 -140.39792387 443.91768412 -146.97973633 434.64501953 C-148.49862478 432.51064295 -150.03007872 430.38591292 -151.56518555 428.26318359 C-174.84124177 395.91668013 -194.96446637 360.83215788 -209.64477539 323.74487305 C-210.42539432 321.77435663 -211.22377641 319.81089089 -212.02612305 317.84912109 C-216.95681029 305.34478456 -220.38116176 292.45663081 -223.5690918 279.41162109 C-223.76696289 278.62625977 -223.96483398 277.84089844 -224.16870117 277.03173828 C-230.96892217 249.06224694 -227.83273722 214.13869149 -221.5690918 186.41162109 C-221.36413086 185.46037354 -221.15916992 184.50912598 -220.94799805 183.52905273 C-219.20603996 175.64231381 -217.01271495 168.00454847 -214.4440918 160.34912109 C-214.05229736 159.18098877 -213.66050293 158.01285645 -213.25683594 156.80932617 C-202.03674313 124.05848231 -183.52860743 94.37918952 -159.5690918 69.41162109 C-158.98385742 68.79383789 -158.39862305 68.17605469 -157.7956543 67.53955078 C-148.12595414 57.37332557 -137.98181964 48.56277444 -126.5690918 40.41162109 C-125.69196533 39.76749268 -125.69196533 39.76749268 -124.79711914 39.11035156 C-108.43405051 27.12846967 -89.14983857 16.79698002 -69.5690918 11.41162109 C-68.0866785 10.9001016 -66.60711138 10.38019864 -65.1315918 9.84912109 C-58.3852156 7.62118981 -51.48172742 6.02213499 -44.5690918 4.41162109 C-43.46051567 4.14668854 -43.46051567 4.14668854 -42.32954407 3.87640381 C-28.16892007 0.56399729 -14.51299957 -0.15727267 0 0 Z " fill="#3EB3E1" transform="translate(1006.569091796875,424.58837890625)"/>
<path d="M0 0 C2.71715262 0.31935502 5.43663024 0.60272372 8.15820312 0.88183594 C50.82559248 5.35624196 94.5940209 12.99848729 135.74804688 25.19042969 C138.74486528 26.06928938 141.7449751 26.91671167 144.75585938 27.74511719 C156.43955279 30.96136068 168.09705873 34.2739272 179.71615601 37.7164917 C181.14669054 38.13840882 182.57849106 38.55606132 184.0116272 38.96905518 C196.55126773 42.59030154 209.50467278 46.81125608 216.83007812 58.36621094 C224.44852038 73.97343638 217.71761389 92.71301361 213.51757812 108.29589844 C213.12712429 109.76850414 212.73751405 111.2413337 212.34863281 112.71435547 C205.75323145 137.68810837 198.62732029 162.41237275 190.45507812 186.92089844 C190.13220825 187.89024323 189.80933838 188.85958801 189.47668457 189.85830688 C183.3455441 208.21551486 176.73583736 226.33926209 169.51757812 244.29589844 C169.06495605 245.42334473 168.61233398 246.55079102 168.14599609 247.71240234 C143.97136538 307.41112968 112.36537974 372.8864454 59.51757812 412.29589844 C58.68742187 412.92109375 57.85726563 413.54628906 57.00195312 414.19042969 C42.87380493 424.45015635 27.6551938 431.78600869 11.51757812 438.29589844 C10.67864014 438.64418701 9.83970215 438.99247559 8.9753418 439.35131836 C3.62435236 441.55054565 -1.70633234 443.36885329 -7.29492188 444.85839844 C-8.07843018 445.06964355 -8.86193848 445.28088867 -9.66918945 445.49853516 C-11.9383582 446.10516533 -14.21018498 446.70088845 -16.48242188 447.29589844 C-17.55234375 447.5859375 -18.62226562 447.87597656 -19.72460938 448.17480469 C-47.19295081 455.13296545 -77.5821459 455.79781806 -105.41162109 450.65429688 C-108.35752951 450.14444147 -111.32304415 449.86469343 -114.29492188 449.54589844 C-168.64196449 441.7727815 -221.84436681 406.77762279 -254.60742188 363.48339844 C-269.22897161 343.74159029 -280.40097629 322.48066788 -288.48242188 299.29589844 C-288.88734863 298.17223877 -289.29227539 297.0485791 -289.70947266 295.89086914 C-292.69310186 287.36405351 -294.79598405 278.93346427 -296.36816406 270.04174805 C-296.73573775 267.96466108 -297.11949519 265.89104901 -297.50585938 263.81738281 C-300.03747633 250.06847197 -300.72157194 236.8665755 -300.73242188 222.92089844 C-300.73342896 222.02506042 -300.73443604 221.12922241 -300.73547363 220.20623779 C-300.72565253 207.30853573 -300.23741811 194.93384994 -297.48242188 182.29589844 C-297.19858216 180.81592401 -296.91737816 179.33544191 -296.63867188 177.85449219 C-285.07881203 118.94846591 -245.92471398 65.96233695 -196.65673828 32.71972656 C-190.79643231 28.88216712 -184.70263043 25.50954689 -178.48242188 22.29589844 C-177.81807129 21.95075195 -177.1537207 21.60560547 -176.46923828 21.25 C-164.89746308 15.32075266 -152.91984533 11.03788839 -140.48242188 7.29589844 C-139.80421387 7.08980957 -139.12600586 6.8837207 -138.42724609 6.67138672 C-94.99567791 -6.20180654 -44.68255659 -5.46120136 0 0 Z " fill="#FCFEA1" transform="translate(722.482421875,1044.7041015625)"/>
<path d="M0 0 C2.74278125 0.00016253 5.48489424 -0.01378404 8.22753906 -0.04101562 C33.67526695 -0.28926762 59.18910816 1.09842113 83.74414062 8.37060547 C85.63939142 8.87280907 87.53518917 9.37295509 89.43164062 9.87060547 C91.20419623 10.36446509 92.97496701 10.86476416 94.74414062 11.37060547 C96.36835937 11.83273437 96.36835937 11.83273437 98.02539062 12.30419922 C103.51819441 13.92306455 108.74288831 15.56896616 113.76757812 18.34326172 C116.06555646 19.53766548 118.43825193 20.5142933 120.82128906 21.5246582 C133.31872398 27.02283139 144.81071097 34.24536382 155.74414062 42.37060547 C156.37610352 42.83885742 157.00806641 43.30710937 157.65917969 43.78955078 C174.4100268 56.38488277 190.24396196 71.56777905 202.48730469 88.62207031 C203.85112294 90.51944139 205.246542 92.39136437 206.64257812 94.26513672 C223.80450831 117.59848923 236.08341562 143.53208416 243.24414062 171.62060547 C243.44394531 172.35794922 243.64375 173.09529297 243.84960938 173.85498047 C248.08987904 190.49196208 249.30160263 207.39137624 249.18164062 224.49560547 C249.17707855 225.89076889 249.17707855 225.89076889 249.17242432 227.31411743 C249.09716516 242.96852457 248.02535395 258.02081982 244.74414062 273.37060547 C244.52983398 274.39589355 244.31552734 275.42118164 244.09472656 276.47753906 C240.98325789 290.9637582 236.53140355 304.73850937 230.74414062 318.37060547 C230.42719238 319.11890625 230.11024414 319.86720703 229.78369141 320.63818359 C219.72951593 343.96762341 204.98942985 365.75616355 187.203125 383.88085938 C185.72721671 385.38788622 184.27427229 386.91478916 182.82226562 388.44482422 C175.69913101 395.8611114 168.02986257 402.29163359 159.74414062 408.37060547 C159.13618652 408.81758789 158.52823242 409.26457031 157.90185547 409.72509766 C116.98962044 439.48529376 69.03670103 454.91172259 18.55664062 454.68310547 C17.65417603 454.68028564 16.75171143 454.67746582 15.82189941 454.67456055 C-40.33867595 454.41130397 -93.19573229 433.47677747 -133.56835938 394.30810547 C-138.12852433 389.60302002 -142.17760859 384.49181875 -146.25585938 379.37060547 C-147.43535156 377.95134766 -147.43535156 377.95134766 -148.63867188 376.50341797 C-201.31808536 312.42775639 -230.17222502 228.86375684 -271.25585938 70.37060547 C-269.01983957 61.20778518 -265.2238814 55.25522341 -257.56835938 49.87060547 C-252.88232369 47.05979902 -248.28940581 45.18093864 -243.12304688 43.51904297 C-242.34229294 43.26371796 -241.561539 43.00839294 -240.75712585 42.74533081 C-231.59054505 39.78064392 -222.33721763 37.11913474 -213.06835938 34.49560547 C-212.15822083 34.23703766 -211.24808228 33.97846985 -210.31036377 33.71206665 C-183.15958831 26.00577421 -155.90005606 19.07185882 -128.25585938 13.37060547 C-127.16015625 13.14276367 -126.06445312 12.91492187 -124.93554688 12.68017578 C-110.77808606 9.77754501 -96.52635736 7.58765701 -82.21862793 5.58108521 C-80.37977377 5.32319712 -78.54128548 5.06268106 -76.70324707 4.79904175 C-51.23681887 1.17226866 -25.6992058 -0.00779747 0 0 Z " fill="#FE717F" transform="translate(1343.255859375,1042.62939453125)"/>
<path d="M0 0 C0.66 0.33 1.32 0.66 2 1 C-8.56 11.56 -19.12 22.12 -30 33 C-30.66 32.67 -31.32 32.34 -32 32 C-31.28714844 31.29875 -30.57429688 30.5975 -29.83984375 29.875 C-24.86560112 24.9564327 -20.02773314 20.00695795 -15.46875 14.6953125 C-10.79517185 9.30081006 -5.35204934 4.699076 0 0 Z " fill="#286F4D" transform="translate(385,385)"/>
<path d="M0 0 C3.22973344 1.47813887 5.88997098 3.31746497 8.6875 5.5 C9.47511719 6.1084375 10.26273438 6.716875 11.07421875 7.34375 C13 9 13 9 14 11 C13.01 11 12.02 11 11 11 C11 10.34 11 9.68 11 9 C10.29875 8.773125 9.5975 8.54625 8.875 8.3125 C5.25871465 6.66158712 2.91230024 4.7091165 0 2 C0 1.34 0 0.68 0 0 Z " fill="#0024FF" transform="translate(1601,286)"/>
<path d="M0 0 C1.79639296 1.09646058 3.58697154 2.20245148 5.375 3.3125 C6.37273437 3.92738281 7.37046875 4.54226563 8.3984375 5.17578125 C11 7 11 7 13 10 C9.03990775 10 7.85479241 8.59219817 4.8125 6.125 C3.91144531 5.40570313 3.01039062 4.68640625 2.08203125 3.9453125 C1.39496094 3.30335938 0.70789062 2.66140625 0 2 C0 1.34 0 0.68 0 0 Z " fill="#002AFF" transform="translate(1587,275)"/>
</svg>
