<svg id="Layer_1" data-name="Layer 1" xmlns="http://www.w3.org/2000/svg" viewBox="0 0 285.62 112.25"><defs><style>.cls-1{fill:#576167;}.cls-2{fill:none;stroke:#b3b3b4;stroke-miterlimit:10;stroke-width:0.63px;}.cls-3{fill:#b3b3b4;}</style></defs><polygon class="cls-1" points="81.41 100.77 79.17 104.18 76.93 100.77 75.84 100.77 78.71 105.02 78.71 108.06 79.63 108.06 79.63 105.03 82.48 100.77 81.41 100.77"/><path class="cls-1" d="M84.66,103a2.58,2.58,0,1,0,2.62,2.58A2.53,2.53,0,0,0,84.66,103Zm0,4.36a1.78,1.78,0,1,1,1.75-1.78A1.71,1.71,0,0,1,84.66,107.37Z"/><path class="cls-1" d="M92.11,105.91a1.41,1.41,0,1,1-2.81,0v-2.8h-.85V106A2.26,2.26,0,0,0,93,106v-2.88h-.85Z"/><path class="cls-1" d="M95.34,103.77v-.66H94.5v5h.85v-2.75a1.32,1.32,0,0,1,1.29-1.49,1.89,1.89,0,0,1,.85.19l.21-.84a2.35,2.35,0,0,0-.91-.16A1.74,1.74,0,0,0,95.34,103.77Z"/><path class="cls-1" d="M105.69,104.31a1.63,1.63,0,0,0,1-1.6c0-1.4-1.12-1.94-2.66-1.94h-2.82v7.29h3c1.62,0,2.67-.61,2.67-2A1.74,1.74,0,0,0,105.69,104.31Zm-3.52-2.68H104c1,0,1.74.22,1.74,1.15s-.76,1.16-1.73,1.16h-1.88Zm2,5.57h-2v-2.4h2c1.06,0,1.75.26,1.75,1.19S105.24,107.2,104.18,107.2Z"/><path class="cls-1" d="M109.05,103.77v-.66h-.83v5h.84v-2.75a1.32,1.32,0,0,1,1.29-1.49,1.89,1.89,0,0,1,.85.19l.21-.84a2.31,2.31,0,0,0-.91-.16A1.74,1.74,0,0,0,109.05,103.77Z"/><path class="cls-1" d="M116,103.78a2.16,2.16,0,0,0-1.74-.77,2.58,2.58,0,0,0,0,5.16,2.19,2.19,0,0,0,1.74-.77v.66h.86v-5H116Zm-1.64,3.59a1.78,1.78,0,1,1,1.7-1.78A1.69,1.69,0,0,1,114.36,107.37Z"/><path class="cls-1" d="M120.92,103a1.93,1.93,0,0,0-1.62.75v-.65h-.85v5h.85v-2.77a1.4,1.4,0,0,1,1.46-1.47,1.28,1.28,0,0,1,1.36,1.45v2.79H123V105A1.92,1.92,0,0,0,120.92,103Z"/><path class="cls-1" d="M128.36,103.78a2.17,2.17,0,0,0-1.74-.77,2.58,2.58,0,0,0,0,5.16,2.2,2.2,0,0,0,1.74-.77v.66h.86v-7.5h-.86Zm-1.64,3.59a1.78,1.78,0,0,1,0-3.56,1.78,1.78,0,0,1,0,3.56Z"/><path class="cls-1" d="M131.23,100.77a.6.6,0,1,0,.61.61A.6.6,0,0,0,131.23,100.77Z"/><rect class="cls-1" x="130.81" y="103.11" width="0.85" height="4.95"/><path class="cls-1" d="M135.71,103a1.92,1.92,0,0,0-1.61.75v-.65h-.85v5h.85v-2.77a1.4,1.4,0,0,1,1.46-1.47,1.28,1.28,0,0,1,1.36,1.45v2.79h.86V105A1.92,1.92,0,0,0,135.71,103Z"/><path class="cls-1" d="M143.09,103.79a2,2,0,0,0-1.7-.78,2.54,2.54,0,0,0,0,5.08,2.06,2.06,0,0,0,1.7-.77v.43a1.6,1.6,0,0,1-1.77,1.7,2.9,2.9,0,0,1-1.7-.55l-.37.69a3.47,3.47,0,0,0,2.07.64,2.39,2.39,0,0,0,2.63-2.51v-4.61h-.86Zm-1.6,3.49a1.74,1.74,0,1,1,1.68-1.73A1.65,1.65,0,0,1,141.49,107.28Z"/><path class="cls-1" d="M152,103.78a2.17,2.17,0,0,0-1.74-.77,2.58,2.58,0,0,0,0,5.16,2.2,2.2,0,0,0,1.74-.77v.66h.86v-5H152Zm-1.64,3.59a1.78,1.78,0,0,1,0-3.56,1.78,1.78,0,0,1,0,3.56Z"/><path class="cls-1" d="M156.87,103a2,2,0,0,0-1.62.75v-.65h-.84v5h.85v-2.77a1.4,1.4,0,0,1,1.46-1.47,1.28,1.28,0,0,1,1.36,1.45v2.79h.85V105A1.92,1.92,0,0,0,156.87,103Z"/><path class="cls-1" d="M164.32,103.78a2.18,2.18,0,0,0-1.75-.77,2.58,2.58,0,0,0,0,5.16,2.21,2.21,0,0,0,1.75-.77v.66h.85v-7.5h-.85Zm-1.65,3.59a1.7,1.7,0,0,1-1.7-1.78,1.7,1.7,0,1,1,1.7,1.78Z"/><polygon class="cls-1" points="173.32 106.21 170.88 100.77 169.48 100.77 169.48 108.06 170.4 108.06 170.4 101.83 172.84 107.28 173.81 107.28 176.25 101.79 176.25 108.06 177.16 108.06 177.16 100.77 175.76 100.77 173.32 106.21"/><path class="cls-1" d="M182.74,103.78A2.17,2.17,0,0,0,181,103a2.58,2.58,0,0,0,0,5.16,2.2,2.2,0,0,0,1.74-.77v.66h.86v-5h-.86Zm-1.64,3.59a1.78,1.78,0,1,1,1.7-1.78A1.69,1.69,0,0,1,181.1,107.37Z"/><path class="cls-1" d="M186,103.77v-.66h-.84v5H186v-2.75a1.32,1.32,0,0,1,1.29-1.49,1.82,1.82,0,0,1,.84.19l.21-.84a2.26,2.26,0,0,0-.9-.16A1.73,1.73,0,0,0,186,103.77Z"/><polygon class="cls-1" points="193.78 103.11 192.71 103.11 190.87 105.09 190.19 105.09 190.19 100.56 189.35 100.56 189.35 108.06 190.19 108.06 190.19 105.86 190.87 105.86 192.74 108.06 193.81 108.06 191.57 105.45 193.78 103.11"/><path class="cls-1" d="M196.55,103a2.58,2.58,0,0,0,.06,5.16,2.81,2.81,0,0,0,2-.76l-.46-.58a2.28,2.28,0,0,1-1.52.59,1.61,1.61,0,0,1-1.68-1.53h3.88a3,3,0,0,0,0-.32A2.36,2.36,0,0,0,196.55,103ZM195,105.2a1.53,1.53,0,0,1,1.55-1.43A1.47,1.47,0,0,1,198,105.2Z"/><path class="cls-1" d="M202.26,107.37c-.54,0-.93-.32-.93-1.07v-2.41h2.08v-.78h-2.08v-1.55h-.86v1.55h-1.05v.78h1.05v2.43c0,1.26.65,1.85,1.72,1.85a2.52,2.52,0,0,0,1.48-.49l-.4-.64A1.84,1.84,0,0,1,202.26,107.37Z"/><rect class="cls-1" x="204.56" y="103.11" width="0.85" height="4.95"/><path class="cls-1" d="M205,100.77a.6.6,0,1,0,.61.61A.6.6,0,0,0,205,100.77Z"/><path class="cls-1" d="M209.47,103a1.94,1.94,0,0,0-1.62.75v-.65H207v5h.85v-2.77a1.41,1.41,0,0,1,1.47-1.47,1.28,1.28,0,0,1,1.36,1.45v2.79h.85V105A1.92,1.92,0,0,0,209.47,103Z"/><path class="cls-1" d="M216.85,103.79a2.07,2.07,0,0,0-1.71-.78,2.54,2.54,0,0,0,0,5.08,2.09,2.09,0,0,0,1.71-.77v.43a1.61,1.61,0,0,1-1.78,1.7,2.9,2.9,0,0,1-1.7-.55l-.37.69a3.47,3.47,0,0,0,2.07.64,2.39,2.39,0,0,0,2.63-2.51v-4.61h-.85Zm-1.61,3.49a1.74,1.74,0,1,1,1.68-1.73A1.64,1.64,0,0,1,215.24,107.28Z"/><path class="cls-1" d="M224.78,100.77H222v7.29h.91v-2.92h1.86c1.64,0,2.58-.82,2.58-2.18S226.42,100.77,224.78,100.77Zm0,3.51h-1.84v-2.64h1.84c1.07,0,1.64.43,1.64,1.32S225.83,104.28,224.76,104.28Z"/><path class="cls-1" d="M232.25,103.78a2.17,2.17,0,0,0-1.74-.77,2.58,2.58,0,0,0,0,5.16,2.2,2.2,0,0,0,1.74-.77v.66h.85v-5h-.85Zm-1.64,3.59a1.7,1.7,0,0,1-1.71-1.78,1.7,1.7,0,1,1,1.71,1.78Z"/><path class="cls-1" d="M235.54,103.77v-.66h-.84v5h.85v-2.75a1.32,1.32,0,0,1,1.28-1.49,1.86,1.86,0,0,1,.85.19l.21-.84A2.31,2.31,0,0,0,237,103,1.72,1.72,0,0,0,235.54,103.77Z"/><path class="cls-1" d="M241.17,107.37c-.54,0-.93-.32-.93-1.07v-2.41h2.08v-.78h-2.08v-1.55h-.86v1.55h-1v.78h1v2.43c0,1.26.65,1.85,1.72,1.85a2.52,2.52,0,0,0,1.48-.49l-.4-.64A1.87,1.87,0,0,1,241.17,107.37Z"/><path class="cls-1" d="M245.94,103a1.93,1.93,0,0,0-1.62.75v-.65h-.85v5h.85v-2.77a1.4,1.4,0,0,1,1.46-1.47,1.28,1.28,0,0,1,1.36,1.45v2.79H248V105A1.92,1.92,0,0,0,245.94,103Z"/><path class="cls-1" d="M251.62,103a2.58,2.58,0,0,0,0,5.16,2.78,2.78,0,0,0,2-.76l-.45-.58a2.29,2.29,0,0,1-1.52.59,1.61,1.61,0,0,1-1.69-1.53h3.89a3,3,0,0,0,0-.32A2.36,2.36,0,0,0,251.62,103Zm-1.57,2.19a1.54,1.54,0,0,1,1.56-1.43,1.47,1.47,0,0,1,1.47,1.43Z"/><path class="cls-1" d="M257.45,103a1.72,1.72,0,0,0-1.44.76v-.66h-.84v5H256v-2.75a1.32,1.32,0,0,1,1.28-1.49,1.86,1.86,0,0,1,.85.19l.21-.84A2.31,2.31,0,0,0,257.45,103Z"/><path class="cls-1" d="M259,106.74a.73.73,0,0,0-.71.71.71.71,0,1,0,1.42,0A.73.73,0,0,0,259,106.74Z"/><rect class="cls-2" x="73.21" y="98.49" width="198.09" height="13.36"/><path class="cls-1" d="M90.08,56.76a6.94,6.94,0,0,1-5.86,3,7.25,7.25,0,0,1-7.45-7.65,7.25,7.25,0,0,1,7.45-7.64,7,7,0,0,1,5.87,3l2.84-1.89a10,10,0,0,0-8.71-4.4,10.57,10.57,0,0,0-11,10.9A10.58,10.58,0,0,0,84.22,63a10.22,10.22,0,0,0,8.62-4.25Z"/><path class="cls-1" d="M109.87,48.26h-3.16v8c0,2.77-1.55,3.8-3.51,3.8s-3.52-1-3.52-3.8v-8H96.53v8.29c0,4.58,3.29,6.48,6.67,6.48s6.67-1.9,6.67-6.48Z"/><path class="cls-1" d="M120.84,54.06l-1.49-.23c-1.32-.19-2.37-.48-2.37-1.49s1-1.71,2.72-1.71a9.28,9.28,0,0,1,4.44,1.23l1.36-2.45a11,11,0,0,0-5.83-1.51c-3.67,0-6,1.75-6,4.61,0,2.31,1.69,3.78,4.88,4.22l1.5.2c1.71.24,2.5.78,2.5,1.59,0,1.08-1.13,1.76-3.28,1.76a7.23,7.23,0,0,1-4.75-1.48l-1.45,2.36A10.59,10.59,0,0,0,119.29,63c4.15,0,6.55-1.94,6.55-4.7C125.84,55.85,124,54.51,120.84,54.06Z"/><path class="cls-1" d="M140,61.6l-1.25-2.51a5.78,5.78,0,0,1-2.9,1c-1.26,0-2.28-.76-2.28-2.69V51.11h5.51V48.26h-5.51V43.9h-3.16v4.36h-2.87v2.85h2.87v6.33c0,3.83,1.91,5.59,5.17,5.59A7.81,7.81,0,0,0,140,61.6Z"/><path class="cls-1" d="M149.31,63a7.58,7.58,0,1,0-7.73-7.58A7.49,7.49,0,0,0,149.31,63Zm0-12.19a4.62,4.62,0,1,1-4.5,4.61A4.42,4.42,0,0,1,149.31,50.84Z"/><path class="cls-1" d="M174.05,62.65v-8a3.56,3.56,0,0,1,3.72-3.8c2.11,0,3.35,1.35,3.35,3.77v8h3.16v-9a5.55,5.55,0,0,0-5.85-5.73,5.83,5.83,0,0,0-5.25,2.57,5.69,5.69,0,0,0-5-2.57A5.09,5.09,0,0,0,163.79,50V48.26h-3.13V62.65h3.16v-8a3.56,3.56,0,0,1,3.72-3.8c2.11,0,3.35,1.35,3.35,3.77v8Z"/><rect class="cls-1" x="188.67" y="48.26" width="3.15" height="14.39"/><path class="cls-1" d="M190.23,41.06A2.18,2.18,0,0,0,188,43.29a2.15,2.15,0,0,0,2.19,2.19,2.18,2.18,0,0,0,2.23-2.19A2.21,2.21,0,0,0,190.23,41.06Z"/><polygon class="cls-1" points="207.75 50.54 207.75 48.26 195.96 48.26 195.96 51.11 203.71 51.11 195.72 60.37 195.72 62.65 207.9 62.65 207.9 59.8 199.9 59.8 207.75 50.54"/><path class="cls-1" d="M222,50a5.46,5.46,0,0,0-4.52-2.12,7.22,7.22,0,0,0-7.2,7.57,7.23,7.23,0,0,0,7.2,7.58A5.45,5.45,0,0,0,222,60.92v1.73h3.14V48.26H222Zm-4.15,10.07a4.31,4.31,0,0,1-4.34-4.62,4.35,4.35,0,1,1,8.68,0A4.32,4.32,0,0,1,217.82,60.07Z"/><path class="cls-1" d="M236.32,60.07c-1.26,0-2.28-.76-2.28-2.69V51.11h5.51V48.26H234V43.9h-3.16v4.36H228v2.85h2.87v6.33c0,3.83,1.91,5.59,5.17,5.59a7.81,7.81,0,0,0,4.42-1.43l-1.25-2.51A5.78,5.78,0,0,1,236.32,60.07Z"/><path class="cls-1" d="M244.86,41.06a2.18,2.18,0,0,0-2.2,2.23,2.15,2.15,0,0,0,2.2,2.19,2.18,2.18,0,0,0,2.22-2.19A2.2,2.2,0,0,0,244.86,41.06Z"/><rect class="cls-1" x="243.29" y="48.26" width="3.15" height="14.39"/><path class="cls-1" d="M257.78,47.88a7.58,7.58,0,1,0,7.75,7.57A7.47,7.47,0,0,0,257.78,47.88Zm0,12.19a4.62,4.62,0,1,1,4.52-4.62A4.42,4.42,0,0,1,257.78,60.07Z"/><path class="cls-1" d="M276.67,47.88A5.11,5.11,0,0,0,272.25,50V48.26h-3.13V62.65h3.16v-8a3.57,3.57,0,0,1,3.73-3.8c2.1,0,3.35,1.35,3.35,3.77v8h3.15v-9A5.55,5.55,0,0,0,276.67,47.88Z"/><path class="cls-1" d="M84.9,79.32a5.46,5.46,0,0,0-4.51-2.11,7.57,7.57,0,0,0,0,15.12,5.45,5.45,0,0,0,4.51-2.1V92H88V77.58H84.9ZM80.77,89.37a4.61,4.61,0,1,1,4.33-4.6A4.3,4.3,0,0,1,80.77,89.37Z"/><path class="cls-1" d="M100.19,77.21a5.09,5.09,0,0,0-4.41,2.13V77.58H92.66V92h3.15V84a3.57,3.57,0,0,1,3.72-3.8c2.1,0,3.35,1.35,3.35,3.77v8H106v-9A5.54,5.54,0,0,0,100.19,77.21Z"/><path class="cls-1" d="M121.17,79.32a5.48,5.48,0,0,0-4.52-2.11,7.57,7.57,0,0,0,0,15.12,5.47,5.47,0,0,0,4.52-2.1V92h3.13V70.35h-3.13ZM117,89.37a4.61,4.61,0,1,1,4.33-4.6A4.3,4.3,0,0,1,117,89.37Z"/><polygon class="cls-3" points="149.29 71.07 143.68 80.12 138.07 71.07 133.07 71.07 141.57 84 141.57 92.86 145.75 92.86 145.75 84.06 154.19 71.07 149.29 71.07"/><path class="cls-3" d="M160,77.32a8,8,0,1,0,8.14,8A7.86,7.86,0,0,0,160,77.32Zm4.12,8A4.11,4.11,0,1,1,160,81.07,4,4,0,0,1,164.16,85.28Z"/><path class="cls-3" d="M181,86.09c0,2.26-1.05,3.4-3.12,3.4s-3.11-1.14-3.11-3.4V77.7h-3.94v8.68c0,5.06,3.8,6.86,7,6.86s7.06-1.8,7.06-6.86V77.7H181Z"/><path class="cls-3" d="M189.31,87.21a2.49,2.49,0,0,0-2.47,2.46,2.54,2.54,0,0,0,2.47,2.48,2.47,2.47,0,0,0,0-4.94Z"/><path class="cls-3" d="M45.05,94.9a45,45,0,0,1-31-22.44c-6.65-12-7.43-26-2.2-39.49A42,42,0,0,1,36.33,8.85C51,3.39,66.47,5.08,78.77,13.5a2.65,2.65,0,0,0,3.37-.31,2.61,2.61,0,0,0,.76-2.12,2.66,2.66,0,0,0-1.15-2C68.44,0,51.66-2.07,35.71,3.41,23.62,7.57,10.37,20.83,6.17,33c-5.1,14.74-3.79,30,3.7,42.88A50.35,50.35,0,0,0,44,100.12a2.94,2.94,0,0,0,.51,0,2.66,2.66,0,0,0,.51-5.27Z"/><path class="cls-1" d="M96.51,8.19a2.65,2.65,0,0,0-1.86-.77h0a2.65,2.65,0,0,0-1.86.77L55.18,45.81a1.71,1.71,0,0,1-2.41,0L37.23,30.29A2.63,2.63,0,0,0,33.51,34L50.83,51.34a1.72,1.72,0,0,1,.5,1.21v55.73a2.65,2.65,0,0,0,5.29,0V52.55c0-.37.09-.8,1.18-1.89L97.21,11.25a1,1,0,0,0,.22-.76A3.36,3.36,0,0,0,96.51,8.19Z"/></svg>