<svg id="Layer_1" data-name="Layer 1" xmlns="http://www.w3.org/2000/svg" viewBox="0 0 285.62 112.25"><defs><style>.cls-1{fill:#007c91;}.cls-2{fill:#c3f73a;}</style></defs><polygon class="cls-1" points="89.49 97.68 87.17 101.2 84.86 97.68 83.73 97.68 86.7 102.07 86.7 105.21 87.64 105.21 87.64 102.08 90.59 97.68 89.49 97.68"/><path class="cls-1" d="M92.84,100a2.67,2.67,0,1,0,2.71,2.67A2.63,2.63,0,0,0,92.84,100Zm0,4.51a1.84,1.84,0,1,1,1.81-1.84A1.77,1.77,0,0,1,92.84,104.5Z"/><path class="cls-1" d="M100.54,103a1.45,1.45,0,1,1-2.9,0V100.1h-.89v3a2.34,2.34,0,0,0,4.67,0v-3h-.88Z"/><path class="cls-1" d="M103.88,100.77v-.67H103v5.11h.88v-2.84a1.36,1.36,0,0,1,1.33-1.54,2,2,0,0,1,.87.2l.22-.87a2.29,2.29,0,0,0-.94-.17A1.78,1.78,0,0,0,103.88,100.77Z"/><path class="cls-1" d="M114.57,101.33a1.66,1.66,0,0,0,1.07-1.65c0-1.44-1.15-2-2.74-2H110v7.53h3.06c1.68,0,2.76-.63,2.76-2.1A1.81,1.81,0,0,0,114.57,101.33Zm-3.64-2.76h1.93c1,0,1.8.22,1.8,1.18s-.79,1.21-1.79,1.21h-1.94Zm2.08,5.75h-2.08v-2.48H113c1.09,0,1.81.27,1.81,1.23S114.1,104.32,113,104.32Z"/><path class="cls-1" d="M118,100.77v-.67h-.87v5.11h.88v-2.84a1.36,1.36,0,0,1,1.33-1.54,2,2,0,0,1,.88.2l.21-.87a2.26,2.26,0,0,0-.94-.17A1.79,1.79,0,0,0,118,100.77Z"/><path class="cls-1" d="M125.22,100.79a2.26,2.26,0,0,0-1.8-.8,2.67,2.67,0,0,0,0,5.33,2.25,2.25,0,0,0,1.8-.79v.68h.88V100.1h-.88Zm-1.7,3.71a1.84,1.84,0,0,1,0-3.68,1.84,1.84,0,0,1,0,3.68Z"/><path class="cls-1" d="M130.29,100a2,2,0,0,0-1.67.78v-.67h-.87v5.11h.87v-2.87a1.45,1.45,0,0,1,1.52-1.51,1.32,1.32,0,0,1,1.4,1.49v2.89h.88V102A2,2,0,0,0,130.29,100Z"/><path class="cls-1" d="M138,100.79a2.26,2.26,0,0,0-1.8-.8,2.67,2.67,0,0,0,0,5.33,2.25,2.25,0,0,0,1.8-.79v.68h.89V97.47H138Zm-1.7,3.71a1.84,1.84,0,1,1,1.76-1.84A1.76,1.76,0,0,1,136.28,104.5Z"/><path class="cls-1" d="M140.94,97.68a.62.62,0,1,0,.63.63A.62.62,0,0,0,140.94,97.68Z"/><rect class="cls-1" x="140.51" y="100.1" width="0.88" height="5.11"/><path class="cls-1" d="M145.58,100a2,2,0,0,0-1.67.78v-.67H143v5.11h.88v-2.87a1.45,1.45,0,0,1,1.51-1.51,1.33,1.33,0,0,1,1.41,1.49v2.89h.88V102A2,2,0,0,0,145.58,100Z"/><path class="cls-1" d="M153.2,100.8a2.15,2.15,0,0,0-1.76-.81,2.63,2.63,0,0,0,0,5.25,2.14,2.14,0,0,0,1.76-.8v.45a1.66,1.66,0,0,1-1.83,1.76,3,3,0,0,1-1.76-.57l-.39.71a3.59,3.59,0,0,0,2.15.66,2.46,2.46,0,0,0,2.71-2.59V100.1h-.88Zm-1.66,3.61a1.8,1.8,0,1,1,1.73-1.8A1.7,1.7,0,0,1,151.54,104.41Z"/><path class="cls-1" d="M162.36,100.79a2.26,2.26,0,0,0-1.8-.8,2.67,2.67,0,0,0,0,5.33,2.25,2.25,0,0,0,1.8-.79v.68h.88V100.1h-.88Zm-1.7,3.71a1.84,1.84,0,0,1,0-3.68,1.84,1.84,0,0,1,0,3.68Z"/><path class="cls-1" d="M167.43,100a2,2,0,0,0-1.67.78v-.67h-.87v5.11h.87v-2.87a1.45,1.45,0,0,1,1.52-1.51,1.32,1.32,0,0,1,1.4,1.49v2.89h.88V102A2,2,0,0,0,167.43,100Z"/><path class="cls-1" d="M175.12,100.79a2.26,2.26,0,0,0-1.8-.8,2.67,2.67,0,0,0,0,5.33,2.25,2.25,0,0,0,1.8-.79v.68H176V97.47h-.89Zm-1.7,3.71a1.75,1.75,0,0,1-1.75-1.84,1.76,1.76,0,1,1,1.75,1.84Z"/><polygon class="cls-1" points="184.42 103.3 181.9 97.68 180.46 97.68 180.46 105.21 181.4 105.21 181.4 98.77 183.92 104.4 184.92 104.4 187.45 98.73 187.45 105.21 188.39 105.21 188.39 97.68 186.95 97.68 184.42 103.3"/><path class="cls-1" d="M194.15,100.79a2.26,2.26,0,0,0-1.8-.8,2.67,2.67,0,0,0,0,5.33,2.25,2.25,0,0,0,1.8-.79v.68H195V100.1h-.89Zm-1.7,3.71a1.75,1.75,0,0,1-1.75-1.84,1.76,1.76,0,1,1,1.75,1.84Z"/><path class="cls-1" d="M197.55,100.77v-.67h-.87v5.11h.88v-2.84a1.36,1.36,0,0,1,1.33-1.54,2,2,0,0,1,.87.2l.22-.87A2.29,2.29,0,0,0,199,100,1.79,1.79,0,0,0,197.55,100.77Z"/><polygon class="cls-1" points="205.56 100.1 204.45 100.1 202.55 102.14 201.85 102.14 201.85 97.47 200.97 97.47 200.97 105.21 201.85 105.21 201.85 102.94 202.54 102.94 204.47 105.21 205.59 105.21 203.28 102.51 205.56 100.1"/><path class="cls-1" d="M208.42,100a2.67,2.67,0,0,0,.05,5.33,2.86,2.86,0,0,0,2.1-.78l-.47-.6a2.37,2.37,0,0,1-1.57.61,1.66,1.66,0,0,1-1.74-1.58h4c0-.1,0-.22,0-.33A2.44,2.44,0,0,0,208.42,100Zm-1.62,2.27a1.59,1.59,0,0,1,1.6-1.49,1.52,1.52,0,0,1,1.52,1.49Z"/><path class="cls-1" d="M214.31,104.5c-.55,0-1-.34-1-1.11V100.9h2.15v-.8h-2.15V98.5h-.88v1.6h-1.09v.8h1.09v2.51c0,1.3.66,1.91,1.77,1.91a2.53,2.53,0,0,0,1.53-.51l-.41-.66A1.91,1.91,0,0,1,214.31,104.5Z"/><rect class="cls-1" x="216.69" y="100.1" width="0.88" height="5.11"/><path class="cls-1" d="M217.12,97.68a.62.62,0,1,0,.63.63A.62.62,0,0,0,217.12,97.68Z"/><path class="cls-1" d="M221.76,100a2,2,0,0,0-1.67.78v-.67h-.88v5.11h.88v-2.87a1.45,1.45,0,0,1,1.51-1.51,1.33,1.33,0,0,1,1.41,1.49v2.89h.88V102A2,2,0,0,0,221.76,100Z"/><path class="cls-1" d="M229.38,100.8a2.15,2.15,0,0,0-1.76-.81,2.63,2.63,0,0,0,0,5.25,2.14,2.14,0,0,0,1.76-.8v.45a1.66,1.66,0,0,1-1.83,1.76,3,3,0,0,1-1.76-.57l-.38.71a3.54,3.54,0,0,0,2.14.66,2.46,2.46,0,0,0,2.71-2.59V100.1h-.88Zm-1.66,3.61a1.8,1.8,0,1,1,1.74-1.8A1.71,1.71,0,0,1,227.72,104.41Z"/><path class="cls-1" d="M237.57,97.68h-2.86v7.53h.95v-3h1.91c1.7,0,2.66-.85,2.66-2.26S239.27,97.68,237.57,97.68Zm0,3.63h-1.89V98.57h1.89c1.11,0,1.7.46,1.7,1.37S238.66,101.31,237.55,101.31Z"/><path class="cls-1" d="M245.29,100.79a2.26,2.26,0,0,0-1.8-.8,2.67,2.67,0,0,0,0,5.33,2.25,2.25,0,0,0,1.8-.79v.68h.88V100.1h-.88Zm-1.7,3.71a1.84,1.84,0,0,1,0-3.68,1.84,1.84,0,0,1,0,3.68Z"/><path class="cls-1" d="M248.69,100.77v-.67h-.87v5.11h.88v-2.84a1.36,1.36,0,0,1,1.33-1.54,2,2,0,0,1,.87.2l.22-.87a2.29,2.29,0,0,0-.94-.17A1.78,1.78,0,0,0,248.69,100.77Z"/><path class="cls-1" d="M254.5,104.5c-.55,0-1-.34-1-1.11V100.9h2.15v-.8h-2.15V98.5h-.88v1.6h-1.09v.8h1.09v2.51c0,1.3.66,1.91,1.77,1.91a2.53,2.53,0,0,0,1.53-.51l-.41-.66A1.91,1.91,0,0,1,254.5,104.5Z"/><path class="cls-1" d="M259.43,100a2,2,0,0,0-1.68.78v-.67h-.87v5.11h.88v-2.87a1.45,1.45,0,0,1,1.51-1.51,1.32,1.32,0,0,1,1.4,1.49v2.89h.89V102A2,2,0,0,0,259.43,100Z"/><path class="cls-1" d="M265.3,100a2.67,2.67,0,0,0,.05,5.33,2.86,2.86,0,0,0,2.1-.78l-.47-.6a2.37,2.37,0,0,1-1.57.61,1.66,1.66,0,0,1-1.74-1.58h4c0-.1,0-.22,0-.33A2.44,2.44,0,0,0,265.3,100Zm-1.62,2.27a1.6,1.6,0,0,1,1.6-1.49,1.53,1.53,0,0,1,1.53,1.49Z"/><path class="cls-1" d="M271.32,100a1.79,1.79,0,0,0-1.49.78v-.67H269v5.11h.88v-2.84a1.36,1.36,0,0,1,1.33-1.54,2,2,0,0,1,.87.2l.22-.87A2.26,2.26,0,0,0,271.32,100Z"/><path class="cls-1" d="M272.87,103.85a.75.75,0,0,0-.74.73.77.77,0,0,0,.74.74.76.76,0,0,0,.73-.74A.74.74,0,0,0,272.87,103.85Z"/><path class="cls-1" d="M92.45,78.22A5.34,5.34,0,0,0,88,76.15a7.4,7.4,0,0,0,0,14.78,5.32,5.32,0,0,0,4.42-2.05v1.69h3.06v-14H92.45ZM88.4,88a4.51,4.51,0,1,1,4.24-4.5A4.2,4.2,0,0,1,88.4,88Z"/><path class="cls-1" d="M107.4,76.15a5,5,0,0,0-4.32,2.08V76.52h-3v14h3.08V82.78a3.48,3.48,0,0,1,3.64-3.71c2,0,3.27,1.32,3.27,3.68v7.82h3.08V81.74A5.41,5.41,0,0,0,107.4,76.15Z"/><path class="cls-1" d="M127.9,78.22a5.33,5.33,0,0,0-4.41-2.07,7.4,7.4,0,0,0,0,14.78,5.32,5.32,0,0,0,4.41-2.05v1.69H131V69.45H127.9ZM123.85,88a4.51,4.51,0,1,1,4.24-4.5A4.2,4.2,0,0,1,123.85,88Z"/><path class="cls-1" d="M97.5,57.93a6.75,6.75,0,0,1-5.72,3,7.1,7.1,0,0,1-7.29-7.48,7.1,7.1,0,0,1,7.29-7.47,6.8,6.8,0,0,1,5.74,3L100.29,47a9.77,9.77,0,0,0-8.51-4.3A10.34,10.34,0,0,0,81,53.4,10.35,10.35,0,0,0,91.78,64.07a10,10,0,0,0,8.43-4.16Z"/><path class="cls-1" d="M116.85,49.61h-3.08v7.83c0,2.72-1.52,3.72-3.44,3.72s-3.44-1-3.44-3.72V49.61h-3.08v8.11c0,4.48,3.22,6.33,6.52,6.33s6.52-1.85,6.52-6.33Z"/><path class="cls-1" d="M127.58,55.28l-1.46-.22c-1.29-.19-2.32-.47-2.32-1.45s1-1.67,2.66-1.67a9.06,9.06,0,0,1,4.35,1.2l1.32-2.39a10.69,10.69,0,0,0-5.7-1.49c-3.58,0-5.82,1.72-5.82,4.51,0,2.26,1.66,3.7,4.78,4.13l1.47.19c1.67.23,2.43.76,2.43,1.56,0,1.05-1.1,1.71-3.2,1.71a7.13,7.13,0,0,1-4.64-1.43L120,62.23a10.32,10.32,0,0,0,6,1.81c4.06,0,6.41-1.9,6.41-4.6C132.47,57,130.65,55.72,127.58,55.28Z"/><path class="cls-1" d="M146.28,62.66l-1.22-2.46a5.64,5.64,0,0,1-2.84,1c-1.23,0-2.23-.74-2.23-2.63V52.41h5.39v-2.8H140V45.36h-3.08v4.25H134.1v2.8h2.81v6.18c0,3.74,1.86,5.46,5.05,5.46A7.66,7.66,0,0,0,146.28,62.66Z"/><path class="cls-1" d="M155.41,64.05a7.4,7.4,0,1,0-7.56-7.4A7.31,7.31,0,0,0,155.41,64.05Zm0-11.91a4.51,4.51,0,1,1-4.4,4.51A4.32,4.32,0,0,1,155.41,52.14Z"/><path class="cls-1" d="M179.59,63.68V55.89a3.49,3.49,0,0,1,3.65-3.72c2,0,3.27,1.32,3.27,3.69v7.82h3.08V54.84a5.41,5.41,0,0,0-5.71-5.59,5.72,5.72,0,0,0-5.14,2.51,5.54,5.54,0,0,0-4.86-2.51,5,5,0,0,0-4.32,2.08V49.61h-3.05V63.68h3.08V55.89a3.49,3.49,0,0,1,3.64-3.72c2.06,0,3.28,1.32,3.28,3.69v7.82Z"/><rect class="cls-1" x="193.89" y="49.61" width="3.08" height="14.07"/><path class="cls-1" d="M195.42,42.58a2.16,2.16,0,1,0,2.17,2.17A2.13,2.13,0,0,0,195.42,42.58Z"/><polygon class="cls-1" points="212.54 51.85 212.54 49.61 201.01 49.61 201.01 52.41 208.59 52.41 200.78 61.45 200.78 63.69 212.69 63.69 212.69 60.89 204.86 60.89 212.54 51.85"/><path class="cls-1" d="M226.44,51.32A5.34,5.34,0,0,0,222,49.25a7.06,7.06,0,0,0-7,7.4,7.06,7.06,0,0,0,7,7.4,5.35,5.35,0,0,0,4.42-2v1.68h3.07V49.61h-3.07Zm-4.05,9.84a4.21,4.21,0,0,1-4.25-4.51,4.25,4.25,0,1,1,8.49,0A4.21,4.21,0,0,1,222.39,61.16Z"/><path class="cls-1" d="M240.47,61.16c-1.23,0-2.23-.74-2.23-2.63V52.41h5.39v-2.8h-5.39V45.36h-3.09v4.25h-2.8v2.8h2.8v6.18c0,3.74,1.87,5.46,5.06,5.46a7.6,7.6,0,0,0,4.31-1.39l-1.21-2.46A5.64,5.64,0,0,1,240.47,61.16Z"/><path class="cls-1" d="M248.81,42.58A2.16,2.16,0,1,0,251,44.75,2.15,2.15,0,0,0,248.81,42.58Z"/><rect class="cls-1" x="247.29" y="49.61" width="3.08" height="14.07"/><path class="cls-1" d="M261.45,49.25a7.4,7.4,0,1,0,7.58,7.4A7.3,7.3,0,0,0,261.45,49.25Zm0,11.91a4.51,4.51,0,1,1,4.42-4.51A4.31,4.31,0,0,1,261.45,61.16Z"/><path class="cls-1" d="M279.91,49.25a5,5,0,0,0-4.32,2.08V49.61h-3V63.68h3.08V55.89a3.49,3.49,0,0,1,3.65-3.72c2.05,0,3.27,1.32,3.27,3.69v7.82h3.08V54.84A5.41,5.41,0,0,0,279.91,49.25Z"/><polygon class="cls-2" points="155.39 70.15 149.9 79 144.43 70.15 139.53 70.15 147.84 82.79 147.84 91.45 151.93 91.45 151.93 82.85 160.18 70.15 155.39 70.15"/><path class="cls-2" d="M165.9,76.26a7.78,7.78,0,1,0,8,7.78A7.7,7.7,0,0,0,165.9,76.26Zm4,7.78a4,4,0,1,1-4-4.11A3.94,3.94,0,0,1,169.93,84Z"/><path class="cls-2" d="M186.39,84.83c0,2.21-1,3.33-3,3.33s-3-1.12-3-3.33v-8.2h-3.86v8.48c0,5,3.72,6.71,6.9,6.71s6.9-1.76,6.9-6.71V76.63h-3.85Z"/><path class="cls-1" d="M42.59,96A45.6,45.6,0,0,1,11.11,73.19C4.35,61,3.56,46.77,8.87,33.09A42.63,42.63,0,0,1,33.74,8.58C48.64,3,64.35,4.76,76.84,13.31A2.7,2.7,0,0,0,80.27,13,2.65,2.65,0,0,0,81,10.84a2.71,2.71,0,0,0-1.17-2C66.35-.4,49.31-2.51,33.11,3.06c-12.28,4.23-25.74,17.7-30,30-5.18,15-3.85,30.43,3.75,43.55a51.11,51.11,0,0,0,34.7,24.66,3,3,0,0,0,.52,0A2.7,2.7,0,0,0,42.59,96Z"/><path class="cls-2" d="M94.86,7.92A2.62,2.62,0,0,0,93,7.13h0a2.65,2.65,0,0,0-1.89.78L52.89,46.12a1.74,1.74,0,0,1-2.45,0L34.65,30.35a2.67,2.67,0,0,0-3.77,3.78C34.93,38.19,45.72,49,48.47,51.74A1.75,1.75,0,0,1,49,53v56.61a2.69,2.69,0,0,0,5.37,0V53c0-.38.09-.81,1.2-1.92l40-40a1,1,0,0,0,.22-.77A3.4,3.4,0,0,0,94.86,7.92Z"/><path class="cls-2" d="M281.38,109.44H80.69V95H281.38Zm-200-.64H280.74V95.65H81.33Z"/></svg>