<?xml version="1.0" encoding="UTF-8"?>
<svg id="Layer_1" data-name="Layer 1" xmlns="http://www.w3.org/2000/svg" viewBox="0 0 351.3 284.1">
  <defs>
    <style>
      .cls-1 {
        fill: #1d71d2;
      }

      .cls-2 {
        fill: #5c5b5b;
      }

      .cls-3 {
        fill: #ff9800;
      }
    </style>
  </defs>
  <g>
    <g>
      <path class="cls-2" d="M123.16,41.42s34.81,9.87,49.77,44.39c.1,.2,0,86.58,0,86.58,0,0-8.88-39.7-58.35-43.49,0,.1,8.58-87.48,8.58-87.48Z"/>
      <g>
        <path class="cls-2" d="M99.42,68.6l12.57-6.43s-9.58,66.13-10.02,75.71c.3,0,53.19-2.02,67.89,39.11,0,0-25.1-40.45-80.91-26.24l10.47-82.14Z"/>
        <path class="cls-2" d="M83.96,85.51h6.88l-10.47,74.21s52.34-13.54,86.31,21.92c.3,0-48.14-28.05-96.28-3.67l13.57-92.46Z"/>
      </g>
      <g>
        <path class="cls-2" d="M254.16,68.6l-12.57-6.43s9.58,66.13,10.02,75.71c-.3,0-53.19-2.02-67.89,39.11,0,0,25.1-40.45,80.91-26.24l-10.47-82.14Z"/>
        <path class="cls-2" d="M269.62,85.51h-6.88s10.47,74.21,10.47,74.21c0,0-52.34-13.54-86.31,21.92-.3,0,48.14-28.05,96.28-3.67l-13.57-92.46Z"/>
      </g>
    </g>
    <path class="cls-3" d="M179.76,79.52s8.43-17.06,17.9-26.13c9.48-9.08,13.96-11.27,13.96-11.27,0,0,8.48,6.68,12.97,15.06,4.49,8.38,4.39,18.15,4.39,18.15,0,0,14.01,10.51,15.26,13.77,.5,1.3-5.29,7.63-5.29,7.63l3.97,4.18c.41,.43,.43,1.11,.05,1.56l-2.92,3.49s2.39,1.3,2.49,3.39-1.8,2.39-1.9,4.39c-.1,1.99,.16,3.91,1.7,5.84,1.82,2.29,.6,10.32-8.58,9.62-9.18-.7-18.55-1.3-26.43,6.08s-24.24,23.24-27.58,39.5c.05,.1,0-95.26,0-95.26Z"/>
  </g>
  <g>
    <path class="cls-1" d="M78.79,203.49c3.01-.56,6.6-2.72,6.6-6.29,0-2.12-1.1-3.75-2.82-4.79-1.84-1.08-4.06-1.5-7.58-1.5h-14.04v1.59c3.28,.21,3.87,.6,3.87,4.22v16.42c0,3.62-.36,3.83-3.92,4.17v1.6h12.94c3.42,0,6.43-.61,8.78-1.82,2.63-1.38,4.43-3.88,4.43-6.55,0-4.1-3.42-6.25-8.27-7.06Zm-7.68-8.74c0-.9-.04-1.29,.46-1.59,.38-.23,1.06-.35,2.18-.35,2.53,0,5.17,1.43,5.17,5.17,0,3.18-1.62,4.95-6.01,4.95h-1.8v-8.18Zm4.02,22.32c-2.49,.04-4.02-.91-4.02-4.01v-8.28h1.62c5.19,0,7.44,1.99,7.44,6.16s-2.49,6.08-5.04,6.13Z"/>
    <path class="cls-1" d="M113.18,211.21c-.74,1.47-1.67,3.06-2.82,4.31-1.03,1.16-1.72,1.47-4.3,1.47h-3.28c-2.87-.05-2.97-.95-2.97-3.92v-7.42h4.48c2.68,0,3.06,.51,3.8,3.71h1.8v-9.61h-1.8c-.69,3.06-1.15,3.71-3.75,3.71h-4.53v-9.01c0-1.47,.19-1.55,1.94-1.55h3.01c2.35,0,2.96,.26,3.8,1.11,.78,.78,1.57,2.54,1.98,4.01l1.8-.21c-.18-2.67-.41-6.2-.46-6.98-.64,.04-2.25,.09-7.11,.09h-15.02v1.59c3.14,.26,3.7,.51,3.7,4.18v16.46c0,3.62-.28,3.83-4.48,4.22v1.55h23.99c.41-1.22,1.72-6.16,1.94-7.33l-1.7-.39Z"/>
    <path class="cls-1" d="M139.73,210.93l-.4-.11c-.83,1.77-2.03,3.62-2.92,4.48-1.1,1.15-1.79,1.68-4.43,1.68-.18,0-2.3,0-2.41-.05-2.53-.04-2.63-1.11-2.63-3.48v-16.72c0-2.87,.29-3.66,2.22-4.01,.49-.09,1.1-.15,1.85-.21v-1.59h-14.42v1.59c3.46,.26,3.92,.6,3.92,4.22v16.42c0,3.62-.36,3.92-4.43,4.17v1.6h22.92c.33-.93,1.23-4.05,1.77-6.2,.14-.54,.24-1.01,.31-1.39l-1.35-.4Z"/>
    <path class="cls-1" d="M156.52,192.5v-1.59h-14.28v1.59c3.47,.26,3.93,.6,3.93,4.22v16.42c0,3.19-.33,3.76-2.81,4.06-.34,.04-.71,.08-1.13,.11v1.6h14.28v-1.6c-3.51-.34-3.92-.6-3.92-4.17v-16.42c0-3.62,.46-3.92,3.92-4.22Z"/>
    <path class="cls-1" d="M183.1,211.21c-.74,1.47-1.67,3.06-2.82,4.31-1.01,1.16-1.72,1.47-4.3,1.47h-3.28c-2.87-.05-2.96-.95-2.96-3.92v-7.42h4.47c2.68,0,3.06,.51,3.8,3.71h1.8v-9.61h-1.8c-.69,3.06-1.15,3.71-3.75,3.71h-4.52v-9.01c0-1.47,.18-1.55,1.94-1.55h2.99c2.35,0,2.96,.26,3.8,1.11,.79,.78,1.57,2.54,1.99,4.01l1.79-.21c-.18-2.67-.41-6.2-.46-6.98-.64,.04-2.25,.09-7.12,.09h-15.02v1.59c3.14,.26,3.7,.51,3.7,4.18v16.46c0,3.62-.28,3.83-4.47,4.22v1.55h23.98c.43-1.22,1.72-6.16,1.94-7.33l-1.7-.39Z"/>
    <path class="cls-1" d="M205.61,190.91v1.59c3.87,.39,4.2,1.04,3.04,4.01-1.06,2.79-3.56,8.66-6.33,14.82-1.58-3.8-5.05-12.66-6.48-16.28-.74-1.82-.74-2.12,2.63-2.54l.05-1.59h-14.09v1.59c3.01,.26,3.61,.95,5.04,4.18,1.94,4.56,7.94,19.34,9.24,22.7h2.54c3.42-8.09,8.18-18.78,9.61-22.1,1.75-4.1,2.68-4.48,5.74-4.79v-1.59h-11Z"/>
    <path class="cls-1" d="M241.18,211.21c-.74,1.47-1.65,3.06-2.82,4.31-1.01,1.16-1.7,1.47-4.3,1.47h-3.28c-2.86-.05-2.96-.95-2.96-3.92v-7.42h4.48c2.68,0,3.06,.51,3.8,3.71h1.79v-9.61h-1.79c-.7,3.06-1.16,3.71-3.75,3.71h-4.53v-9.01c0-1.47,.19-1.55,1.94-1.55h3.01c2.35,0,2.96,.26,3.78,1.11,.79,.78,1.58,2.54,1.99,4.01l1.8-.21c-.19-2.67-.41-6.2-.46-6.98-.65,.04-2.27,.09-7.11,.09h-15.02v1.59c3.14,.26,3.7,.51,3.7,4.18v16.46c0,3.62-.28,3.83-4.48,4.22v1.55h23.99c.41-1.22,1.7-6.16,1.94-7.33l-1.72-.39Z"/>
    <path class="cls-1" d="M271.08,215.82c-.88-.95-1.89-2.12-3.51-4.48-1.39-1.98-3.19-4.79-3.88-6.08,3.06-1.11,5.77-3.14,5.77-6.98,0-2.67-1.24-4.57-3.09-5.74-1.89-1.2-4.25-1.63-8.37-1.63h-13.4v1.59c3.47,.26,3.93,.73,3.93,4.13v16.51c0,3.48-.41,3.83-3.93,4.17v1.6h14.14v-1.6c-3.46-.39-3.92-.69-3.92-4.17v-6.3l.93,.05c1.48,0,2.12,.25,2.82,1.42,1.57,2.59,2.91,5.22,4.76,7.59,1.38,1.8,3.09,2.97,8.96,3.23,.56,.04,1.11,.04,1.39,.04l.33-1.47c-1.34-.43-1.85-.78-2.92-1.89Zm-10.48-11.85c-1.01,.81-2.54,1.11-4.53,1.11h-1.24v-10.3c0-.86,.09-1.38,.41-1.63,.28-.26,.88-.44,2.13-.44,2.58,0,5.4,1.64,5.4,6.21,0,2.19-.64,3.83-2.17,5.04Z"/>
    <path class="cls-1" d="M287.41,201.99c-4.07-1.9-5.77-3.32-5.77-5.69s1.75-4.18,4.43-4.18c4.25,0,5.55,3.14,6.46,5.9l1.77-.39c-.38-2.71-.7-4.95-.89-6.55-1.01-.13-3.42-.76-6.6-.76-6.94,0-10.72,3.57-10.72,8.09s3.14,6.64,7.94,9.06c3.88,1.93,5.55,3.39,5.55,5.9,0,2.76-1.7,4.4-4.52,4.4-4.53,0-7.13-4.7-8.04-7.42l-1.8,.39c.33,2.03,1.1,6.5,1.38,7.49,2.18,.61,4.81,1.34,7.77,1.34,6.61,0,11.14-3.71,11.14-8.79,0-4.26-3.13-6.5-8.08-8.78Z"/>
  </g>
  <g>
    <path class="cls-3" d="M125.27,241.63c-.53-.84-1.09-2.33-1.68-4.46-.59-2.14-.98-3.73-1.18-4.77-.2-1.04-.36-1.89-.49-2.57-.63,0-1.25,.14-1.84,.41-.21,.1-.31,.18-.31,.2,0,.06,.01,.19,.04,.38,.04,.19,.06,.35,.09,.51l.04,.23c-.11,0-.36,.04-.75,.11s-.61,.13-.65,.16c-.14,.14-.71,1.57-1.7,4.27-1.01,.04-1.53,.06-1.53,.08,0,.26,.11,.59,.31,.98,.21,.39,.39,.65,.55,.78-.86,2.19-1.3,3.52-1.3,3.97,0,.08,.34,.15,1.01,.24,.31,.04,.63,.05,.91,.05s.45,0,.45-.01c.09-.88,.45-2.3,1.1-4.28,.15-.04,.65-.06,1.54-.06s1.4,0,1.57,.01c.15,.66,.44,1.64,.85,2.93,.43,1.29,.69,1.93,.8,1.93,.31,0,.66-.06,1.04-.19,.38-.13,.68-.25,.91-.39,.23-.14,.35-.24,.35-.29l-.14-.21Zm-6.3-5.57c.08-.28,.28-.79,.58-1.53,.29-.74,.5-1.2,.6-1.4,.04-.05,.08-.06,.1-.06s.05,.09,.09,.29c.04,.19,.26,1.1,.68,2.74-.01-.03-.69-.04-2.04-.04Z"/>
    <path class="cls-3" d="M137.72,236.45c-.36-.46-.81-.81-1.35-1.05-.53-.24-1.05-.45-1.58-.64s-.98-.39-1.34-.61c-.38-.23-.56-.48-.56-.76s.13-.54,.36-.74c.25-.21,.56-.36,.94-.45,.39-.1,.76-.18,1.13-.23,.35-.04,.66-.06,.91-.06s.46,.01,.66,.04c.14-.14,.24-.4,.33-.78,.09-.36,.13-.63,.13-.75,0-.14,0-.21-.01-.25-.06-.05-.33-.09-.8-.09-2.03,0-3.57,.35-4.65,1.04-1.06,.69-1.59,1.44-1.59,2.27,0,.56,.19,1.05,.56,1.45,.38,.41,.84,.74,1.37,.96,.54,.24,1.08,.45,1.63,.66,.54,.21,1,.46,1.38,.74,.38,.29,.56,.63,.56,.99,0,.56-.29,1.05-.86,1.45-.58,.41-1.27,.61-2.04,.61-.34,0-.58-.05-.7-.16-.3-.29-.45-1.1-.45-2.44-.36,0-.74,.08-1.14,.23-.39,.14-.6,.26-.64,.38-.05,.23-.08,.89-.08,2.02s.06,1.73,.18,1.83c.44,.09,1.1,.14,2,.14,1.79,0,3.28-.4,4.46-1.2s1.77-1.78,1.77-2.92c0-.65-.19-1.2-.56-1.67Z"/>
    <path class="cls-3" d="M145.92,239.83c-.54,.31-1.27,.46-2.19,.46-.29,0-.59-.04-.89-.13s-.45-.2-.45-.34c1.15-.36,2.05-.89,2.72-1.58,.66-.7,1-1.4,1-2.12s-.24-1.2-.73-1.49c-.48-.28-1-.43-1.58-.43-1.4,0-2.49,.41-3.27,1.24-.78,.83-1.17,1.79-1.17,2.92s.33,2.02,.98,2.68c.64,.68,1.57,1.01,2.78,1.01s2.02-.14,2.43-.4c.3-.36,.46-.88,.46-1.53,0-.23-.01-.33-.04-.33s-.05,0-.06,.01Zm-4.41-1.64c0-.66,.19-1.24,.58-1.72,.38-.48,.81-.71,1.32-.71,.38,0,.56,.16,.56,.49,0,.53-.29,1.01-.86,1.48-.56,.46-1.08,.7-1.52,.71-.05,0-.08-.09-.08-.25Z"/>
    <path class="cls-3" d="M152.84,239.98s-.04,.01-.09,.04c-.44,.2-.94,.31-1.52,.31-.74,0-1.27-.18-1.59-.51-.33-.33-.5-.75-.5-1.27s.1-.95,.28-1.32c.19-.36,.4-.63,.64-.8,.59-.4,1.35-.61,2.29-.61h.13c.15-.1,.23-.4,.23-.89s-.04-.75-.11-.81c-.05-.01-.21-.01-.49-.01-1.45,0-2.68,.41-3.7,1.24-1,.83-1.5,1.94-1.5,3.34,0,1,.34,1.83,1,2.49,.68,.65,1.7,.99,3.09,.99,.79,0,1.39-.11,1.79-.33,.14-.1,.2-.41,.2-.94s-.05-.83-.15-.93Z"/>
    <path class="cls-3" d="M159.22,234.27c-.6,0-1.15,.16-1.68,.48-.21,.11-.4,.25-.58,.41-.18,.16-.3,.28-.35,.34-.05,.06-.1,.1-.13,.14-.01,.03-.04,.04-.06,.04s-.04-.2-.04-.59,.01-.74,.05-1.05c0-.05-.14-.09-.43-.09s-.6,.05-.93,.15c-.33,.1-.56,.21-.69,.34-.05,.04-.08,.4-.08,1.06v.61l.04,3.26c0,1.35-.05,2.25-.14,2.71,0,.03,.05,.05,.15,.05,1,0,1.67-.16,2.02-.46,.04-.04,.05-.68,.05-1.9v-1.69c0-.14,.1-.35,.29-.61,.5-.68,1.19-1.01,2.07-1.01l.25,.04,.06-.14c.18-.28,.26-.74,.26-1.38,0-.31-.05-.54-.15-.69Z"/>
    <path class="cls-3" d="M166.46,239.83c-.53,.31-1.27,.46-2.19,.46-.29,0-.59-.04-.89-.13s-.44-.2-.44-.34c1.14-.36,2.04-.89,2.71-1.58,.68-.7,1-1.4,1-2.12s-.24-1.2-.73-1.49c-.48-.28-1-.43-1.58-.43-1.4,0-2.49,.41-3.27,1.24-.78,.83-1.15,1.79-1.15,2.92s.31,2.02,.96,2.68c.65,.68,1.58,1.01,2.78,1.01s2.02-.14,2.43-.4c.31-.36,.46-.88,.46-1.53,0-.23-.01-.33-.04-.33s-.05,0-.06,.01Zm-4.41-1.64c0-.66,.2-1.24,.58-1.72,.38-.48,.81-.71,1.32-.71,.38,0,.56,.16,.56,.49,0,.53-.29,1.01-.85,1.48-.58,.46-1.09,.7-1.53,.71-.05,0-.08-.09-.08-.25Z"/>
    <path class="cls-3" d="M170.07,232.65c.04-1.18,.06-1.89,.09-2.15,0-.04-.15-.06-.46-.06s-.69,.08-1.11,.23c-.41,.14-.63,.28-.63,.39,0,.04,.01,.15,.05,.34,.04,.2,.05,.63,.05,1.28-.38,.01-.69,.03-.96,.04-.11,.09-.16,.35-.16,.79s.03,.69,.09,.75l1.03-.03c-.04,1.37-.05,2.82-.05,4.35s.01,2.43,.04,2.68c.04,.25,.11,.51,.23,.76,.11,.26,.23,.45,.33,.56,.1,.11,.18,.18,.21,.18,.41,0,.85-.13,1.33-.36,.46-.24,.7-.41,.7-.54-.43-.38-.68-.86-.75-1.45-.04-.35-.05-1.05-.05-2.1s.01-2.42,.04-4.11h.85c.11,0,.23-.15,.35-.45s.19-.64,.19-1.03c0-.04-.46-.05-1.38-.05Z"/>
    <path class="cls-3" d="M182.94,236.89c-.14-.36-.29-.65-.48-.85-.19-.21-.41-.41-.7-.61-.29-.2-.53-.3-.71-.3,.04-.2,.06-.39,.06-.56,0-.16-.03-.28-.08-.31-.05-.05-.36-.09-.95-.11-1.44,0-2.58,.44-3.43,1.29-.84,.86-1.27,1.84-1.27,2.96s.34,2,1.01,2.71c.69,.69,1.63,1.04,2.83,1.04s2.15-.4,2.86-1.19,1.05-1.73,1.05-2.81c0-.45-.06-.86-.2-1.24Zm-2.44,2.98c-.36,.35-.74,.53-1.15,.53s-.73-.06-.96-.2c-.6-.34-.91-.95-.91-1.84,0-.75,.21-1.34,.65-1.77,.44-.41,.9-.63,1.4-.63-.04,.14-.06,.28-.06,.43s.01,.25,.04,.29h.15c.26,0,.54,.09,.83,.26,.38,.21,.56,.66,.56,1.37s-.18,1.22-.54,1.57Z"/>
    <path class="cls-3" d="M187.6,230.99c.31-.19,.6-.34,.88-.46,.29-.11,.44-.18,.48-.18,.01-.04,.03-.13,.03-.26s-.06-.34-.18-.6c-.11-.25-.21-.38-.29-.38-.58,0-1.34,.21-2.27,.63-.93,.43-1.38,.73-1.35,.9l.04,2.07c-.25,.01-.49,.03-.71,.04-.11,.1-.16,.38-.16,.81s.03,.69,.09,.75l.81-.04c0,.4,.01,1.03,.01,1.88,0,3.39-.09,5.74-.28,6.99l.51,.09c.76,0,1.38-.16,1.85-.48,.01-.11,.03-.39,.03-.84l-.09-6.81v-.85c.29,0,.61,0,1,.03,.06,0,.14-.06,.23-.2,.23-.35,.35-.8,.35-1.33,0-.04-.5-.05-1.49-.05h-.06c.03-.51,.05-.91,.1-1.22,.01-.14,.18-.3,.48-.49Z"/>
    <path class="cls-3" d="M201.23,236.45c-.38-.46-.83-.81-1.35-1.05-.54-.24-1.06-.45-1.59-.64s-.96-.39-1.34-.61-.56-.48-.56-.76,.13-.54,.38-.74c.24-.21,.55-.36,.94-.45,.38-.1,.75-.18,1.11-.23,.36-.04,.66-.06,.91-.06s.48,.01,.66,.04c.14-.14,.25-.4,.33-.78,.09-.36,.14-.63,.14-.75,0-.14-.01-.21-.03-.25-.06-.05-.33-.09-.8-.09-2.03,0-3.57,.35-4.63,1.04-1.06,.69-1.6,1.44-1.6,2.27,0,.56,.19,1.05,.56,1.45,.38,.41,.84,.74,1.38,.96,.54,.24,1.08,.45,1.62,.66,.54,.21,1,.46,1.38,.74,.38,.29,.58,.63,.58,.99,0,.56-.3,1.05-.88,1.45-.58,.41-1.25,.61-2.04,.61-.34,0-.56-.05-.69-.16-.31-.29-.46-1.1-.46-2.44-.36,0-.74,.08-1.13,.23-.39,.14-.6,.26-.64,.38-.05,.23-.08,.89-.08,2.02s.05,1.73,.16,1.83c.44,.09,1.11,.14,2.02,.14,1.79,0,3.27-.4,4.45-1.2,1.18-.8,1.77-1.78,1.77-2.92,0-.65-.19-1.2-.55-1.67Z"/>
    <path class="cls-3" d="M209.83,240.24c-.05-.24-.08-.8-.08-1.69s.04-2.14,.11-3.77l.04-.8c-.05-.04-.24-.06-.55-.06s-.64,.05-.96,.16c-.33,.11-.51,.23-.58,.33-.08,.16-.11,1.28-.11,3.36v.59c.01,.15-.13,.4-.43,.75-.3,.36-.64,.54-1.03,.54s-.66-.16-.85-.49c-.06-.11-.1-.25-.14-.41-.03-.16-.04-.28-.05-.34,0-.06-.01-.2-.03-.43-.01-.21-.03-.56-.03-1.03s.04-1.13,.1-1.99c.01-.3,.01-.45,.01-.46-.06-.06-.23-.09-.51-.09-.7,0-1.22,.13-1.53,.36-.11,.23-.18,.95-.18,2.18s.01,1.99,.04,2.29c.19,1.84,.91,2.77,2.2,2.77,.43,0,.85-.13,1.3-.38,.45-.24,.81-.58,1.1-1l.03,.04v.35c.04,.33,.11,.65,.24,.99,.13,.35,.23,.51,.33,.51,.35,0,.78-.13,1.28-.38,.5-.25,.75-.43,.75-.54-.24-.34-.4-.8-.49-1.37Z"/>
    <path class="cls-3" d="M216.82,239.98s-.05,.01-.1,.04c-.44,.2-.94,.31-1.52,.31-.73,0-1.27-.18-1.59-.51-.33-.33-.49-.75-.49-1.27s.09-.95,.28-1.32c.18-.36,.39-.63,.64-.8,.58-.4,1.34-.61,2.28-.61h.13c.15-.1,.23-.4,.23-.89s-.04-.75-.11-.81c-.05-.01-.21-.01-.49-.01-1.45,0-2.68,.41-3.68,1.24-1.01,.83-1.52,1.94-1.52,3.34,0,1,.34,1.83,1,2.49,.68,.65,1.7,.99,3.09,.99,.79,0,1.39-.11,1.79-.33,.14-.1,.2-.41,.2-.94s-.05-.83-.14-.93Z"/>
    <path class="cls-3" d="M223.51,239.98s-.04,.01-.09,.04c-.44,.2-.95,.31-1.52,.31-.74,0-1.27-.18-1.59-.51-.34-.33-.5-.75-.5-1.27s.1-.95,.28-1.32c.19-.36,.4-.63,.64-.8,.59-.4,1.35-.61,2.29-.61h.13c.15-.1,.23-.4,.23-.89s-.04-.75-.11-.81c-.05-.01-.21-.01-.5-.01-1.45,0-2.68,.41-3.68,1.24-1,.83-1.5,1.94-1.5,3.34,0,1,.33,1.83,1,2.49,.66,.65,1.7,.99,3.09,.99,.79,0,1.39-.11,1.79-.33,.14-.1,.2-.41,.2-.94s-.05-.83-.15-.93Z"/>
    <path class="cls-3" d="M231.18,239.83c-.54,.31-1.27,.46-2.19,.46-.29,0-.59-.04-.89-.13s-.45-.2-.45-.34c1.15-.36,2.05-.89,2.72-1.58,.66-.7,1-1.4,1-2.12s-.24-1.2-.73-1.49c-.48-.28-1-.43-1.58-.43-1.4,0-2.49,.41-3.27,1.24s-1.17,1.79-1.17,2.92,.33,2.02,.98,2.68c.64,.68,1.57,1.01,2.78,1.01s2.02-.14,2.43-.4c.3-.36,.46-.88,.46-1.53,0-.23-.01-.33-.04-.33s-.05,0-.06,.01Zm-4.41-1.64c0-.66,.19-1.24,.58-1.72,.38-.48,.81-.71,1.32-.71,.38,0,.56,.16,.56,.49,0,.53-.29,1.01-.86,1.48-.56,.46-1.08,.7-1.52,.71-.05,0-.08-.09-.08-.25Z"/>
    <path class="cls-3" d="M237.4,238.6c-.31-.34-.64-.6-1.01-.8-.95-.51-1.42-.91-1.42-1.22,0-.41,.48-.76,1.44-1.05,.49-.14,.85-.2,1.1-.2-.01-.34-.13-.65-.31-.96-.2-.31-.36-.48-.48-.48-1.05,0-2.04,.29-2.97,.88-.93,.58-1.39,1.22-1.39,1.9,0,.34,.15,.65,.46,.95,.3,.3,.64,.54,1,.73,.36,.18,.7,.39,1,.63,.31,.24,.46,.46,.46,.69,0,.33-.25,.64-.75,.95-.5,.3-1.23,.46-2.18,.46v.11c0,.5,.15,.94,.46,1.32,.1,.14,.19,.2,.25,.2,.54,0,1.17-.1,1.88-.31,.71-.21,1.38-.55,1.99-1.04,.61-.49,.93-1.03,.93-1.64-.01-.4-.18-.78-.48-1.11Z"/>
    <path class="cls-3" d="M243.4,238.6c-.31-.34-.64-.6-1.01-.8-.94-.51-1.42-.91-1.42-1.22,0-.41,.48-.76,1.44-1.05,.49-.14,.85-.2,1.1-.2-.01-.34-.13-.65-.31-.96-.2-.31-.36-.48-.48-.48-1.05,0-2.04,.29-2.97,.88-.93,.58-1.39,1.22-1.39,1.9,0,.34,.15,.65,.46,.95,.3,.3,.64,.54,1,.73,.36,.18,.7,.39,1,.63,.31,.24,.46,.46,.46,.69,0,.33-.25,.64-.75,.95-.5,.3-1.23,.46-2.18,.46v.11c0,.5,.15,.94,.46,1.32,.1,.14,.19,.2,.25,.2,.54,0,1.16-.1,1.88-.31,.71-.21,1.38-.55,1.99-1.04,.61-.49,.93-1.03,.93-1.64-.01-.4-.18-.78-.48-1.11Z"/>
  </g>
</svg>