<?xml version="1.0" encoding="UTF-8"?>
<svg id="Layer_1" data-name="Layer 1" xmlns="http://www.w3.org/2000/svg" xmlns:xlink="http://www.w3.org/1999/xlink" viewBox="0 0 360 108">
  <defs>
    <style>
      .cls-1 {
        fill: url(#GradientFill_1-2);
      }

      .cls-1, .cls-2, .cls-3, .cls-4 {
        fill-rule: evenodd;
      }

      .cls-2 {
        fill: #fff;
      }

      .cls-3 {
        fill: #c00b0c;
      }

      .cls-4 {
        fill: #1a1a18;
      }

      .cls-5 {
        fill: url(#GradientFill_1);
      }
    </style>
    <radialGradient id="GradientFill_1" data-name="GradientFill 1" cx="60.98" cy="47.61" fx="60.98" fy="47.61" r="57.39" gradientUnits="userSpaceOnUse">
      <stop offset="0" stop-color="#ef7800"/>
      <stop offset="1" stop-color="#e6273e"/>
    </radialGradient>
    <radialGradient id="GradientFill_1-2" data-name="GradientFill 1" cx="329.96" cy="34.17" fx="329.96" fy="34.17" r="27.76" xlink:href="#GradientFill_1"/>
  </defs>
  <rect class="cls-5" x="20.1" y="27.77" width="61.93" height="60.11" rx="1.83" ry="1.83"/>
  <polygon class="cls-3" points="30.72 83.48 49.36 83.48 49.36 71.38 43.99 71.45 43.94 77.86 36.39 77.89 36.34 71.95 49.36 64.4 49.36 58.08 36.3 65.49 36.38 46.99 43.94 42.63 43.93 57.79 49.36 54.77 49.36 32.91 30.72 43.85 30.72 83.48"/>
  <polygon class="cls-3" points="52.4 83.12 57.95 83.12 57.95 65.1 65.54 65.1 65.54 83.12 70.84 83.12 70.84 43.94 65.54 40.84 65.54 59.72 57.95 59.72 57.95 36.4 52.4 33.15 52.4 83.12"/>
  <polygon class="cls-2" points="31.29 82.74 49.93 82.74 49.93 70.65 44.56 70.72 44.51 77.12 36.96 77.15 36.91 71.21 49.93 63.67 49.93 57.34 36.87 64.75 36.95 46.26 44.5 41.9 44.5 57.06 49.93 54.03 49.93 32.17 31.29 43.11 31.29 82.74"/>
  <polygon class="cls-2" points="52.97 82.5 58.52 82.5 58.52 64.49 66.11 64.49 66.11 82.5 71.41 82.5 71.41 43.33 66.11 40.23 66.11 59.1 58.52 59.1 58.52 35.79 52.97 32.54 52.97 82.5"/>
  <path class="cls-4" d="M88.69,77.63c.03,3.2,1.63,5.39,4.73,5.39s4.69-2.2,4.73-5.39c.03-2.82-1.49-5.39-4.73-5.39s-4.76,2.57-4.73,5.39h0Zm4.73-4.5c2.52,0,3.66,2.29,3.66,4.5s-1.14,4.5-3.66,4.5-3.66-2.29-3.66-4.5,1.14-4.5,3.66-4.5h0Zm6.77,9.71h.97v-4.21c0-1.27,.55-2.78,2.32-2.78,1.34,0,1.86,.93,1.86,2.36v4.63h.97v-4.87c0-1.67-.74-2.93-2.68-2.93-1.63,0-2.22,.85-2.54,1.54h-.03v-1.36h-.94c.06,.61,.06,1.21,.06,1.79v5.83h0Zm8.56,0h.97v-11.21h-.97v11.21h0Zm8.9-7.62h-1.02l-2.26,6.35h-.01s-2.2-6.35-2.2-6.35h-1.06l2.79,7.71-.2,.67c-.31,.99-.58,1.66-1.42,1.66-.35,0-.54-.06-.72-.12l-.09,.81c.32,.07,.69,.12,1.05,.12,1.09,0,1.65-1.05,2.02-2.09l3.14-8.76h0Zm7.74,7.62h1.06v-9.53h3.17v-.9h-7.4v.9h3.17v9.53h0Zm5.59,0h.97v-4.08c0-1.33,.6-2.91,2.32-2.91,1.6,0,1.86,1.14,1.86,2.45v4.54h.97v-4.56c0-1.88-.57-3.24-2.68-3.24-1.15,0-2.03,.63-2.45,1.46h-.03v-4.87h-.97v11.21h0Zm13.82-1.2c-.46,.28-1.49,.57-2.2,.57-1.69,0-2.59-1.3-2.59-2.91h5.37v-.48c0-2.05-.91-3.78-3.12-3.78-1.99,0-3.31,1.66-3.31,3.99s.97,3.99,3.57,3.99c.72,0,1.6-.15,2.28-.42v-.96h0Zm-4.79-3.15c0-1.26,.88-2.64,2.31-2.64s2,1.31,2,2.64h-4.31Zm12.7-5.18h1.09c1.46,0,2.71,.1,2.71,1.81,0,1.45-1.43,1.91-2.68,1.91h-1.12v-3.72h0Zm-1.06,9.53h1.06v-4.92h.88c1.02,0,1.48,.04,2.09,1.39l1.56,3.53h1.17l-1.83-4.03c-.34-.7-.52-1.15-1.39-1.26v-.03c1.32-.16,2.39-1.06,2.39-2.41,0-1.91-1.25-2.7-3.16-2.7h-2.77v10.43h0Zm8.42,0h.97v-7.62h-.97v7.62h0Zm.97-10.91h-.97v1.26h.97v-1.26h0Zm3.05,7.1c0-1.48,.48-3.18,2.32-3.18s2.32,1.34,2.32,3.18c0,1.39-.63,3-2.39,3-1.65,0-2.26-1.51-2.26-3h0Zm5.62-3.81h-.97v.87h-.03c-.72-.91-1.4-1.05-2.45-1.05-2.31,0-3.23,1.67-3.23,3.99,0,1.69,.8,3.81,3.31,3.81,1,0,1.86-.39,2.39-1.49h.03c0,2.15-.22,3.91-2.71,3.91-.85,0-1.71-.24-2.31-.54l-.08,.94c.4,.12,1.34,.4,2.37,.4,2.69,0,3.68-1.73,3.68-3.85v-6.99h0Zm2.34,7.62h.97v-4.08c0-1.33,.6-2.91,2.32-2.91,1.6,0,1.86,1.14,1.86,2.45v4.54h.97v-4.56c0-1.88-.57-3.24-2.68-3.24-1.15,0-2.03,.63-2.45,1.46h-.03v-4.87h-.97v11.21h0Zm11.95-7.62h-1.79v-2.17l-.97,.33v1.84h-1.54v.81h1.54v4.45c0,1.39,.06,2.54,1.79,2.54,.48,0,.95-.12,1.19-.21l-.06-.78c-.28,.1-.52,.18-.89,.18-.78,0-1.05-.57-1.05-1.25v-4.93h1.79v-.81h0Zm6.13,7.62h5.45v-.9h-4.39v-4.02h3.99v-.9h-3.99v-3.72h4.2v-.9h-5.26v10.43h0Zm13.81-11.21h-.97v4.87h-.03c-.14-.37-.91-1.46-2.45-1.46-2.31,0-3.23,1.67-3.23,3.99s1.08,3.99,3.23,3.99c1.12,0,1.92-.42,2.45-1.39h.03v1.21h.97v-11.21h0Zm-5.62,7.4c0-1.48,.48-3.18,2.32-3.18,1.72,0,2.32,1.79,2.32,3.18s-.6,3.18-2.32,3.18c-1.85,0-2.32-1.7-2.32-3.18h0Zm14.09-3.81h-.97v4.21c0,1.27-.55,2.78-2.32,2.78-1.34,0-1.86-.93-1.86-2.36v-4.63h-.97v4.87c0,1.67,.74,2.93,2.68,2.93,1.63,0,2.22-.85,2.54-1.54h.03v1.36h.94c-.06-.61-.06-1.21-.06-1.79v-5.83h0Zm7.62,.12c-.28-.09-.95-.3-1.89-.3-2.32,0-3.88,1.64-3.88,3.99,0,2.12,1.23,3.99,3.76,3.99,.74,0,1.35-.05,2.02-.27l-.09-.88c-.59,.21-1.15,.34-1.77,.34-1.77,0-2.85-1.45-2.85-3.18,0-1.85,1.06-3.18,2.96-3.18,.52,0,1.15,.16,1.68,.39l.08-.9h0Zm6.16,7.5h.95c-.08-.52-.08-.99-.08-1.6v-3.36c0-1.99-.82-2.84-2.76-2.84-.69,0-1.71,.24-2.31,.52v.91c.72-.45,1.49-.63,2.31-.63,1.31,0,1.79,.66,1.79,1.96v.39h-.18c-2.03,0-4.83,.12-4.83,2.67,0,.69,.35,2.15,2.59,2.15,.97,0,2.06-.49,2.49-1.4h.03v1.23h0Zm-.09-3.38c0,.82-.05,2.75-2.32,2.75-.89,0-1.63-.37-1.63-1.37,0-1.67,2-1.84,3.68-1.84h.28v.46h0Zm6.67-4.24h-1.79v-2.17l-.97,.33v1.84h-1.54v.81h1.54v4.45c0,1.39,.06,2.54,1.79,2.54,.48,0,.95-.12,1.19-.21l-.06-.78c-.28,.1-.52,.18-.89,.18-.78,0-1.05-.57-1.05-1.25v-4.93h1.79v-.81h0Zm1.74,7.62h.97v-7.62h-.97v7.62h0Zm.97-10.91h-.97v1.26h.97v-1.26h0Zm1.85,7.1c0,2.08,1.12,3.99,3.66,3.99s3.66-1.91,3.66-3.99-1.12-3.99-3.66-3.99-3.66,1.91-3.66,3.99h0Zm1.06,0c0-1.76,.91-3.18,2.6-3.18s2.6,1.42,2.6,3.18-.91,3.18-2.6,3.18-2.6-1.42-2.6-3.18h0Zm8.1,3.81h.97v-4.21c0-1.27,.55-2.78,2.32-2.78,1.34,0,1.86,.93,1.86,2.36v4.63h.97v-4.87c0-1.67-.74-2.93-2.68-2.93-1.63,0-2.22,.85-2.54,1.54h-.03v-1.36h-.94c.06,.61,.06,1.21,.06,1.79v5.83h0Zm8.85,0h1.25v-1.26h-1.25v1.26h0Zm4.28,0h1.25v-1.26h-1.25v1.26h0Zm4.28,0h1.25v-1.26h-1.25v1.26h0Zm4.28,0h1.25v-1.26h-1.25v1.26h0Zm4.28,0h1.25v-1.26h-1.25v1.26Z"/>
  <path class="cls-4" d="M103.42,65.79v-5.79h-8.65v-8.76l8.65-4.28v-6.47l-8.65,4.23v-9.34h8.65v-5.79h-14.78v36.21h14.78Zm9.46-23.27h4.25v17.74h-4.25v-17.74h0Zm10.21,23.27V29.58l-5.97,2.92v7.2c-.54-1.88-1.88-2.92-3.71-2.92h-1.88c-3.33,0-4.62,1.51-4.62,5.01v19.04c0,3.5,1.29,4.96,4.62,4.96h1.88c1.83,0,3.17-1.04,3.71-2.92v2.92h5.97Zm20.16,0v-29.01h-5.97v23.48h-4.25v-23.48h-5.97v24.05c0,3.34,1.5,4.96,4.46,4.96h2.04c2.1,0,3.17-.89,3.71-2.92v2.92h5.97Zm3.98-24v19.04c0,3.18,1.88,4.96,5,4.96h6.18c3.12,0,5-1.77,5-4.96v-7.36l-5.97,2.92v3.86h-4.25v-17.89h4.25v5.48l5.97-2.92v-3.13c0-3.18-1.88-5.01-5-5.01h-6.18c-3.12,0-5,1.83-5,5.01h0Zm19.67,0v5.79l5.86-2.92v-2.56h4.46v4.38l-10.32,5.01v9.34c0,3.5,1.29,4.96,4.62,4.96h1.88c1.83,0,3.17-1.04,3.71-2.92v2.92h5.97v-24c0-3.18-1.88-5.01-5-5.01h-6.18c-3.12,0-5,1.83-5,5.01h0Zm10.32,10.33v8.24h-4.46v-6.1l4.46-2.14h0Zm17.25,8.14v-15.65l4.95-2.45v-5.9l-4.95,2.5v-7.62l-5.97,3.34v7.2l-3.23,1.62v5.84l3.23-1.62v13.3c0,3.18,1.88,4.96,5,4.96h6.45v-5.53h-5.48Zm7.53-20.55v26.09h5.97v-29.01l-5.97,2.92h0Zm0-2.35v-4.85l5.97-2.92v4.85l-5.97,2.92h0Zm20.16,5.01v17.89h-4.25v-17.89h4.25Zm-10.21-.57v19.04c0,3.18,1.88,4.96,5,4.96h6.07c3.39,0,5.11-1.72,5.11-5.01v-18.99c0-3.18-1.88-5.01-5-5.01h-6.18c-3.12,0-5,1.83-5,5.01h0Zm20.16-5.01v29.01h5.97v-23.42h4.25v23.42h5.97v-24c0-3.34-1.5-5.01-4.46-5.01h-2.1c-1.83,0-3.12,1.04-3.65,2.92v-2.92h-5.97Zm47.84-7.2h-6.07v12.94l-4.62,2.24v-15.18h-6.07v36.21h6.07v-14.5l4.62-2.3v16.8h6.07V29.58h0Zm20.43,36.21v-29.01h-5.97v23.48h-4.25v-23.48h-5.97v24.05c0,3.34,1.5,4.96,4.46,4.96h2.04c2.1,0,3.17-.89,3.71-2.92v2.92h5.97Zm14.19-23.27v17.74h-4.25v-17.74h4.25Zm-10.21,23.27h5.97v-2.92c.54,1.88,1.88,2.92,3.71,2.92h1.88c3.33,0,4.62-1.46,4.62-4.96v-19.04c0-3.5-1.29-5.01-4.62-5.01h-1.88c-1.83,0-3.17,1.04-3.71,2.92v-10.12l-5.97,2.94v33.27Z"/>
  <path class="cls-1" d="M310.2,20.14l17.89,4.68c.48,.12,1.28,.87,1.52,1.28l10.24,17.42c.24,.41-.62,.74-1.09,.62l-9.22-2.32c-.87,.55-1.74,1.1-2.61,1.64-.6,.39-1.03,.21-1.32-.43-1.95-5.31-5.24-9.26-11.41-10.31-.7-.2-.93-.64-.31-1.22,.52-.36,1.05-.71,1.57-1.07,.86-.48,1.71-.94,2.53-1.32,.98,.08,1.93,.3,2.85,.63,.99,.35,1.96,.83,2.92,1.39,.37,.22,.86,.1,1.08-.26,.23-.36,.11-.83-.27-1.05-1.03-.61-2.09-1.13-3.2-1.52-1.12-.4-2.27-.65-3.48-.73h0c-.13,0-.26,.01-.39,.07-1.07,.48-2.13,1.07-3.19,1.67l-.15,.08-.33-.27-4.74-8.38c-.24-.42,.62-.75,1.09-.62h0Zm24.12,25.99c1.94-.44,2.61-.09,1.45,1.42-1.51,1.53-3.01,3.06-4.52,4.59-.65,.52-1.24,.43-1.78-.45-.54-.86-1.07-1.72-1.61-2.58-.66-.84-.45-1.4,.55-1.7,2.05-.38,3.89-.76,5.9-1.29Z"/>
</svg>