<?xml version="1.0" encoding="UTF-8"?>
<svg id="Layer_1" data-name="Layer 1" xmlns="http://www.w3.org/2000/svg" xmlns:xlink="http://www.w3.org/1999/xlink" viewBox="0 0 577.75 426.47">
  <defs>
    <style>
      .cls-1 {
        fill: #fff;
      }

      .cls-2 {
        letter-spacing: -.01em;
      }

      .cls-3 {
        fill: #030081;
        font-family: Montserrat-ExtraBoldItalic, Montserrat;
        font-size: 32.97px;
      }

      .cls-4 {
        letter-spacing: 0em;
      }

      .cls-5 {
        letter-spacing: 0em;
      }

      .cls-6 {
        clip-path: url(#clippath);
      }

      .cls-7 {
        fill: none;
      }

      .cls-8 {
        fill: #ccc;
      }

      .cls-9 {
        letter-spacing: -.01em;
      }

      .cls-10 {
        fill: #ffd302;
      }

      .cls-11 {
        fill: #0d005a;
      }

      .cls-12 {
        letter-spacing: 0em;
      }

      .cls-13 {
        opacity: .25;
      }
    </style>
    <clipPath id="clippath">
      <path class="cls-7" d="M-304.4-178.8V950.27h-263.97v-247.49c6.12,.59,12.32,.89,18.59,.89,106.66,0,193.44-86.77,193.44-193.44v-249c0-106.67-86.78-193.44-193.44-193.44-6.27,0-12.47,.3-18.59,.89V-178.8H-304.4Z"/>
    </clipPath>
  </defs>
  <g class="cls-13">
    <g class="cls-6">
      <g>
        <rect class="cls-1" x="-994.76" y="-53.96" width="1170.68" height="858.5" transform="translate(-34.14 784.71) rotate(90)"/>
        <g>
          <path class="cls-8" d="M-12.87-60.33c-6.46-2.14-11.9-2.49-16.47-.99-3.1,.99-3.73,1.41-3.35,2.36,.34,.94,1.22,.99,3.77,.3,1.34-.39,4.02-.69,5.99-.69,3.1,0,4.28,.26,9.22,1.93,6.67,2.27,9.73,3.77,13.37,6.6,4.53,3.47,7.38,6.43,10.1,10.46,2.6,3.9,7.34,13.46,8.55,17.27,.67,2.1,.92,9.98,.42,12.6-.25,1.2-.42,1.33-2.6,1.54-3.44,.39-12.45,3.17-15.38,4.71C-1.17-3.21-3.86-.73-10.61,6.13c-9.22,9.38-9.98,10.41-13.92,18.43-5.87,12.04-7.71,18.04-5.83,19.24,.96,.6,1.76-.39,2.18-2.66,.54-2.96,7.29-17.83,10.1-22.15C-16.47,16.5-3.19,2.57,0,0,1.22-.94,3.31-2.14,4.61-2.66c3.65-1.41,11.7-3.43,13.58-3.43h1.63v-11.01l-.04-11.06-2.6-5.14c-7.67-15.17-15.34-22.11-30.06-27.04Z"/>
          <path class="cls-8" d="M2.85,7.41c-4.02,2.01-9.64,6.34-12.83,9.98-4.07,4.58-9.85,14.95-12.28,21.9-1.43,4.11-1.93,11.27-.96,14.1l.63,1.8h-1.59c-1.55,0-7.75,.73-9.56,1.11-.71,.13-.92,.43-.84,1.16q.13,.94,8.3,.81c7.96-.17,8.3-.13,12.99,1.11,10.1,2.7,10.61,3.04,21.67,14.61,6.08,6.34,8.01,8.66,9.56,11.4l1.89,3.43v-3.3c0-3.09-.08-3.39-1.51-5.36-.84-1.11-5.24-5.83-9.77-10.41C2.43,63.5-.29,61.06-2.18,60.03c-2.93-1.54-11.9-4.33-15.38-4.71-2.18-.21-2.35-.34-2.6-1.54-.5-2.61-.25-10.5,.42-12.6,1.22-3.81,5.95-13.37,8.55-17.27C-7.5,18.43-1.47,12.98,4.11,10.11c2.98-1.54,13.16-5.06,14.67-5.06,.92,0,1.05-.17,1.05-1.54V1.93l-1.84,.26c-2.93,.43-10.98,3.21-15.13,5.23Z"/>
          <path class="cls-8" d="M-1.47,30.72c-5.66,6.34-7.88,10.16-9.26,15.98-1.05,4.41-1.09,5.61-.25,6.34,1.17,1.03,1.76,.09,2.89-4.8,.71-3.21,1.63-5.79,2.68-7.71,2.26-4.11,9.22-11.91,12.79-14.31,3.94-2.66,8.47-5.14,10.69-5.78,1.63-.47,1.76-.64,1.76-1.97,0-.77-.17-1.41-.34-1.41-1.55,0-7.38,2.7-11.28,5.18-4.15,2.66-5.41,3.73-9.68,8.48Z"/>
          <path class="cls-8" d="M14.34,32.74c-5.32,2.79-9.26,7.07-12.16,13.15-1.51,3.17-2.18,5.1-2.18,6.3,0,1.41-.13,1.71-.8,1.71-1.01,0-1.47,1.2-.71,1.93,.34,.3,2.68,1.46,5.28,2.53,7.46,3.21,9.6,4.71,12.07,8.53,1.17,1.76,2.52,3.94,3.02,4.88l.92,1.63,.04-3.04c0-2.87-.08-3.13-1.76-5.61-1.01-1.41-2.35-3.09-3.06-3.64-1.59-1.37-5.7-3.47-10.19-5.27-2.64-1.03-3.4-1.5-2.89-1.76,.34-.21,1.22-1.93,1.93-3.81,2.89-7.71,7.21-12.6,13.79-15.64,2.1-.94,2.18-1.07,2.18-2.66s-.08-1.67-.92-1.41c-.54,.17-2.6,1.16-4.57,2.19Z"/>
          <path class="cls-8" d="M10.77,50.86c-.5,1.03-.59,1.67-.29,2.14,.75,1.2,1.93,.77,3.23-1.24,.67-1.07,2.31-3.43,3.69-5.23,2.05-2.79,2.43-3.56,2.43-5.06v-1.8l-1.34,1.2c-1.76,1.46-6.83,8.06-7.71,9.98Z"/>
          <path class="cls-8" d="M17.73,58.79l2.1,1.54v-1.67c0-1.29-.25-1.89-.92-2.36-.5-.39-1.47-.69-2.1-.69-1.89,0-1.47,1.41,.92,3.17Z"/>
          <path class="cls-8" d="M-12.87,68.22c-6.46-2.14-11.9-2.49-16.47-.99-3.1,.99-3.73,1.41-3.35,2.36,.34,.94,1.22,.99,3.77,.3,1.34-.39,4.02-.69,5.99-.69,3.1,0,4.28,.26,9.22,1.93,6.67,2.27,9.73,3.77,13.37,6.6,4.53,3.47,7.38,6.43,10.1,10.46,2.6,3.9,7.34,13.46,8.55,17.27,.67,2.1,.92,9.98,.42,12.6-.25,1.2-.42,1.33-2.6,1.54-3.44,.39-12.45,3.17-15.38,4.71-1.93,1.03-4.61,3.51-11.36,10.37-9.22,9.38-9.98,10.41-13.92,18.43-5.87,12.04-7.71,18.04-5.83,19.24,.96,.6,1.76-.39,2.18-2.66,.54-2.96,7.29-17.83,10.1-22.15,1.59-2.49,14.88-16.41,18.07-18.98,1.22-.94,3.31-2.14,4.61-2.66,3.65-1.41,11.7-3.43,13.58-3.43h1.63v-11.01l-.04-11.06-2.6-5.14c-7.67-15.17-15.34-22.11-30.06-27.04Z"/>
          <path class="cls-8" d="M2.85,135.97c-4.02,2.01-9.64,6.34-12.83,9.94-4.11,4.71-9.77,14.78-12.28,21.94-1.43,4.07-1.93,11.27-.96,14.1l.63,1.8h-1.59c-1.55,0-7.75,.73-9.56,1.12-.71,.13-.92,.43-.84,1.16q.13,.94,8.3,.82c7.96-.17,8.3-.13,12.99,1.11,10.1,2.7,10.61,3.04,21.67,14.61,6.08,6.34,8.01,8.66,9.56,11.4l1.89,3.43v-3.3c0-3.09-.08-3.39-1.51-5.36-.84-1.12-5.24-5.83-9.77-10.41-6.12-6.26-8.84-8.7-10.73-9.73-2.93-1.54-11.9-4.33-15.38-4.71-2.18-.21-2.35-.34-2.6-1.54-.5-2.61-.25-10.5,.42-12.6,1.22-3.81,5.95-13.37,8.55-17.27,3.69-5.49,9.73-10.93,15.3-13.8,2.98-1.54,13.16-5.06,14.67-5.06,.92,0,1.05-.17,1.05-1.54v-1.59l-1.84,.26c-2.93,.43-10.98,3.21-15.13,5.23Z"/>
          <path class="cls-8" d="M-1.47,159.28c-5.66,6.34-7.88,10.16-9.26,15.98-1.05,4.41-1.09,5.61-.25,6.34,1.17,1.03,1.76,.09,2.89-4.8,.71-3.21,1.63-5.79,2.68-7.71,2.26-4.11,9.22-11.91,12.79-14.31,3.94-2.66,8.47-5.14,10.69-5.78,1.63-.47,1.76-.64,1.76-1.97,0-.77-.17-1.41-.34-1.41-1.55,0-7.38,2.7-11.28,5.18-4.15,2.66-5.41,3.73-9.68,8.48Z"/>
          <path class="cls-8" d="M14.34,161.29c-5.32,2.79-9.26,7.07-12.16,13.15-1.51,3.17-2.18,5.1-2.18,6.3,0,1.42-.13,1.72-.8,1.72-1.01,0-1.47,1.2-.71,1.93,.34,.3,2.68,1.46,5.28,2.53,7.46,3.21,9.6,4.71,12.07,8.53,1.17,1.76,2.52,3.94,3.02,4.89l.92,1.63,.04-3.04c0-2.87-.08-3.13-1.76-5.61-1.01-1.42-2.35-3.09-3.06-3.64-1.59-1.37-5.7-3.47-10.19-5.27-2.64-1.03-3.4-1.5-2.89-1.76,.34-.21,1.22-1.93,1.93-3.82,2.85-7.54,7.25-12.6,13.5-15.47,2.43-1.11,2.47-1.2,2.47-2.83,0-1.54-.08-1.67-.92-1.41-.54,.17-2.6,1.16-4.57,2.19Z"/>
          <path class="cls-8" d="M10.77,179.42c-.5,1.03-.59,1.67-.29,2.14,.75,1.2,1.93,.77,3.23-1.24,.67-1.07,2.31-3.43,3.69-5.23,2.05-2.79,2.43-3.56,2.43-5.06v-1.8l-1.34,1.2c-1.76,1.46-6.83,8.06-7.71,9.98Z"/>
          <path class="cls-8" d="M17.73,187.34l2.1,1.55v-1.67c0-1.29-.25-1.89-.92-2.36-.5-.39-1.47-.69-2.1-.69-1.89,0-1.47,1.41,.92,3.17Z"/>
          <path class="cls-8" d="M-12.87,196.77c-6.46-2.14-11.9-2.49-16.47-.98-3.1,.98-3.73,1.41-3.35,2.36,.34,.94,1.22,.98,3.77,.3,1.34-.39,4.02-.69,5.99-.69,3.1,0,4.28,.26,9.22,1.93,6.67,2.27,9.73,3.77,13.37,6.6,4.53,3.47,7.38,6.43,10.1,10.45,2.6,3.9,7.34,13.46,8.55,17.27,.67,2.1,.92,9.98,.42,12.6-.25,1.2-.42,1.33-2.6,1.54-3.44,.39-12.45,3.17-15.38,4.71-1.93,1.03-4.61,3.52-11.36,10.37-9.22,9.38-9.98,10.41-13.92,18.43-5.87,12.04-7.71,18.04-5.83,19.24,.96,.6,1.76-.39,2.18-2.66,.54-2.95,7.29-17.83,10.1-22.15,1.59-2.49,14.88-16.41,18.07-18.98,1.22-.94,3.31-2.14,4.61-2.65,3.65-1.42,11.7-3.43,13.58-3.43h1.63v-11.01l-.04-11.06-2.6-5.14c-7.67-15.17-15.34-22.11-30.06-27.04Z"/>
          <path class="cls-8" d="M2.85,264.52c-4.02,2.01-9.64,6.34-12.83,9.99-4.07,4.59-9.85,14.95-12.28,21.9-1.43,4.11-1.93,11.27-.96,14.1l.63,1.8h-1.59c-1.55,0-7.75,.73-9.56,1.11-.71,.13-.92,.43-.84,1.16q.13,.94,8.3,.82c7.96-.17,8.3-.13,12.99,1.11,10.1,2.7,10.61,3.04,21.67,14.61,6.08,6.34,8.01,8.66,9.56,11.4l1.89,3.43v-3.3c0-3.09-.08-3.39-1.51-5.36-.84-1.12-5.24-5.83-9.77-10.41-6.12-6.26-8.84-8.7-10.73-9.73-2.93-1.54-11.9-4.33-15.38-4.71-2.18-.21-2.35-.34-2.6-1.54-.5-2.61-.25-10.5,.42-12.6,1.22-3.81,5.95-13.37,8.55-17.27,3.69-5.49,9.73-10.93,15.3-13.8,2.98-1.54,13.16-5.06,14.67-5.06,.92,0,1.05-.17,1.05-1.54v-1.58l-1.84,.26c-2.93,.43-10.98,3.21-15.13,5.23Z"/>
          <path class="cls-8" d="M-1.47,287.83c-5.66,6.34-7.88,10.15-9.26,15.98-1.05,4.41-1.09,5.61-.25,6.34,1.17,1.03,1.76,.09,2.89-4.8,.71-3.22,1.63-5.78,2.68-7.71,2.26-4.11,9.22-11.91,12.79-14.31,3.94-2.66,8.47-5.14,10.69-5.79,1.63-.47,1.76-.64,1.76-1.97,0-.77-.17-1.41-.34-1.41-1.55,0-7.38,2.7-11.28,5.19-4.15,2.65-5.41,3.73-9.68,8.48Z"/>
          <path class="cls-8" d="M14.34,289.84c-5.32,2.79-9.26,7.07-12.16,13.15-1.51,3.17-2.18,5.1-2.18,6.3,0,1.42-.13,1.72-.8,1.72-1.01,0-1.47,1.2-.71,1.93,.34,.3,2.68,1.46,5.28,2.53,7.46,3.21,9.6,4.71,12.07,8.53,1.17,1.76,2.52,3.94,3.02,4.89l.92,1.63,.04-3.04c0-2.87-.08-3.13-1.76-5.61-1.01-1.42-2.35-3.09-3.06-3.64-1.59-1.37-5.7-3.47-10.19-5.27-2.64-1.03-3.4-1.5-2.89-1.76,.34-.21,1.22-1.93,1.93-3.81,2.89-7.71,7.21-12.6,13.79-15.64,2.1-.94,2.18-1.07,2.18-2.66s-.08-1.67-.92-1.41c-.54,.17-2.6,1.16-4.57,2.19Z"/>
          <path class="cls-8" d="M10.77,307.97c-.5,1.03-.59,1.67-.29,2.14,.75,1.2,1.93,.77,3.23-1.24,.67-1.07,2.31-3.43,3.69-5.23,2.05-2.79,2.43-3.56,2.43-5.06v-1.8l-1.34,1.2c-1.76,1.46-6.83,8.06-7.71,9.99Z"/>
          <path class="cls-8" d="M17.73,315.89l2.1,1.55v-1.67c0-1.28-.25-1.88-.92-2.36-.5-.38-1.47-.68-2.1-.68-1.89,0-1.47,1.41,.92,3.17Z"/>
          <path class="cls-8" d="M-12.87,325.32c-6.46-2.14-11.9-2.49-16.47-.98-3.1,.98-3.73,1.41-3.35,2.36,.34,.94,1.22,.98,3.77,.3,1.34-.38,4.02-.68,5.99-.68,3.1,0,4.28,.26,9.22,1.93,6.67,2.27,9.73,3.77,13.37,6.6,4.53,3.47,7.38,6.43,10.1,10.45,2.6,3.9,7.34,13.46,8.55,17.27,.67,2.1,.92,9.98,.42,12.6-.25,1.2-.42,1.33-2.6,1.54-3.44,.39-12.45,3.17-15.38,4.71-1.93,1.03-4.61,3.52-11.36,10.37-9.22,9.38-9.98,10.41-13.92,18.42-5.87,12.04-7.71,18.04-5.83,19.24,.96,.6,1.76-.39,2.18-2.66,.54-2.96,7.29-17.83,10.1-22.15,1.59-2.49,14.88-16.41,18.07-18.98,1.22-.94,3.31-2.14,4.61-2.65,3.65-1.42,11.7-3.43,13.58-3.43h1.63v-11.01l-.04-11.06-2.6-5.14c-7.67-15.17-15.34-22.11-30.06-27.04Z"/>
          <path class="cls-8" d="M2.85,393.07c-4.02,2.01-9.64,6.34-12.83,9.94-4.11,4.71-9.77,14.78-12.28,21.94-1.43,4.07-1.93,11.27-.96,14.1l.63,1.8h-1.59c-1.55,0-7.75,.73-9.56,1.11-.71,.13-.92,.43-.84,1.16q.13,.94,8.3,.82c7.96-.17,8.3-.13,12.99,1.11,10.1,2.7,10.61,3.04,21.67,14.61,6.08,6.34,8.01,8.66,9.56,11.39l1.89,3.43v-3.3c0-3.08-.08-3.38-1.51-5.35-.84-1.12-5.24-5.83-9.77-10.42-6.12-6.26-8.84-8.7-10.73-9.72-2.93-1.55-11.9-4.33-15.38-4.71-2.18-.21-2.35-.34-2.6-1.54-.5-2.61-.25-10.5,.42-12.6,1.22-3.81,5.95-13.37,8.55-17.27,3.69-5.49,9.73-10.93,15.3-13.8,2.98-1.54,13.16-5.06,14.67-5.06,.92,0,1.05-.17,1.05-1.54v-1.58l-1.84,.25c-2.93,.43-10.98,3.22-15.13,5.23Z"/>
          <path class="cls-8" d="M-1.47,416.38c-5.66,6.34-7.88,10.15-9.26,15.98-1.05,4.41-1.09,5.61-.25,6.34,1.17,1.03,1.76,.09,2.89-4.8,.71-3.22,1.63-5.78,2.68-7.71,2.26-4.11,9.22-11.91,12.79-14.31,3.94-2.66,8.47-5.14,10.69-5.79,1.63-.47,1.76-.64,1.76-1.97,0-.77-.17-1.41-.34-1.41-1.55,0-7.38,2.7-11.28,5.19-4.15,2.65-5.41,3.73-9.68,8.48Z"/>
          <path class="cls-8" d="M14.34,418.39c-5.32,2.79-9.26,7.07-12.16,13.15-1.51,3.17-2.18,5.1-2.18,6.3,0,1.42-.13,1.71-.8,1.71-1.01,0-1.47,1.2-.71,1.93,.34,.3,2.68,1.46,5.28,2.52,7.46,3.22,9.6,4.71,12.07,8.53,1.17,1.76,2.52,3.94,3.02,4.89l.92,1.63,.04-3.04c0-2.87-.08-3.13-1.76-5.61-1.01-1.42-2.35-3.09-3.06-3.64-1.59-1.37-5.7-3.47-10.19-5.27-2.64-1.03-3.4-1.5-2.89-1.76,.34-.21,1.22-1.93,1.93-3.81,2.85-7.54,7.25-12.6,13.5-15.47,2.43-1.12,2.47-1.2,2.47-2.83,0-1.54-.08-1.67-.92-1.41-.54,.17-2.6,1.16-4.57,2.19Z"/>
          <path class="cls-8" d="M10.77,436.52c-.5,1.03-.59,1.67-.29,2.14,.75,1.2,1.93,.77,3.23-1.24,.67-1.07,2.31-3.43,3.69-5.23,2.05-2.79,2.43-3.56,2.43-5.06v-1.8l-1.34,1.2c-1.76,1.46-6.83,8.06-7.71,9.99Z"/>
          <path class="cls-8" d="M9.18,110.47c-1.43-5.61-3.52-9.17-9.18-15.47-4.28-4.76-5.53-5.87-9.64-8.48-6.37-4.07-9.64-5.18-15.8-5.49-5.58-.26-7.13,.13-7.13,1.8,0,.6,.25,1.07,.54,1.11,.25,0,2.47,0,4.9-.04,5.24-.04,8.22,.64,12.41,2.96,6.04,3.34,8.76,5.49,12.99,10.37,5.32,6.08,6.96,9.08,8.38,15.3,1.13,4.88,1.72,5.83,2.89,4.8,.84-.73,.75-2.49-.38-6.86Z"/>
          <path class="cls-8" d="M9.18,239.02c-1.43-5.62-3.56-9.21-9.14-15.43-4.28-4.8-5.53-5.87-9.68-8.53-6.37-4.07-9.64-5.19-15.8-5.48-5.58-.26-7.13,.13-7.13,1.8,0,.6,.25,1.07,.54,1.11,.25,0,2.47,0,4.9-.04,5.24-.04,8.22,.64,12.41,2.96,6.04,3.34,8.76,5.49,12.99,10.37,5.32,6.09,6.96,9.08,8.38,15.3,1.13,4.88,1.72,5.83,2.89,4.8,.84-.73,.75-2.48-.38-6.85Z"/>
          <path class="cls-8" d="M9.18,367.57c-1.43-5.61-3.52-9.17-9.18-15.47-4.28-4.76-5.53-5.87-9.64-8.48-6.37-4.07-9.64-5.19-15.8-5.48-5.58-.26-7.13,.12-7.13,1.8,0,.6,.25,1.07,.54,1.11,.25,0,2.47,0,4.9-.04,5.24-.04,8.22,.64,12.41,2.96,6.04,3.34,8.76,5.48,12.99,10.37,5.32,6.09,6.96,9.08,8.38,15.3,1.13,4.88,1.72,5.83,2.89,4.8,.84-.73,.75-2.49-.38-6.86Z"/>
          <path class="cls-8" d="M-27.12,19.84c.29-.94,1.72-3.64,3.14-6,1.43-2.36,3.69-6.17,4.99-8.44,1.3-2.31,2.98-4.84,3.73-5.61,1.59-1.63,5.58-3.81,10.98-6.08C-2.18-7.2-.25-8.1,.04-8.31c.54-.47,.67-1.33,.21-1.76-.13-.17-.59-.3-.96-.3-.54,0-.71-.39-.71-1.71,0-1.2-.67-3.13-2.18-6.3-1.76-3.73-2.72-5.14-5.41-7.93-2.72-2.87-3.9-3.73-7.42-5.53-5.24-2.61-8.17-3.39-13.04-3.39-2.98,0-3.94,.13-4.4,.69-1.09,1.37,0,2.01,3.65,2.14,4.28,.17,6.79,.73,10.44,2.4,7.25,3.34,11.53,8.06,14.5,15.94,.71,1.89,1.59,3.64,1.93,3.86,.5,.26-.25,.73-2.89,1.76-5.41,2.14-9.26,4.29-10.98,6.08-1.43,1.46-8.59,12.81-11.61,18.38-1.63,2.96-2.72,7.28-2.05,8.14,.29,.34,.8,.6,1.09,.6,.63,0,1.84-2.27,2.68-4.93Z"/>
          <path class="cls-8" d="M-27.12,148.39c.29-.94,1.72-3.64,3.14-6,1.43-2.36,3.69-6.17,4.99-8.44,1.3-2.31,2.98-4.84,3.73-5.61,1.59-1.63,5.58-3.81,10.98-6.08,2.1-.9,4.02-1.8,4.32-2.01,.54-.47,.67-1.33,.21-1.76-.13-.17-.59-.3-.96-.3-.59,0-.71-.39-.71-1.76,0-1.29-.67-3.09-2.35-6.56-2.05-4.24-2.77-5.23-5.74-8.14-5.62-5.48-12.53-8.4-19.95-8.4-2.98,0-3.94,.13-4.4,.69-1.09,1.37,0,2.01,3.65,2.14,4.28,.17,6.79,.73,10.44,2.4,7.25,3.34,11.53,8.06,14.5,15.94,.71,1.89,1.59,3.64,1.93,3.86,.5,.26-.25,.73-2.89,1.76-5.41,2.14-9.26,4.29-10.98,6.08-1.43,1.46-8.59,12.81-11.61,18.38-1.63,2.96-2.72,7.28-2.05,8.14,.29,.34,.8,.6,1.09,.6,.63,0,1.84-2.27,2.68-4.93Z"/>
          <path class="cls-8" d="M-27.12,276.94c.29-.94,1.72-3.64,3.14-6,1.43-2.36,3.69-6.17,4.99-8.44,1.3-2.31,2.98-4.84,3.73-5.61,1.59-1.63,5.58-3.82,10.98-6.09,2.1-.9,4.02-1.8,4.32-2.01,.54-.47,.67-1.33,.21-1.76-.13-.17-.59-.3-.96-.3-.54,0-.71-.39-.71-1.71,0-1.2-.67-3.13-2.18-6.3-1.76-3.73-2.72-5.14-5.41-7.93-2.72-2.87-3.9-3.73-7.42-5.53-5.24-2.61-8.17-3.39-13.04-3.39-2.98,0-3.94,.13-4.4,.69-1.09,1.37,0,2.01,3.65,2.14,4.28,.17,6.79,.73,10.44,2.4,7.25,3.34,11.53,8.05,14.5,15.94,.71,1.88,1.59,3.64,1.93,3.86,.5,.26-.25,.73-2.89,1.76-5.41,2.14-9.26,4.28-10.98,6.09-1.43,1.46-8.59,12.81-11.61,18.38-1.63,2.96-2.72,7.29-2.05,8.14,.29,.34,.8,.6,1.09,.6,.63,0,1.84-2.27,2.68-4.92Z"/>
          <path class="cls-8" d="M-27.12,405.5c.29-.94,1.72-3.64,3.14-6,1.43-2.36,3.69-6.17,4.99-8.44,1.3-2.31,2.98-4.84,3.73-5.62,1.59-1.63,5.58-3.81,10.98-6.08,2.1-.9,4.02-1.8,4.32-2.01,.54-.47,.67-1.33,.21-1.76-.13-.17-.59-.3-.96-.3-.59,0-.71-.39-.71-1.76,0-1.29-.67-3.09-2.35-6.56-2.05-4.24-2.77-5.23-5.74-8.14-5.62-5.48-12.53-8.4-19.95-8.4-2.98,0-3.94,.13-4.4,.69-1.09,1.37,0,2.01,3.65,2.14,4.28,.17,6.79,.73,10.44,2.4,7.25,3.34,11.53,8.05,14.5,15.94,.71,1.88,1.59,3.64,1.93,3.86,.5,.26-.25,.73-2.89,1.76-5.41,2.14-9.26,4.28-10.98,6.08-1.43,1.46-8.59,12.82-11.61,18.38-1.63,2.96-2.72,7.29-2.05,8.14,.29,.34,.8,.6,1.09,.6,.63,0,1.84-2.27,2.68-4.92Z"/>
        </g>
      </g>
    </g>
  </g>
  <g>
    <g>
      <path class="cls-10" d="M156.04,183.34l-28.72-49.74c-1.78-3.08-6.23-3.08-8.01,0l-61.74,106.94h26.48l6.18-10.3c-1.83-4.32-2.84-9.07-2.84-14.06,0-19.95,16.17-36.12,36.12-36.12,9.95,0,18.97,4.03,25.5,10.54l-7.81,8.07c-4.48-4.61-10.75-7.47-17.69-7.47-13.63,0-24.67,11.04-24.67,24.67s11.04,24.67,24.67,24.67c11.83,0,21.72-8.33,24.11-19.45h-28.99l10.56-10.7h18.99v-.1h11.45v5.9c0,4.95-1,9.67-2.8,13.97l6.23,10.39h26.02l-33.02-57.2Z"/>
      <g>
        <path class="cls-11" d="M212.93,146.44c1.07-1.09,2.36-1.92,3.87-2.49,1.52-.57,3.2-.86,5.04-.86,2.09,0,3.99,.4,5.69,1.2,1.7,.8,3.29,2,4.77,3.6l7.75-7.01c-2.09-2.54-4.74-4.49-7.93-5.84-3.2-1.35-6.83-2.03-10.89-2.03-3.49,0-6.69,.54-9.62,1.63-2.93,1.09-5.46,2.64-7.6,4.64-2.13,2.01-3.79,4.38-4.98,7.1-1.19,2.73-1.78,5.73-1.78,9.01s.59,6.28,1.78,9.01c1.19,2.73,2.84,5.1,4.95,7.1,2.11,2.01,4.62,3.56,7.53,4.64,2.91,1.09,6.07,1.63,9.47,1.63,3.12,0,6.29-.47,9.53-1.41,3.24-.94,6.09-2.3,8.55-4.06v-17.84h-10.76v11.81c-.43,.2-.86,.37-1.29,.52-1.72,.59-3.49,.89-5.29,.89s-3.45-.3-4.95-.89c-1.5-.59-2.78-1.43-3.84-2.52-1.07-1.09-1.9-2.39-2.49-3.91-.59-1.52-.89-3.18-.89-4.98s.3-3.58,.89-5.07c.59-1.5,1.42-2.79,2.49-3.87Z"/>
        <path class="cls-11" d="M279.4,151.28c-1.6-2.58-3.82-4.6-6.67-6.06s-6.1-2.18-9.75-2.18-6.88,.73-9.71,2.18c-2.83,1.46-5.06,3.48-6.67,6.06-1.62,2.58-2.43,5.56-2.43,8.91s.81,6.35,2.43,8.95c1.61,2.61,3.84,4.65,6.67,6.12,2.83,1.48,6.06,2.22,9.71,2.22s6.89-.74,9.75-2.22c2.85-1.47,5.07-3.51,6.67-6.12,1.6-2.6,2.41-5.58,2.41-8.95s-.81-6.33-2.41-8.91Zm-10.32,13.26c-.62,1.21-1.44,2.11-2.5,2.74-1.05,.61-2.24,.92-3.59,.92s-2.49-.31-3.54-.92c-1.05-.62-1.89-1.53-2.53-2.74-.63-1.21-.95-2.65-.95-4.35s.32-3.1,.95-4.27c.63-1.16,1.48-2.06,2.53-2.67,1.05-.62,2.22-.93,3.54-.93s2.55,.31,3.59,.93c1.06,.61,1.88,1.5,2.5,2.67,.61,1.17,.92,2.6,.92,4.27s-.31,3.14-.92,4.35Z"/>
        <path class="cls-11" d="M310.59,159.63c0,1.84-.29,3.35-.86,4.52-.57,1.17-1.33,2.02-2.28,2.55-.94,.53-1.99,.8-3.14,.8-1.76,0-3.13-.55-4.09-1.66-.96-1.11-1.45-2.95-1.45-5.53v-16.73h-11.69v18.63c0,3.49,.6,6.37,1.81,8.64,1.21,2.28,2.89,3.95,5.04,5.01,2.15,1.07,4.58,1.6,7.29,1.6,2.54,0,4.9-.6,7.07-1.81,1.07-.59,2.01-1.34,2.83-2.24v3.5h11.13v-33.33h-11.69v16.05Z"/>
        <path class="cls-11" d="M340.91,147.61v-4.02h-11.13v33.33h11.69v-15.31c0-2.91,.74-5.01,2.21-6.3,1.48-1.29,3.4-1.94,5.78-1.94,.45,0,.87,.01,1.26,.03,.39,.02,.85,.07,1.38,.15v-10.52c-3.16,0-5.84,.63-8.06,1.88-1.24,.7-2.28,1.61-3.14,2.7Z"/>
        <path class="cls-11" d="M357.57,138.11c1.31,1.19,3.03,1.78,5.17,1.78s3.91-.6,5.2-1.81c1.29-1.21,1.94-2.74,1.94-4.58s-.66-3.21-1.97-4.34c-1.31-1.13-3.03-1.69-5.17-1.69s-3.85,.59-5.17,1.78c-1.31,1.19-1.97,2.67-1.97,4.43s.66,3.24,1.97,4.43Z"/>
        <rect class="cls-11" x="356.9" y="143.58" width="11.69" height="33.33"/>
      </g>
      <g>
        <path class="cls-11" d="M228.25,188.83h-12l-19,43.06h12.43l3.36-8.36h18.25l3.36,8.36h12.67l-19.06-43.06Zm-11.62,25.71l5.52-13.76,5.53,13.76h-11.05Z"/>
        <path class="cls-11" d="M263.17,208.2c1.11-.61,2.34-.92,3.69-.92s2.6,.36,3.75,1.08c1.15,.72,2.11,1.86,2.89,3.41l9.04-4.61c-1.15-2.91-3.1-5.17-5.84-6.76-2.75-1.6-6.01-2.4-9.78-2.4s-6.98,.73-9.87,2.18c-2.89,1.46-5.16,3.47-6.8,6.06-1.64,2.58-2.46,5.56-2.46,8.92s.82,6.35,2.46,8.95c1.64,2.6,3.91,4.64,6.8,6.12,2.89,1.48,6.18,2.21,9.87,2.21s7.03-.8,9.78-2.4c2.75-1.6,4.69-3.85,5.84-6.77l-9.04-4.61c-.78,1.56-1.74,2.7-2.89,3.41-1.15,.72-2.4,1.08-3.75,1.08s-2.58-.31-3.69-.92-1.98-1.52-2.61-2.71c-.64-1.19-.95-2.64-.95-4.37s.32-3.11,.95-4.27c.64-1.17,1.51-2.06,2.61-2.68Z"/>
        <path class="cls-11" d="M315.79,201.72c-2.97-2.48-7.16-3.72-12.58-3.72-2.63,0-5.26,.34-7.9,1.02-2.64,.67-4.91,1.63-6.8,2.85l3.93,7.94c1.15-.9,2.55-1.61,4.18-2.13,1.64-.51,3.26-.76,4.86-.76,2.47,0,4.25,.51,5.38,1.5,1.03,.92,1.59,2.17,1.68,3.78h-6.62c-3.44,0-6.26,.4-8.43,1.2s-3.78,1.95-4.83,3.44c-1.05,1.5-1.56,3.28-1.56,5.32,0,1.94,.48,3.68,1.44,5.23,.96,1.56,2.37,2.8,4.22,3.7,1.84,.89,4.1,1.35,6.76,1.35,2.9,0,5.25-.59,7.03-1.75,1.2-.79,2.13-1.83,2.8-3.14v4.33h10.89v-18.51c0-5.3-1.48-9.18-4.45-11.66Zm-7.23,19.47c-.48,1.3-1.26,2.28-2.3,2.91-1.05,.65-2.21,.96-3.48,.96-1.35,0-2.42-.32-3.19-.93-.79-.61-1.17-1.43-1.17-2.45s.39-1.86,1.14-2.47c.76-.61,2.08-.93,3.97-.93h5.04v2.9Z"/>
        <path class="cls-11" d="M351.06,186.25v15.16c-.59-.6-1.23-1.13-1.94-1.56-2-1.23-4.42-1.86-7.29-1.86-3.03,0-5.79,.7-8.27,2.09-2.48,1.4-4.46,3.38-5.93,5.94-1.48,2.56-2.22,5.6-2.22,9.13s.74,6.64,2.22,9.2c1.47,2.57,3.45,4.56,5.93,5.97,2.48,1.42,5.24,2.13,8.27,2.13s5.47-.61,7.45-1.84c.88-.55,1.66-1.24,2.34-2.06v3.35h11.13v-45.64h-11.69Zm-.74,33.25c-.61,1.21-1.44,2.11-2.49,2.74-1.05,.61-2.23,.92-3.54,.92s-2.56-.31-3.61-.92c-1.05-.62-1.87-1.53-2.49-2.74-.61-1.21-.92-2.65-.92-4.35s.31-3.1,.92-4.27c.62-1.16,1.44-2.06,2.49-2.67,1.05-.62,2.25-.93,3.61-.93s2.49,.31,3.54,.93c1.05,.61,1.88,1.5,2.49,2.67,.61,1.17,.92,2.6,.92,4.27s-.31,3.14-.92,4.35Z"/>
        <path class="cls-11" d="M400.63,205.87c-1.61-2.58-3.76-4.55-6.46-5.87-2.71-1.34-5.71-2.01-8.98-2.01-3.49,0-6.62,.73-9.41,2.18s-4.97,3.49-6.55,6.1c-1.57,2.6-2.36,5.57-2.36,8.88s.81,6.28,2.43,8.89c1.61,2.61,3.89,4.65,6.82,6.15,2.92,1.49,6.37,2.24,10.3,2.24,3.19,0,5.97-.46,8.3-1.39,2.34-.92,4.3-2.27,5.91-4.03l-6.15-6.4c-1.15,.99-2.3,1.71-3.48,2.18-1.16,.48-2.57,.72-4.22,.72-1.76,0-3.28-.32-4.55-.96-1.27-.63-2.24-1.54-2.92-2.74-.29-.51-.51-1.07-.67-1.66h24.19c.04-.45,.08-.94,.13-1.48,.04-.53,.06-1,.06-1.41,0-3.69-.8-6.82-2.4-9.41Zm-22.17,6.14c.14-.79,.36-1.52,.7-2.18,.58-1.13,1.39-2,2.43-2.61,1.05-.61,2.27-.93,3.65-.93s2.62,.32,3.66,.93c1.05,.61,1.87,1.48,2.45,2.58,.36,.66,.59,1.41,.72,2.21h-13.62Z"/>
        <path class="cls-11" d="M458.78,199.56c-2.03-1.05-4.34-1.57-6.92-1.57-3.12,0-5.87,.77-8.27,2.31-1.27,.82-2.37,1.8-3.3,2.94-.76-1.19-1.71-2.17-2.85-2.94-2.28-1.54-4.91-2.31-7.9-2.31-2.62,0-5,.61-7.13,1.81-1.05,.6-2,1.34-2.83,2.22v-3.48h-11.13v33.33h11.69v-16.54c0-1.72,.26-3.13,.77-4.21,.51-1.09,1.21-1.9,2.09-2.43,.88-.53,1.9-.8,3.04-.8,1.6,0,2.84,.54,3.72,1.63,.88,1.09,1.32,2.82,1.32,5.2v17.16h11.68v-16.54c0-1.72,.25-3.13,.74-4.21,.49-1.09,1.19-1.9,2.09-2.43,.9-.53,1.91-.8,3.01-.8,1.56,0,2.79,.54,3.69,1.63,.9,1.09,1.35,2.82,1.35,5.2v17.16h11.69v-19.07c0-3.44-.58-6.25-1.75-8.43-1.17-2.17-2.77-3.78-4.8-4.83Z"/>
        <path class="cls-11" d="M496.38,198.55l-8.24,20.37-8.18-20.37h-11.99l14.28,33.76c-.45,.86-.97,1.52-1.55,1.97-.74,.57-1.74,.86-3.01,.86-.9,0-1.81-.18-2.74-.52-.92-.35-1.73-.83-2.43-1.45l-4.06,8.18c1.11,.9,2.55,1.63,4.34,2.18s3.56,.83,5.32,.83c2.21,0,4.23-.33,6.06-.98,1.82-.66,3.48-1.79,4.98-3.41,1.5-1.62,2.82-3.86,3.97-6.73l14.39-34.69h-11.13Z"/>
      </g>
    </g>
    <text class="cls-3" transform="translate(191.36 265.57)"><tspan class="cls-9" x="0" y="0">F</tspan><tspan x="20.77" y="0">or </tspan><tspan class="cls-5" x="66.89" y="0">E</tspan><tspan class="cls-2" x="88.95" y="0">x</tspan><tspan class="cls-4" x="108.86" y="0">c</tspan><tspan x="128.65" y="0">elle</tspan><tspan class="cls-12" x="191.35" y="0">n</tspan><tspan class="cls-4" x="214.53" y="0">c</tspan><tspan x="234.31" y="0">e</tspan></text>
  </g>
</svg>