<?xml version="1.0" encoding="UTF-8"?>
<svg id="Layer_1" data-name="Layer 1" xmlns="http://www.w3.org/2000/svg" viewBox="0 0 567.86 295.8">
  <defs>
    <style>
      .cls-1 {
        fill: #e20613;
      }

      .cls-1, .cls-2, .cls-3 {
        fill-rule: evenodd;
      }

      .cls-4, .cls-2 {
        fill: #312782;
      }

      .cls-3 {
        fill: #1d1d1b;
      }

      .cls-5 {
        fill: #aec90b;
      }
    </style>
  </defs>
  <g>
    <path class="cls-2" d="M126.53,97.83c-11.22-11.23-26.71-18.17-43.82-18.17s-32.63,6.94-43.85,18.14c-11.22,11.23-18.18,26.75-18.18,43.86s6.96,32.63,18.18,43.83c11.22,11.22,26.71,18.16,43.85,18.16s32.6-6.94,43.82-18.16c11.24-11.2,18.18-26.72,18.18-43.83s-6.94-32.63-18.18-43.83Zm-2.55,85.13c-10.57,10.56-25.15,17.1-41.27,17.1s-30.72-6.54-41.3-17.1c-10.56-10.57-17.11-25.17-17.11-41.3s6.55-30.74,17.11-41.3,25.17-17.08,41.3-17.08,30.7,6.51,41.27,17.08c10.57,10.56,17.12,25.16,17.12,41.3s-6.55,30.72-17.12,41.3Z"/>
    <path class="cls-1" d="M105.45,118.54h-36.68c-8.58,1.3-9.33,4.53-10.18,8.49v21.57h34.79c7.99-.2,10.23-4.06,9.47-8.72h-7.81v-12.85h24.38c-.63,17.64-3.39,31.24-21.3,35.11H45.33v-37.41c1.37-7.94,3.67-16.35,20.12-19.51h40c-2.75,4.88-3.22,8.89,0,13.31Z"/>
    <path class="cls-1" d="M117.77,168.4l-2.89,3.72-2.88-3.72h-2.61l4.37,5.36v4.33h1.96v-4.39l4.35-5.3h-2.3Zm-18.45,0v1.72h3.87v7.97h1.94v-7.97h3.87v-1.72h-9.69Zm-4.34,0v9.69h1.94v-9.69h-1.94Zm-4.23,0l-3.24,7.02-3.39-7.02h-2.23l4.85,9.69h1.35l4.63-9.69h-1.96Zm-13.78,0h-1.88l-4.76,9.69h1.96l.98-2.12h5.31l1.01,2.12h2.2l-4.82-9.69Zm-2.88,5.83l1.88-3.95,1.8,3.95h-3.68Zm-8.5,.21h1.1c.43,0,.78-.06,1.06-.2,.29-.11,.49-.33,.63-.59,.13-.28,.2-.64,.2-1.09v-2.28c0-.45-.08-.81-.2-1.09-.14-.29-.34-.49-.63-.59-.28-.15-.63-.2-1.06-.2h-7.19v9.69h1.92v-3.65h1.85l3.39,3.65h2.78l-3.85-3.65Zm-4.18-1.67v-2.71h4.39c.19,0,.37,.01,.52,.05,.11,.06,.2,.14,.28,.24,.06,.11,.09,.26,.09,.49v1.17c0,.2-.03,.37-.09,.47-.08,.13-.16,.19-.28,.24-.15,.04-.33,.05-.52,.05h-4.39Zm-6.04-1.94v-.24c0-.43-.05-.78-.11-1.07-.08-.29-.2-.5-.37-.67-.16-.16-.38-.29-.66-.37-.25-.05-.58-.09-.96-.09h-5.8c-.37,0-.72,.04-.97,.1-.28,.09-.49,.19-.66,.38-.16,.15-.26,.39-.34,.68-.08,.3-.11,.69-.11,1.15v5.1c0,.44,.04,.83,.11,1.14,.08,.29,.18,.53,.34,.69,.16,.18,.38,.29,.66,.35,.25,.08,.61,.1,.97,.1h5.8c.4,0,.72-.03,1-.1,.25-.06,.47-.18,.64-.35,.15-.16,.26-.4,.34-.69,.06-.3,.11-.69,.11-1.14v-3.34h-5.11v1.64h3.19v2.16h-6.11v-6.14h6.11v1.12l1.92-.4Z"/>
    <path class="cls-1" d="M112.47,105.46c3.77,0,6.83,2.99,6.83,6.68s-3.06,6.68-6.83,6.68-6.83-2.99-6.83-6.68,3.06-6.68,6.83-6.68Z"/>
    <path class="cls-3" d="M147.27,92.97l-2.3,6.65c-.23,.68-.4,1.17-.5,1.53-.11-.3-.25-.78-.45-1.43l-2.26-6.75h-1.92v9.55h1.22v-8.14l2.75,8.14h1.15l2.79-7.99v7.99h1.22v-9.55h-1.7Zm-16.28,0v1.12h3.15v8.43h1.27v-8.43h3.15v-1.12h-7.58Z"/>
  </g>
  <g>
    <g>
      <path class="cls-2" d="M511.46,180.83v6.16c0,2.26,.06,4.01,.2,5.21l-.25-.54c-.19-.35-.5-.97-1-1.84-.47-.87-1.03-1.82-1.65-2.83l-3.73-6.16h-3.29v14.79h2.9v-6.17c0-2.13-.09-3.9-.25-5.29l.29,.61c.16,.4,.5,1.03,.98,1.93,.49,.88,1.03,1.8,1.64,2.78l3.79,6.14h3.32v-14.79h-2.94Zm-14.35,1.8c-1.32-1.38-3.09-2.06-5.36-2.06s-4.02,.68-5.35,2.07c-1.34,1.39-1.98,3.24-1.98,5.53s.66,4.13,2.01,5.5c1.32,1.4,3.12,2.09,5.35,2.09s4-.69,5.34-2.09c1.32-1.38,2.01-3.2,2.01-5.5s-.66-4.15-2.01-5.54Zm-2.23,9.25c-.77,.88-1.8,1.34-3.1,1.34s-2.32-.45-3.1-1.36c-.76-.9-1.15-2.13-1.15-3.68s.38-2.8,1.14-3.71c.77-.91,1.79-1.36,3.09-1.36s2.36,.45,3.13,1.36c.74,.91,1.11,2.13,1.11,3.71s-.37,2.8-1.11,3.71Zm-16.18-11.05v14.79h2.91v-14.79h-2.91Zm-13.2,0v2.27h3.94v12.52h2.94v-12.52h3.94v-2.27h-10.81Zm-6.49,0h-3.77l-5.25,14.79h3.04l1.1-3.37h5.89l1.1,3.37h3.14l-5.25-14.79Zm-4.11,9.16l.2-.63c1.19-3.6,1.84-5.74,1.98-6.47l.1,.44c.06,.29,.29,.96,.62,2.03,.32,1.07,.76,2.41,1.26,3.99l.23,.64h-4.39Zm-8.77-7.13c-1.45-1.35-3.36-2.03-5.68-2.03h-5.1v14.79h5.1c2.41,0,4.33-.72,5.77-2.11,1.43-1.4,2.16-3.23,2.16-5.49,0-2.07-.74-3.8-2.25-5.16Zm-2.02,9.02c-.86,.95-2.08,1.43-3.71,1.43h-2.06v-10.16h2.02c1.53,0,2.76,.47,3.67,1.36,.9,.93,1.34,2.08,1.34,3.51,0,1.61-.42,2.89-1.26,3.86Zm-14.89-11.05v6.16c0,2.26,.06,4.01,.18,5.21l-.24-.54c-.19-.35-.5-.97-.98-1.84-.49-.87-1.03-1.82-1.65-2.83l-3.75-6.16h-3.31v14.79h2.91v-6.17c0-2.13-.08-3.9-.25-5.29l.28,.61c.18,.4,.52,1.03,1,1.93,.49,.88,1.03,1.8,1.63,2.78l3.79,6.14h3.33v-14.79h-2.93Zm-15.78,0v9.13c0,2.21-1.07,3.29-3.19,3.29-.95,0-1.7-.24-2.28-.74-.59-.52-.88-1.32-.88-2.45v-9.24h-2.9v9.25c0,1.85,.54,3.28,1.64,4.24,1.11,1.01,2.59,1.5,4.43,1.5s3.37-.52,4.45-1.51c1.09-1,1.63-2.46,1.63-4.38v-9.1h-2.89Zm-13.78,1.8c-1.32-1.38-3.12-2.06-5.36-2.06s-4.02,.68-5.35,2.07c-1.34,1.39-1.99,3.24-1.99,5.53s.67,4.13,1.99,5.5c1.34,1.4,3.13,2.09,5.36,2.09s4.01-.69,5.35-2.09c1.32-1.38,1.99-3.2,1.99-5.5s-.67-4.15-1.99-5.54Zm-2.26,9.25c-.74,.88-1.78,1.34-3.09,1.34s-2.32-.45-3.1-1.36c-.76-.9-1.14-2.13-1.14-3.68s.35-2.8,1.12-3.71c.76-.91,1.78-1.36,3.1-1.36s2.36,.45,3.1,1.36c.74,.91,1.14,2.13,1.14,3.71s-.39,2.8-1.14,3.71Zm-12.23-8.79v-2.26h-9.14v14.79h2.93v-5.92h5.41v-2.25h-5.41v-4.37h6.21Zm-35.35,10.06v-12.31h-2.91v14.79h9v-2.47h-6.08Zm-10.42-12.31h-3.75l-5.27,14.79h3.04l1.11-3.37h5.89l1.11,3.37h3.15l-5.29-14.79Zm-4.11,9.16l.21-.63c1.19-3.6,1.85-5.74,1.98-6.47l.11,.44c.06,.29,.26,.96,.59,2.03,.35,1.07,.76,2.41,1.29,3.99l.2,.64h-4.39Zm-10.4,3.24c-1.51,0-2.75-.45-3.68-1.35-.95-.91-1.43-2.12-1.43-3.67s.48-2.75,1.43-3.68c.93-.9,2.12-1.35,3.53-1.35s2.71,.33,3.87,.96v-2.7c-.93-.54-2.27-.81-3.99-.81-2.33,0-4.25,.69-5.73,2.12-1.49,1.41-2.22,3.24-2.22,5.46s.73,4.13,2.25,5.5c1.5,1.38,3.41,2.08,5.7,2.08,1.73,0,3.07-.3,4.04-.9v-2.75c-1.03,.73-2.3,1.09-3.77,1.09Zm-13.93-12.4v14.79h2.91v-14.79h-2.91Zm-4.98,2.03c-1.49-1.35-3.37-2.03-5.72-2.03h-5.07v14.79h5.07c2.44,0,4.35-.72,5.79-2.11,1.43-1.4,2.13-3.23,2.13-5.49,0-2.07-.74-3.8-2.21-5.16Zm-2.03,9.02c-.85,.95-2.08,1.43-3.71,1.43h-2.07v-10.16h2.01c1.56,0,2.79,.47,3.68,1.36,.91,.93,1.36,2.08,1.36,3.51,0,1.61-.43,2.89-1.27,3.86Zm-18.02,1.48v-4.01h5.56v-2.26h-5.56v-4h6.27v-2.26h-9.2v14.79h9.29v-2.26h-6.36Zm-7.39-12.53h-3.34l-2.17,5.37c-.83,2.06-1.5,3.87-1.97,5.39l-.23-.68c-.13-.43-.37-1.1-.69-2.01-.32-.88-.66-1.79-1.03-2.7l-2.12-5.37h-3.33l-1.24,14.79h2.9l.48-5.78c.2-2.7,.29-4.39,.29-5.11l1.83,5.11,2.12,5.55h1.97l2.18-5.55c.78-1.94,1.44-3.67,1.99-5.17l.42,5.17,.54,5.78h2.91l-1.51-14.79Zm-43.08,12.53v-4.01h5.56v-2.26h-5.56v-4h6.25v-2.26h-9.16v14.79h9.29v-2.26h-6.37Zm-12.19,0v-4.01h5.58v-2.26h-5.58v-4h6.27v-2.26h-9.2v14.79h9.27v-2.26h-6.35Zm-8.98-12.5v10.55c0,1.2-.58,1.8-1.78,1.8-.63,0-1.25-.19-1.84-.53v2.5c.61,.32,1.4,.45,2.38,.45,1.3,0,2.31-.35,3.04-1.07,.73-.73,1.12-1.78,1.12-3.15v-10.55h-2.93Zm-11.32,7.85v2.21h5.88v-2.21h-5.88Zm-12.55-7.87v2.27h3.95v12.52h2.94v-12.52h3.95v-2.27h-10.84Zm-5.31,0v14.79h2.91v-14.79h-2.91Zm-6.51,0v14.79h2.93v-14.79h-2.93Z"/>
      <path class="cls-1" d="M364.01,180.83v14.79h2.9v-14.79h-2.9Zm-113.37,0v14.79h2.91v-14.79h-2.91Z"/>
    </g>
    <path class="cls-1" d="M323.27,100.96l-6.35,9.8-5.77-9.8h-6.61v2.23l8.53,14.03v14.7h6.55v-14.99l10.66-15.97h-7.02Zm-20.07,0h-22.75v6.47h8.79v24.49h6.57v-24.49h8.73v-4.24l-1.35-2.23Zm-32.62,0v30.96h6.61v-30.96h-6.61Zm-8.76,0l-6.59,16.95-6.5-16.95h-6.98l13.03,32.15h.44l13.05-32.15h-6.46Zm-29.31-.96h-.42l-13.39,30.34,1.01,1.58h4.92l1.78-4.52h11.22l1.75,4.52h6.9l-13.78-31.92Zm-4.18,22.08l3.67-9.69,3.6,9.69h-7.27Zm-17.06-3.46c1.68-.83,2.94-1.98,3.84-3.44,.88-1.46,1.32-3.18,1.32-5.14,0-1.34-.28-2.62-.83-3.84-.59-1.22-1.39-2.26-2.4-3.07-.98-.79-2.08-1.35-3.34-1.69-1.25-.32-3-.49-5.29-.49h-7.1v30.96h6.4v-12.15h.95l7.38,12.15h5.82l.69-1.58-7.43-11.72Zm-2.21-4.59c-.86,.77-2.13,1.15-3.8,1.15h-1.4v-8.58h1.1c1.92,0,3.29,.33,4.14,1,.85,.66,1.29,1.72,1.29,3.19s-.44,2.5-1.32,3.24Zm-28.81,.72v6.28h5.24v4.49c-.64,.23-1.25,.39-1.82,.5-.59,.13-1.19,.18-1.75,.18-2.46,0-4.49-.93-6.04-2.8-1.58-1.85-2.36-4.24-2.36-7.18,0-2.79,.82-5.11,2.44-6.98,1.63-1.85,3.67-2.76,6.14-2.76,1.4,0,2.73,.32,4,1.01,1.27,.67,2.55,1.72,3.82,3.17l.71-7.75c-1.35-1-2.78-1.77-4.24-2.26-1.48-.5-3.03-.74-4.63-.74-4.33,0-7.87,1.56-10.71,4.71-2.8,3.12-4.2,7.08-4.2,11.86s1.39,8.67,4.15,11.78c2.78,3.12,6.28,4.67,10.49,4.67,1.65,0,3.34-.26,5.11-.78,1.75-.53,3.55-1.31,5.41-2.36v-15.04h-11.75Z"/>
    <path class="cls-2" d="M519.29,100.96l-6.36,9.8-5.77-9.8h-7.96l9.85,16.26v14.7h6.57v-14.99l10.64-15.97h-6.98Zm-25.34-1.01h-.52l-9.82,20.16-10.42-20.16h-.48l-5.74,31.97h5.88l2.44-14.36,7.95,15.49h.44l7.42-15.27,2.33,14.13h6.27l-5.75-31.97Zm-40.5,25.46v-6.12h9.1v-6.35h-9.1v-5.6h10.61v-6.38h-17.01v30.96h17.16v-6.51h-10.76Zm-15.38-20.3c-2.91-2.76-6.95-4.15-12.11-4.15h-7.33v30.96h7.33c2.18,0,4.04-.16,5.51-.54,1.51-.35,2.89-.95,4.16-1.78,2.23-1.44,3.94-3.28,5.08-5.5,1.14-2.23,1.72-4.78,1.72-7.66,0-4.79-1.44-8.58-4.37-11.33Zm-4.73,17.82c-1.63,1.56-3.87,2.35-6.75,2.35h-1.46v-17.7h1.46c2.88,0,5.12,.78,6.75,2.37,1.63,1.58,2.44,3.73,2.44,6.5s-.81,4.92-2.44,6.49Zm-30.56-22.93h-.42l-14.11,31.92h6.65l1.79-4.52h11.22l1.73,4.52h6.91l-13.78-31.92Zm-4.16,22.08l3.66-9.69,3.58,9.69h-7.24Zm-15.91,2.84c-1.38,.64-2.76,.97-4.16,.97-2.37,0-4.28-.9-5.77-2.64-1.46-1.77-2.18-4.06-2.18-6.89s.72-5.16,2.22-6.96c1.48-1.8,3.39-2.7,5.72-2.7,1.36,0,2.65,.33,3.87,.98,1.22,.68,2.42,1.7,3.63,3.08l.68-7.94c-1.26-.97-2.6-1.72-4.02-2.18-1.41-.49-2.9-.73-4.43-.73-1.97,0-3.84,.4-5.59,1.22-1.78,.83-3.32,1.98-4.68,3.53-1.32,1.54-2.35,3.31-3.04,5.32-.69,1.99-1.03,4.16-1.03,6.45,0,2.65,.47,5.11,1.41,7.38,.95,2.25,2.3,4.16,4.08,5.73,1.26,1.1,2.64,1.97,4.14,2.52,1.49,.58,3.04,.86,4.67,.86,1.5,0,2.97-.24,4.38-.72,1.39-.44,2.67-1.14,3.87-2.03l.42-8.23c-1.38,1.31-2.76,2.28-4.18,2.97Zm-32.93-24.92h-.42l-14.09,31.92h6.64l1.8-4.52h11.2l1.75,4.52h6.89l-13.78-31.92Zm-4.18,22.08l3.68-9.69,3.58,9.69h-7.27Z"/>
    <path class="cls-1" d="M457.37,153.3h-5.3v2.12h3.05v4.42c-.79,.35-1.63,.52-2.52,.52-1.7,0-3.04-.52-4.01-1.59-.97-1.05-1.44-2.51-1.44-4.33s.49-3.24,1.48-4.33c.96-1.09,2.26-1.64,3.85-1.64s2.99,.43,4.26,1.29v-2.52c-1.16-.71-2.61-1.05-4.33-1.05-2.25,0-4.08,.76-5.5,2.28-1.45,1.53-2.17,3.51-2.17,5.97s.72,4.53,2.16,5.99c1.4,1.48,3.29,2.21,5.63,2.21,1.94,0,3.55-.5,4.85-1.5l-.04-.16h.04v-7.67Zm-17.54-6.84v6.71c0,2.78,.03,4.9,.11,6.33l-.3-.68c-.2-.4-.58-1.15-1.14-2.22-.58-1.05-1.19-2.22-1.85-3.46l-3.68-6.69h-2.7v15.99h2.28v-6.69c0-2.66-.08-4.81-.18-6.38l.33,.68c.21,.48,.61,1.25,1.15,2.32,.57,1.07,1.19,2.2,1.84,3.42l3.71,6.65h2.7v-15.99h-2.27Zm-15.25,0v15.99h2.27v-15.99h-2.27Zm-5.69,0v6.71c0,2.78,.04,4.9,.11,6.33l-.3-.68c-.19-.4-.58-1.15-1.14-2.22-.54-1.05-1.17-2.22-1.85-3.46l-3.68-6.69h-2.69v15.99h2.28v-6.69c0-2.66-.08-4.81-.19-6.38l.33,.68c.21,.48,.62,1.25,1.17,2.32,.56,1.07,1.17,2.2,1.82,3.42l3.71,6.65h2.71v-15.99h-2.28Zm-15.57,9.53c.92-.34,1.63-.91,2.16-1.69,.5-.78,.78-1.73,.79-2.86,0-1.53-.47-2.75-1.4-3.63-.93-.9-2.26-1.34-3.96-1.34h-4.18v15.99h2.28v-6.08h1.98l3.5,6.08h2.71l-3.89-6.46Zm-2.26-1.65h-2.04v-5.84h1.94c1.99,0,2.99,.97,2.99,2.93,0,.9-.24,1.59-.73,2.12-.49,.52-1.19,.79-2.16,.79Zm-11.75-7.87h-2.98l-5.16,15.99h2.41l1.19-3.92h6.04l1.17,3.92h2.42l-5.1-15.99Zm-3.94,10.03l.26-.82c1.29-4.16,2.02-6.64,2.17-7.37l.11,.44c.08,.32,.29,1.07,.63,2.3,.37,1.22,.82,2.76,1.38,4.63l.25,.82h-4.81Zm-12.4,3.92v-4.95h5.51v-2.03h-5.51v-4.95h6.23v-2.03h-8.53v15.99h8.64v-2.03h-6.35Zm-10.65-.13v-13.83h-2.28v15.99h8.42v-2.16h-6.13Zm-10.23-11.8v-2.03h-8.45v15.99h2.28v-6.65h5.43v-2.06h-5.43v-5.25h6.17Zm-12.95-.1c-1.22-1.51-2.9-2.26-5.02-2.26s-3.76,.77-5.01,2.27c-1.22,1.5-1.85,3.48-1.85,5.97s.63,4.52,1.87,6.01c1.26,1.49,2.93,2.26,5.01,2.26s3.77-.77,5.01-2.26c1.24-1.49,1.84-3.5,1.84-6.01s-.61-4.5-1.84-5.98Zm-1.73,10.37c-.77,1.07-1.89,1.59-3.28,1.59s-2.45-.54-3.26-1.6c-.82-1.07-1.22-2.54-1.22-4.38s.4-3.28,1.19-4.35c.79-1.07,1.88-1.59,3.28-1.59s2.5,.52,3.27,1.59c.81,1.06,1.21,2.5,1.21,4.35s-.4,3.34-1.19,4.39Zm-20.54-12.3v6.71c0,2.78,.05,4.9,.14,6.33l-.32-.68c-.2-.4-.57-1.15-1.15-2.22-.54-1.05-1.15-2.22-1.83-3.46l-3.68-6.69h-2.7v15.99h2.27v-6.69c0-2.66-.06-4.81-.18-6.38l.33,.68c.24,.48,.62,1.25,1.17,2.32,.54,1.07,1.16,2.2,1.82,3.42l3.72,6.65h2.7v-15.99h-2.3Zm-14.02,1.93c-1.24-1.51-2.93-2.26-5.05-2.26s-3.75,.77-4.98,2.27c-1.26,1.5-1.87,3.48-1.87,5.97s.61,4.52,1.87,6.01c1.25,1.49,2.91,2.26,5.01,2.26s3.76-.77,5-2.26c1.22-1.49,1.85-3.5,1.85-6.01s-.63-4.5-1.83-5.98Zm-1.75,10.37c-.78,1.07-1.87,1.59-3.27,1.59s-2.45-.54-3.27-1.6c-.81-1.07-1.22-2.54-1.22-4.38s.42-3.28,1.19-4.35c.81-1.07,1.89-1.59,3.28-1.59s2.5,.52,3.29,1.59c.78,1.06,1.19,2.5,1.19,4.35s-.4,3.34-1.19,4.39Zm-15.22-12.3v15.99h2.25v-15.99h-2.25Zm-3.22,9.85c-.21-.5-.54-.96-1-1.32-.44-.38-.85-.67-1.19-.87-.34-.19-.83-.45-1.46-.74-.95-.43-1.64-.86-2.12-1.24-.44-.37-.68-.88-.68-1.5s.24-1.14,.71-1.54c.47-.38,1.11-.58,1.92-.58,1.25,0,2.38,.33,3.37,1v-2.41c-.93-.5-2.11-.77-3.44-.77-1.46,0-2.66,.42-3.58,1.19-.92,.81-1.38,1.87-1.38,3.23,0,.39,.05,.76,.14,1.1,.1,.34,.2,.63,.32,.9,.1,.25,.29,.5,.54,.76s.47,.45,.63,.59,.44,.3,.78,.52c.35,.21,.62,.37,.78,.43,.14,.08,.4,.23,.79,.4,.64,.33,1.14,.56,1.46,.74,.34,.18,.64,.45,.91,.81,.29,.38,.42,.74,.42,1.19,0,.71-.24,1.26-.71,1.67-.47,.39-1.11,.59-1.93,.59-1.53,0-2.89-.45-4.05-1.39v2.52c1.07,.71,2.42,1.02,4.08,1.02,1.49,0,2.69-.39,3.61-1.19,.95-.82,1.41-1.92,1.41-3.34,0-.64-.1-1.24-.33-1.75Zm-11.56,0c-.2-.5-.54-.96-1-1.32-.45-.38-.86-.67-1.21-.87-.34-.19-.83-.45-1.44-.74-.93-.43-1.65-.86-2.11-1.24-.45-.37-.68-.88-.68-1.5s.23-1.14,.68-1.54c.48-.38,1.11-.58,1.92-.58,1.27,0,2.4,.33,3.38,1v-2.41c-.95-.5-2.09-.77-3.43-.77-1.46,0-2.66,.42-3.58,1.19-.93,.81-1.38,1.87-1.38,3.23,0,.39,.04,.76,.14,1.1,.09,.34,.2,.63,.3,.9,.13,.25,.29,.5,.54,.76,.26,.25,.47,.45,.64,.59,.16,.14,.42,.3,.78,.52,.37,.21,.62,.37,.76,.43,.16,.08,.43,.23,.81,.4,.66,.33,1.15,.56,1.48,.74,.33,.18,.62,.45,.91,.81,.26,.38,.42,.74,.42,1.19,0,.71-.24,1.26-.71,1.67-.47,.39-1.12,.59-1.94,.59-1.53,0-2.88-.45-4.05-1.39v2.52c1.09,.71,2.44,1.02,4.09,1.02,1.48,0,2.67-.39,3.61-1.19,.92-.82,1.4-1.92,1.4-3.34,0-.64-.11-1.24-.33-1.75Zm-15.94-9.85h-2.99l-5.17,15.99h2.41l1.2-3.92h6.04l1.17,3.92h2.45l-5.11-15.99Zm-3.92,10.03l.24-.82c1.29-4.16,2.02-6.64,2.17-7.37l.13,.44c.06,.32,.28,1.07,.64,2.3,.34,1.22,.81,2.76,1.38,4.63l.24,.82h-4.79Zm-7.14-8.58c-1.01-.97-2.36-1.45-4.08-1.45h-4.28v15.99h2.28v-5.67h2.13c1.6,0,2.91-.48,3.92-1.43,1.01-.96,1.53-2.18,1.53-3.71s-.52-2.76-1.51-3.73Zm-1.65,5.99c-.57,.58-1.39,.85-2.47,.85h-1.94v-6.28h1.91c1.09,0,1.92,.28,2.5,.86,.58,.58,.87,1.36,.87,2.32s-.29,1.69-.86,2.26Z"/>
    <rect class="cls-4" x="204.22" y="146.93" width="19.32" height="3.62"/>
    <rect class="cls-4" x="204.22" y="152.51" width="19.32" height="3.62"/>
    <rect class="cls-4" x="204.22" y="158.19" width="19.32" height="3.62"/>
    <rect class="cls-4" x="469.58" y="146.93" width="19.32" height="3.62"/>
    <rect class="cls-4" x="469.58" y="152.51" width="19.32" height="3.62"/>
    <rect class="cls-4" x="469.58" y="158.19" width="19.32" height="3.62"/>
    <rect class="cls-5" x="165.93" y="202.57" width="361.27" height=".84"/>
    <rect class="cls-5" x="165.93" y="172.46" width="361.27" height=".84"/>
    <path class="cls-3" d="M530.54,89.95v2.31h2.32v-2.31h-2.32Zm-8.91-9.84h-3.89v12.15h3.89c3.63,0,6.04-2.46,6.04-6.02v-.15c0-3.56-2.41-5.98-6.04-5.98Zm3.85,6.14c0,2.61-1.54,4.19-3.87,4.19h-1.77v-8.5h1.77c2.33,0,3.87,1.6,3.87,4.2v.11Zm-19.96-6.14v1.87h3.33v10.28h2.12v-10.28h3.34v-1.87h-8.79Zm-6.56,10.3v-10.3h-2.11v12.15h7.57v-1.85h-5.46Zm-13.05-.45v2.31h2.33v-2.31h-2.33Zm-10.45-9.84v1.87h3.36v10.28h2.11v-10.28h3.32v-1.87h-8.78Zm-4.62,0l-3.13,9.19-3.14-9.19h-2.27l4.4,12.23h1.96l4.39-12.23h-2.21Zm-15.43,0h-4.06v12.15h2.11v-3.94h1.82c2.65-.05,4.72-1.44,4.72-4.14v-.04c0-2.51-1.79-4.04-4.58-4.04Zm2.45,4.11c0,1.35-.96,2.28-2.59,2.28h-1.82v-4.57h1.82c1.63,0,2.59,.82,2.59,2.26v.03Zm-20.88,6.22v-3.39h5.26v-1.82h-5.26v-3.29h5.92v-1.83h-8.01v12.15h8.1v-1.82h-6.01Zm-6.71-1.15c-.79,.73-1.6,1.27-2.83,1.27-1.99,0-3.5-1.72-3.5-4.37v-.09c0-2.56,1.5-4.3,3.5-4.3,1.14,0,1.99,.52,2.74,1.19l1.26-1.55c-1.03-.91-2.21-1.53-4-1.53-3.28,0-5.69,2.54-5.69,6.2v.14c0,3.72,2.35,6.18,5.59,6.18,1.74,0,3.05-.62,4.16-1.72l-1.24-1.43Zm-14.3-9.19v8.1l-5.6-8.1h-1.96v12.15h2.06v-8.34l5.77,8.34h1.78v-12.15h-2.04Zm-17.25,10.33v-3.39h5.26v-1.82h-5.26v-3.29h5.93v-1.83h-8.01v12.15h8.1v-1.82h-6.02Zm-8.5-10.33v12.15h2.12v-12.15h-2.12Zm-4.72,9.19c-.81,.73-1.6,1.27-2.81,1.27-1.99,0-3.52-1.72-3.52-4.37v-.09c0-2.56,1.53-4.3,3.52-4.3,1.15,0,1.98,.52,2.71,1.19l1.29-1.55c-1.05-.91-2.22-1.53-4-1.53-3.31,0-5.69,2.54-5.69,6.2v.14c0,3.72,2.32,6.18,5.58,6.18,1.75,0,3.04-.62,4.16-1.72l-1.24-1.43Zm-15.08-4c-2.17-.81-2.65-1.25-2.65-2.11s.72-1.41,1.87-1.41c1.02,0,1.99,.48,2.85,1.14l1.2-1.53c-1.16-.98-2.52-1.44-3.97-1.44-2.38,0-4.06,1.43-4.06,3.41v.04c0,1.93,1.26,2.8,3.67,3.66,2.03,.72,2.45,1.21,2.45,1.97v.03c0,.91-.78,1.56-1.99,1.56-1.36,0-2.41-.63-3.36-1.45l-1.27,1.5c1.39,1.24,2.97,1.75,4.62,1.75,2.37,0,4.1-1.35,4.1-3.5v-.03c0-1.79-1.09-2.74-3.44-3.6Zm-12.55-3.33v-1.85h-7.97v12.15h2.09v-5.02h5.21v-1.85h-5.21v-3.42h5.88Zm-17.34-2.06c-3.31,0-5.65,2.6-5.65,6.2v.19c0,3.58,2.32,6.16,5.63,6.16s5.65-2.6,5.65-6.2v-.19c0-3.58-2.3-6.16-5.63-6.16Zm3.44,6.35c0,2.64-1.43,4.35-3.44,4.35s-3.46-1.75-3.46-4.37v-.14c0-2.6,1.44-4.33,3.43-4.33s3.47,1.77,3.47,4.34v.14Zm-18.7-6.14l-2.98,5.26-2.93-5.26h-2.44l4.3,7.31v4.85h2.09v-4.87l4.28-7.28h-2.33Zm-13.6,0l-3.24,5.59-3.29-5.59h-2.18v12.15h2.06v-8.57l3.36,5.6h.06l3.37-5.64v8.61h2.08v-12.15h-2.21Zm-18.4,10.33v-3.39h5.26v-1.82h-5.26v-3.29h5.93v-1.83h-8.01v12.15h8.09v-1.82h-6.01Zm-11.86-10.33h-3.89v12.15h3.89c3.63,0,6.04-2.46,6.04-6.02v-.15c0-3.56-2.41-5.98-6.04-5.98Zm3.85,6.14c0,2.61-1.54,4.19-3.87,4.19h-1.74v-8.5h1.74c2.33,0,3.87,1.6,3.87,4.2v.11Zm-15.67-6.21h-2.04l-4.66,12.21h2.12l1.06-2.85h4.93l1.06,2.85h2.2l-4.67-12.21Zm-2.88,7.57l1.82-4.87,1.83,4.87h-3.65Zm-7.51,1.68c-.79,.73-1.61,1.27-2.81,1.27-2.01,0-3.52-1.72-3.52-4.37v-.09c0-2.56,1.51-4.3,3.52-4.3,1.14,0,1.98,.52,2.73,1.19l1.27-1.55c-1.03-.91-2.23-1.53-4-1.53-3.29,0-5.7,2.54-5.7,6.2v.14c0,3.72,2.33,6.18,5.58,6.18,1.79,0,3.08-.62,4.18-1.72l-1.24-1.43Zm-15.33-9.25h-2.03l-4.68,12.21h2.12l1.05-2.85h4.96l1.05,2.85h2.21l-4.67-12.21Zm-2.86,7.57l1.82-4.87,1.8,4.87h-3.62Zm-13.85-7.51v8.1l-5.6-8.1h-1.96v12.15h2.07v-8.34l5.77,8.34h1.78v-12.15h-2.06Zm-15.49-.06h-2.03l-4.67,12.21h2.13l1.05-2.85h4.93l1.06,2.85h2.2l-4.67-12.21Zm-2.86,7.57l1.82-4.87,1.8,4.87h-3.62Zm-10.6-7.57h-2.02l-4.68,12.21h2.12l1.05-2.85h4.96l1.06,2.85h2.21l-4.69-12.21Zm-2.86,7.57l1.82-4.87,1.82,4.87h-3.63Zm-6.95-7.51l-3.12,9.19-3.14-9.19h-2.28l4.4,12.23h1.96l4.4-12.23h-2.22Zm-14.01,0v12.15h2.12v-12.15h-2.12Zm-5.59,0l-3.12,9.19-3.13-9.19h-2.3l4.43,12.23h1.94l4.39-12.23h-2.22Z"/>
  </g>
</svg>