<?xml version="1.0" encoding="UTF-8"?>
<svg id="Layer_1" data-name="Layer 1" xmlns="http://www.w3.org/2000/svg" viewBox="0 0 469.98 448.62">
  <defs>
    <style>
      .cls-1 {
        fill: #ffd400;
      }

      .cls-2 {
        fill: #f5af31;
      }

      .cls-3 {
        fill: #1d1e1c;
      }
    </style>
  </defs>
  <g>
    <circle class="cls-3" cx="234.98" cy="224.32" r="141.82"/>
    <path class="cls-2" d="M234.98,77.14c-81.14,0-147.16,66.02-147.16,147.17s66.02,147.16,147.16,147.16,147.17-66.02,147.17-147.16S316.14,77.14,234.98,77.14Zm0,288.99c-78.2,0-141.82-63.61-141.82-141.82S156.78,82.5,234.98,82.5s141.82,63.61,141.82,141.82-63.61,141.82-141.82,141.82Z"/>
  </g>
  <g>
    <path class="cls-3" d="M356.58,224.32c0,67.04-54.54,121.6-121.58,121.6s-121.6-54.55-121.6-121.6,54.55-121.58,121.6-121.58,121.58,54.54,121.58,121.58Z"/>
    <path class="cls-2" d="M235,97.39c-70,0-126.94,56.94-126.94,126.92s56.94,126.94,126.94,126.94,126.92-56.94,126.92-126.94-56.94-126.92-126.92-126.92Zm0,248.52c-67.04,0-121.6-54.55-121.6-121.6s54.55-121.58,121.6-121.58,121.58,54.54,121.58,121.58-54.54,121.6-121.58,121.6Z"/>
  </g>
  <g>
    <g>
      <path class="cls-1" d="M124.54,188.89h12.06v11.24h18.25v-11.24h12.06v31.67h-12.06v-12.61h-18.25v12.61h-12.06v-31.67Z"/>
      <path class="cls-1" d="M170.74,204.73c0-10.17,9.7-16.94,24.21-16.94s24.25,6.77,24.25,16.94-9.7,16.94-24.25,16.94-24.21-6.77-24.21-16.94Zm36.4,0c0-5.26-4.94-8.8-12.2-8.8s-12.15,3.54-12.15,8.8,4.9,8.8,12.15,8.8,12.2-3.54,12.2-8.8Z"/>
      <path class="cls-1" d="M223,188.89h26.66c9.38,0,14.6,3.98,14.6,11.15-.05,6.99-5.27,10.84-14.69,10.84h-14.51v9.69h-12.06v-31.67Zm22.64,15.48c4.2,0,6.51-1.59,6.51-4.51s-2.31-4.47-6.51-4.47h-10.58v8.98h10.58Z"/>
      <path class="cls-1" d="M267.41,188.89h34.88v7.17h-23.19v5.31h21.34v6.15h-21.34v5.88h23.65v7.17h-35.34v-31.67Z"/>
      <path class="cls-1" d="M304.6,215.96l4.16-6.86c3.83,2.92,10.99,5.04,17.32,5.04,4.67,0,7.62-1.06,7.62-2.7,0-1.37-2.13-2.21-7.16-2.74l-6.1-.66c-10.44-1.06-14.92-3.85-14.92-9.47,0-6.81,8.04-10.66,19.82-10.66,6.98,0,13.54,1.59,17.6,4.11l-3.37,6.64c-3.6-2.3-9.05-3.76-14.14-3.72-4.71,.04-8.18,1.11-8.22,2.79,0,1.19,1.85,1.95,6.1,2.34l6.15,.62c11.18,1.11,15.98,4.03,15.98,9.78,.05,6.55-7.81,11.02-19.96,11.02-7.95,0-16.45-2.26-20.88-5.53Z"/>
    </g>
    <g>
      <path class="cls-1" d="M145.39,233.44h8.41l9.68,18.96h-7.52l-1.55-3.31h-9.91l-1.53,3.31h-7.49l9.91-18.96Zm7.63,11.76l-3.5-7.5h-.06l-3.55,7.5h7.1Z"/>
      <path class="cls-1" d="M164.44,242.92c0-6.09,5.3-9.96,13.65-9.96,6.35,0,11.24,2.62,12.57,6.78l-6.58,1.32c-.67-1.99-2.94-3.23-5.8-3.23-4.02,0-6.6,1.99-6.6,5.09s2.89,5.09,7.44,5.09c3.58,0,6.19-1.46,6.77-3.76l6.66,1.14c-1.05,4.58-6.33,7.5-13.62,7.5-8.85,0-14.48-3.68-14.48-9.96Z"/>
      <path class="cls-1" d="M202.93,233.44h8.41l9.68,18.96h-7.52l-1.55-3.31h-9.91l-1.53,3.31h-7.49l9.91-18.96Zm7.63,11.76l-3.5-7.5h-.06l-3.55,7.5h7.1Z"/>
      <path class="cls-1" d="M222.45,233.44h14.12c7.71,0,12.02,3.39,12.02,9.48s-4.3,9.48-12.02,9.48h-14.12v-18.96Zm13.12,14.28c3.83,0,5.99-1.72,5.99-4.79s-2.16-4.82-5.99-4.82h-6.08v9.61h6.08Z"/>
      <path class="cls-1" d="M250.9,233.44h20.95v4.29h-13.93v3.18h12.82v3.68h-12.82v3.52h14.21v4.29h-21.23v-18.96Z"/>
      <path class="cls-1" d="M274.07,233.44h9.38l6.88,12.87h.06l6.8-12.87h9.49v18.96h-6.83v-11.89h-.06l-6.22,11.89h-6.19l-6.44-11.89h-.06v11.89h-6.83v-18.96Z"/>
      <path class="cls-1" d="M317.73,245.94l-9.66-12.5h7.63l5.66,8h.03l5.38-8h7.71l-9.52,12.5v6.46h-7.24v-6.46Z"/>
    </g>
    <g>
      <path class="cls-1" d="M168.92,272.64v3.61h-2.92v-3.3c0-1.01-.63-1.62-1.72-1.62-1.24,0-1.99,.72-1.99,1.93v3h-2.92v-6.39h2.52l.31,1.55h.01c.59-1.06,1.81-1.76,3.4-1.76,2.03,0,3.32,1.14,3.3,2.98Z"/>
      <path class="cls-1" d="M169.7,273.48v-3.61h2.92v3.3c0,1.01,.63,1.62,1.72,1.62,1.24,0,1.99-.72,1.99-1.93v-3h2.92v6.39h-2.53l-.31-1.55h-.01c-.59,1.06-1.81,1.76-3.4,1.76-2.03,0-3.32-1.14-3.31-2.98Z"/>
      <path class="cls-1" d="M188.27,272.47l-2.67,.52c-.05-.95-.47-1.56-1.08-1.56-.83,0-1.32,.77-1.32,1.98v2.85h-2.93v-6.39h2.44l.4,1.47h.01c.47-1.04,1.51-1.68,2.66-1.68,1.42,0,2.4,1.1,2.5,2.81Z"/>
      <path class="cls-1" d="M190.27,273.98v-2.33h-1.79v-1.78h1.78v-1.71l2.92-.52v2.23h3.9v1.78h-3.9v1.67c0,.77,.4,1.16,1.29,1.16s1.51-.31,2.2-.94l.62,1.65c-.99,.89-2.09,1.26-3.66,1.26-2.08,0-3.36-.94-3.36-2.48Z"/>
      <path class="cls-1" d="M197.81,273.48v-3.61h2.92v3.3c0,1.01,.63,1.62,1.72,1.62,1.24,0,1.99-.72,1.99-1.93v-3h2.92v6.39h-2.53l-.31-1.55h-.01c-.59,1.06-1.81,1.76-3.4,1.76-2.03,0-3.32-1.14-3.31-2.98Z"/>
      <path class="cls-1" d="M216.38,272.47l-2.67,.52c-.05-.95-.47-1.56-1.08-1.56-.83,0-1.32,.77-1.32,1.98v2.85h-2.93v-6.39h2.44l.4,1.47h.01c.47-1.04,1.51-1.68,2.66-1.68,1.42,0,2.4,1.1,2.5,2.81Z"/>
      <path class="cls-1" d="M216.79,273.05c0-1.99,2.07-3.39,5.03-3.39s4.83,1.35,4.83,3.4c0,.19-.02,.46-.09,.67h-6.68c.33,.74,1.45,1.04,2.65,1.04,1.26,0,2.54-.27,3.19-.64l.8,1.39c-.87,.56-2.5,.94-4.21,.94-3.29,0-5.52-1.32-5.52-3.4Zm6.91-.57c-.04-.73-.88-1.22-1.91-1.22s-1.86,.51-1.97,1.22h3.87Z"/>
      <path class="cls-1" d="M227.21,275.44l.77-1.49c.87,.53,2.48,.93,3.92,.93s2.01-.2,2.01-.5c0-.26-.46-.4-1.34-.46l-1.58-.12c-2.15-.15-3.25-.67-3.25-1.83,0-1.6,1.82-2.31,4.33-2.31,1.35,0,2.69,.28,3.81,.84l-.69,1.35c-.79-.41-2.01-.72-3.16-.72-1.03,0-1.82,.16-1.82,.48,0,.25,.38,.35,1.15,.41l1.58,.14c2.34,.17,3.52,.72,3.52,1.99,0,1.6-1.87,2.3-4.37,2.3-1.83,0-3.8-.41-4.88-1.01Z"/>
      <path class="cls-1" d="M239.67,275.44l.77-1.49c.87,.53,2.48,.93,3.93,.93s2-.2,2-.5c0-.26-.46-.4-1.34-.46l-1.58-.12c-2.15-.15-3.26-.67-3.26-1.83,0-1.6,1.82-2.31,4.33-2.31,1.35,0,2.69,.28,3.81,.84l-.69,1.35c-.79-.41-2.01-.72-3.16-.72-1.03,0-1.82,.16-1.82,.48,0,.25,.38,.35,1.15,.41l1.58,.14c2.34,.17,3.52,.72,3.52,1.99,0,1.6-1.87,2.3-4.37,2.3-1.83,0-3.8-.41-4.88-1.01Z"/>
      <path class="cls-1" d="M249.48,273.48v-3.61h2.92v3.3c0,1.01,.63,1.62,1.72,1.62,1.24,0,1.99-.72,1.99-1.93v-3h2.92v6.39h-2.53l-.31-1.55h-.01c-.59,1.06-1.81,1.76-3.4,1.76-2.03,0-3.32-1.14-3.3-2.98Z"/>
      <path class="cls-1" d="M259.84,273.06c0-2.05,1.98-3.4,4.95-3.4,2.48,0,4.3,.99,4.63,2.5l-2.72,.45c-.16-.71-.82-1.15-1.78-1.15-1.31,0-2.15,.61-2.15,1.61s.88,1.61,2.33,1.61c1.25,0,2.15-.57,2.35-1.5l2.71,.42c-.36,1.72-2.38,2.86-5.1,2.86-3.16,0-5.22-1.34-5.21-3.39Z"/>
      <path class="cls-1" d="M270.59,273.06c0-2.05,1.98-3.4,4.95-3.4,2.48,0,4.3,.99,4.63,2.5l-2.72,.45c-.16-.71-.82-1.15-1.78-1.15-1.31,0-2.15,.61-2.15,1.61s.88,1.61,2.33,1.61c1.25,0,2.15-.57,2.35-1.5l2.71,.42c-.36,1.72-2.38,2.86-5.1,2.86-3.16,0-5.22-1.34-5.21-3.39Z"/>
      <path class="cls-1" d="M281.34,273.05c0-1.99,2.07-3.39,5.03-3.39s4.83,1.35,4.83,3.4c0,.19-.02,.46-.09,.67h-6.68c.33,.74,1.45,1.04,2.65,1.04,1.26,0,2.54-.27,3.19-.64l.81,1.39c-.87,.56-2.5,.94-4.21,.94-3.29,0-5.52-1.32-5.52-3.4Zm6.91-.57c-.04-.73-.88-1.22-1.91-1.22s-1.86,.51-1.97,1.22h3.87Z"/>
      <path class="cls-1" d="M291.76,275.44l.77-1.49c.87,.53,2.48,.93,3.93,.93s2-.2,2-.5c0-.26-.46-.4-1.34-.46l-1.58-.12c-2.15-.15-3.26-.67-3.26-1.83,0-1.6,1.82-2.31,4.33-2.31,1.35,0,2.69,.28,3.81,.84l-.69,1.35c-.79-.41-2-.72-3.16-.72-1.03,0-1.82,.16-1.82,.48,0,.25,.38,.35,1.15,.41l1.58,.14c2.34,.17,3.52,.72,3.52,1.99,0,1.6-1.87,2.3-4.37,2.3-1.83,0-3.8-.41-4.88-1.01Z"/>
      <path class="cls-1" d="M301.36,275.44l.77-1.49c.87,.53,2.48,.93,3.93,.93s2-.2,2-.5c0-.26-.46-.4-1.34-.46l-1.58-.12c-2.15-.15-3.26-.67-3.26-1.83,0-1.6,1.82-2.31,4.33-2.31,1.35,0,2.69,.28,3.81,.84l-.69,1.35c-.79-.41-2.01-.72-3.16-.72-1.03,0-1.82,.16-1.82,.48,0,.25,.38,.35,1.15,.41l1.58,.14c2.34,.17,3.52,.72,3.52,1.99,0,1.6-1.87,2.3-4.37,2.3-1.83,0-3.8-.41-4.88-1.01Z"/>
    </g>
    <rect class="cls-1" x="143.13" y="262.05" width="183.71" height="1.83"/>
  </g>
</svg>