<?xml version="1.0" encoding="UTF-8"?>
<svg id="Layer_1" data-name="Layer 1" xmlns="http://www.w3.org/2000/svg" viewBox="0 0 574.42 343.7">
  <defs>
    <style>
      .cls-1, .cls-2 {
        fill: #f8bd33;
      }

      .cls-2 {
        stroke-width: .55px;
      }

      .cls-2, .cls-3, .cls-4, .cls-5, .cls-6 {
        stroke-miterlimit: 10;
      }

      .cls-2, .cls-3, .cls-5 {
        stroke: #000;
      }

      .cls-3 {
        stroke-width: .21px;
      }

      .cls-3, .cls-4, .cls-6 {
        fill: none;
      }

      .cls-4 {
        stroke-width: .83px;
      }

      .cls-4, .cls-6 {
        stroke: #f8bd33;
      }

      .cls-7 {
        letter-spacing: .07em;
      }

      .cls-8 {
        letter-spacing: .04em;
      }

      .cls-5 {
        fill: #fff;
        font-family: Impact, Impact;
        font-size: 46px;
        stroke-width: .65px;
      }

      .cls-9 {
        fill: #0e4c3f;
      }

      .cls-10 {
        fill: #8b6239;
      }

      .cls-6 {
        stroke-width: 1.65px;
      }
    </style>
  </defs>
  <g>
    <rect class="cls-9" x="92.8" y="231.85" width="389.73" height="64.49"/>
    <text class="cls-5" transform="translate(105.82 282.79) scale(.95 1)"><tspan class="cls-8" x="0" y="0">COACHING C</tspan><tspan class="cls-7" x="241.39" y="0">L</tspan><tspan class="cls-8" x="261.97" y="0">ASSES</tspan></text>
  </g>
  <g>
    <g>
      <g>
        <g>
          <path d="M100.68,190.41c0,3.71-.08,6.21-.24,7.5-.16,1.29-.75,2.38-1.77,3.27-1.03,.89-2.42,1.33-4.2,1.33-.67,0-1.75-.06-3.25-.18v17.11h12.46c5.51,0,9.64-.43,12.37-1.3,2.74-.87,4.91-2.43,6.51-4.69,1.6-2.26,2.5-4.79,2.7-7.59,.2-2.8,.3-9.1,.3-18.9V121.53h-24.89v68.88Z"/>
          <path d="M178.52,123.59l-.3-2.06h-35.98l-12.69,97.91h25.72l1.5-17.6h8.9l.16,2.06,1.17,15.54h25.44l-13.93-95.85Zm-22.06,60.9c.64-8.67,2.24-22.37,4.77-41.12,.31,3.99,.62,7.84,.93,11.51,.96,11.37,1.91,21.23,2.86,29.61h-8.57Z"/>
          <path d="M242.19,124.07c-4.81-3.06-10.86-4.6-18.15-4.6s-13.45,1.76-18.12,5.29c-4.67,3.53-7.5,7.41-8.48,11.64-.99,4.23-1.48,11.03-1.48,20.38v29.09c0,6.73,.24,11.78,.71,15.15,.47,3.37,1.66,6.58,3.55,9.64,1.89,3.06,4.66,5.63,8.31,7.71,3.65,2.08,7.56,3.11,11.74,3.11,3.51,0,6.56-.76,9.14-2.27,2.58-1.51,4.72-3.78,6.42-6.8l2.3,7.01h15.64v-52.55h-29.14v14.88h5.02v11.61c0,4.56-.33,7.62-.98,9.19-.65,1.57-1.88,2.36-3.69,2.36-1.66,0-2.76-.7-3.31-2.09-.55-1.39-.83-4.28-.83-8.68v-46.99c0-5,.28-8.1,.83-9.31,.55-1.21,1.6-1.81,3.13-1.81,1.77,0,2.9,.71,3.37,2.12,.47,1.41,.71,4.92,.71,10.52v8.89h24.89v-4.23c0-8.02-.73-14.14-2.19-18.35-1.46-4.21-4.59-7.85-9.4-10.92Z"/>
          <path d="M320.22,137.4c-.55-3.17-1.93-6.03-4.14-8.62,0,0,0-.01-.01-.02-2.22-2.57-5.43-4.42-9.65-5.54-4.24-1.13-12.36-1.7-24.38-1.7h-18.62v97.91h31.39c5.95,0,10.4-.34,13.35-1,2.96-.67,5.44-1.83,7.46-3.51,2.01-1.67,3.41-3.99,4.23-6.95,.8-2.97,1.2-8.84,1.2-17.63v-34.29c0-9.27-.27-15.49-.82-18.65Zm-31.92,.88c2.71,0,4.57,.3,5.56,.88,.71,.41,1.24,1,1.56,1.77,.15,.3,.25,.62,.33,.98,.27,1.25,.41,4.09,.41,8.52v38.04c0,6.53-.41,10.53-1.24,12-.64,1.14-2.12,1.85-4.44,2.1-.65,.06-1.38,.11-2.19,.11v-64.4Z"/>
          <path d="M373.65,123.59l-.3-2.06h-35.98l-12.7,97.91h25.73l1.5-17.6h8.9l.16,2.06,1.17,15.54h25.44l-13.93-95.85Zm-22.06,60.9c.64-8.67,2.24-22.37,4.77-41.12,.31,3.99,.62,7.83,.93,11.5,.96,11.37,1.91,21.24,2.86,29.62h-8.57Z"/>
          <polygon points="416.69 121.53 391.81 121.53 391.81 219.44 431.83 219.44 431.83 199.84 416.69 199.84 416.69 121.53"/>
          <polygon points="462.74 199.84 462.74 178.31 478.29 178.31 478.29 159.69 462.74 159.69 462.74 141.12 479.35 141.12 479.35 121.53 437.86 121.53 437.86 219.44 481.01 219.44 481.01 199.84 462.74 199.84"/>
        </g>
        <g>
          <path class="cls-2" d="M102.87,192.46c0,3.71-.08,6.21-.24,7.5-.16,1.29-.75,2.38-1.77,3.27-1.03,.89-2.42,1.33-4.2,1.33-.67,0-1.75-.06-3.25-.18v17.11h12.46c5.51,0,9.64-.43,12.37-1.3,2.74-.87,4.91-2.43,6.51-4.69,1.6-2.26,2.5-4.79,2.7-7.59,.2-2.8,.3-9.1,.3-18.9V123.59h-24.89v68.88Z"/>
          <path class="cls-2" d="M180.41,123.59h-35.98l-12.42,95.85-.26,2.05h25.72l1.5-17.59h8.9l1.17,15.54,.16,2.05h25.44l-14.23-97.9Zm-21.76,62.95c.05-.65,.11-1.34,.16-2.05,.59-7.05,1.71-16.92,3.36-29.61,.39-3,.81-6.15,1.26-9.45,1.27,16.32,2.54,30.03,3.79,41.11h-8.57Z"/>
          <path class="cls-2" d="M244.38,126.13c-4.81-3.06-10.86-4.6-18.15-4.6s-13.45,1.76-18.12,5.29c-4.67,3.53-7.5,7.41-8.48,11.64-.99,4.23-1.48,11.03-1.48,20.38v29.09c0,6.73,.24,11.78,.71,15.15,.47,3.37,1.66,6.58,3.55,9.64,1.89,3.06,4.66,5.63,8.31,7.71,3.65,2.08,7.56,3.11,11.74,3.11,3.51,0,6.56-.76,9.14-2.27,2.58-1.51,4.72-3.78,6.42-6.8l2.3,7.01h15.64v-52.55h-29.14v14.88h5.02v11.61c0,4.56-.33,7.62-.98,9.19-.65,1.57-1.88,2.36-3.69,2.36-1.66,0-2.76-.7-3.31-2.09-.55-1.39-.83-4.28-.83-8.68v-46.99c0-5,.28-8.1,.83-9.31,.55-1.21,1.6-1.81,3.13-1.81,1.77,0,2.9,.71,3.37,2.12,.47,1.41,.71,4.92,.71,10.52v8.89h24.89v-4.23c0-8.02-.73-14.14-2.19-18.35-1.46-4.21-4.59-7.85-9.4-10.92Z"/>
          <path class="cls-2" d="M322.41,139.46c-.55-3.17-1.93-6.04-4.14-8.62-.64-.75-1.37-1.44-2.19-2.06,0,0,0-.01-.01-.02-1.98-1.52-4.47-2.68-7.47-3.49-4.24-1.13-12.36-1.69-24.38-1.69h-18.62v97.9h31.39c5.95,0,10.4-.33,13.35-.99,2.96-.67,5.44-1.84,7.46-3.51,2.01-1.67,3.41-3.99,4.23-6.95,.8-2.97,1.2-8.84,1.2-17.63v-34.29c0-9.27-.27-15.5-.82-18.65Zm-26.37,1.75c.98,.58,1.62,1.5,1.89,2.75,.27,1.26,.41,4.1,.41,8.52v38.04c0,6.54-.41,10.53-1.24,12.01-.82,1.47-3.03,2.21-6.62,2.21v-64.4c2.23,0,3.87,.19,4.93,.59,.23,.08,.44,.18,.62,.29Z"/>
          <path class="cls-2" d="M375.54,123.59h-35.98l-12.42,95.85-.26,2.05h25.72l1.5-17.59h8.9l1.17,15.54,.16,2.05h25.44l-14.23-97.9Zm-21.76,62.95c.05-.65,.11-1.34,.17-2.05,.58-7.05,1.7-16.92,3.35-29.62,.39-2.99,.81-6.14,1.26-9.44,1.27,16.32,2.54,30.03,3.79,41.11h-8.57Z"/>
          <polygon class="cls-2" points="418.88 123.59 394 123.59 394 221.49 434.02 221.49 434.02 201.9 418.88 201.9 418.88 123.59"/>
          <polygon class="cls-2" points="464.93 201.9 464.93 180.37 480.48 180.37 480.48 161.74 464.93 161.74 464.93 143.18 481.54 143.18 481.54 123.59 440.04 123.59 440.04 221.49 483.2 221.49 483.2 201.9 464.93 201.9"/>
        </g>
      </g>
      <g>
        <g>
          <g>
            <rect class="cls-1" x="100.83" y="101.42" width="24.84" height="20.11"/>
            <line class="cls-3" x1="100.82" y1="102.35" x2="125.67" y2="102.35"/>
            <line class="cls-3" x1="100.82" y1="104.63" x2="125.67" y2="104.63"/>
            <line class="cls-3" x1="100.82" y1="106.91" x2="125.67" y2="106.91"/>
            <line class="cls-3" x1="100.82" y1="109.2" x2="125.67" y2="109.2"/>
            <line class="cls-3" x1="100.82" y1="111.48" x2="125.67" y2="111.48"/>
            <line class="cls-3" x1="100.82" y1="113.76" x2="125.67" y2="113.76"/>
            <line class="cls-3" x1="100.82" y1="116.04" x2="125.67" y2="116.04"/>
            <line class="cls-3" x1="100.82" y1="118.32" x2="125.67" y2="118.32"/>
            <line class="cls-3" x1="100.82" y1="120.61" x2="125.67" y2="120.61"/>
            <polygon class="cls-10" points="102.34 121.53 101.85 121.53 100.83 120.7 100.83 120.29 102.34 121.53"/>
            <polygon class="cls-10" points="107.78 121.53 107.3 121.53 100.83 116.24 100.83 115.82 101.09 116.04 107.78 121.53"/>
            <polygon class="cls-10" points="112.97 121.53 112.49 121.53 105.79 116.04 103.02 113.76 100.83 111.97 100.83 111.56 103.52 113.76 106.29 116.04 112.97 121.53"/>
            <polygon class="cls-10" points="118.19 121.53 117.7 121.53 117.58 121.44 111.01 116.04 108.24 113.76 105.45 111.48 102.67 109.2 100.83 107.69 100.83 107.28 103.17 109.2 105.94 111.48 108.73 113.76 111.5 116.04 118.19 121.53"/>
            <polygon class="cls-10" points="123.44 121.53 122.85 121.53 116.16 116.04 113.39 113.76 110.6 111.48 107.82 109.2 105.04 106.91 102.26 104.64 100.83 103.46 100.83 102.99 102.83 104.64 105.61 106.91 108.4 109.2 111.17 111.48 113.97 113.76 116.75 116.04 123.44 121.53"/>
            <polygon class="cls-10" points="125.67 119.09 125.67 119.57 121.37 116.04 118.59 113.76 115.81 111.48 113.03 109.2 110.24 106.91 107.47 104.64 104.68 102.35 103.54 101.42 104.14 101.42 105.27 102.35 108.05 104.64 110.83 106.91 113.61 109.2 116.39 111.48 119.18 113.76 121.95 116.04 125.67 119.09"/>
            <polygon class="cls-10" points="125.67 115.23 125.67 115.7 123.31 113.76 120.52 111.48 117.74 109.2 114.96 106.91 112.19 104.64 109.41 102.35 108.27 101.42 108.84 101.42 109.98 102.35 112.77 104.64 115.54 106.91 118.33 109.2 121.09 111.48 123.88 113.76 125.67 115.23"/>
            <polygon class="cls-10" points="125.67 111.61 125.67 112 125.62 111.97 125.03 111.48 122.27 109.2 119.5 106.91 116.75 104.64 113.97 102.35 112.86 101.42 113.34 101.42 114.45 102.35 117.23 104.64 119.98 106.91 122.76 109.2 125.51 111.48 125.67 111.61"/>
            <polygon class="cls-10" points="125.67 107.32 125.67 107.72 124.61 106.91 121.67 104.64 118.7 102.35 117.49 101.42 118 101.42 119.2 102.35 122.17 104.64 125.13 106.91 125.67 107.32"/>
            <polygon class="cls-10" points="122.85 101.42 124.05 102.35 125.67 103.59 125.67 103.2 124.55 102.35 123.34 101.42 122.85 101.42"/>
          </g>
          <g>
            <g>
              <rect x="112.42" y="75.2" width=".88" height="11.41"/>
              <ellipse cx="112.86" cy="86.61" rx=".88" ry=".9"/>
            </g>
            <polygon class="cls-4" points="100.04 87.71 112.86 74.59 125.68 87.71 118.32 95.27 118.32 101.11 107.43 101.11 107.43 95.27 100.04 87.71"/>
          </g>
        </g>
        <line class="cls-6" x1="112.86" y1="74.59" x2="481.01" y2="74.59"/>
      </g>
    </g>
    <g>
      <g>
        <rect x="185.99" y="45.7" width="2.47" height="21.88"/>
        <rect x="185.96" y="45.95" width="2.53" height="21.39" transform="translate(243.86 -130.58) rotate(90)"/>
      </g>
      <rect x="228.75" y="45.95" width="2.53" height="21.39" transform="translate(286.66 -173.37) rotate(90)"/>
      <g>
        <polygon points="307.74 50.32 309.38 48.43 325.37 62.96 323.73 64.85 307.74 50.32"/>
        <polygon points="323.45 48.19 325.16 50.02 309.65 65.09 307.95 63.26 323.45 48.19"/>
      </g>
      <g>
        <rect x="360.18" y="45.7" width="2.47" height="21.88" transform="translate(722.84 113.28) rotate(180)"/>
        <g>
          <polygon points="352.6 50.86 354.24 48.97 370.24 63.5 368.6 65.38 352.6 50.86"/>
          <polygon points="368.32 48.72 370.02 50.56 354.52 65.63 352.82 63.8 368.32 48.72"/>
        </g>
      </g>
      <g>
        <rect x="272.01" y="45.95" width="2.53" height="21.39" transform="translate(329.92 -216.63) rotate(90)"/>
        <ellipse cx="273.56" cy="64.77" rx="2.1" ry="2.14"/>
        <ellipse cx="273.56" cy="48.51" rx="2.1" ry="2.14"/>
      </g>
    </g>
  </g>
</svg>