<?xml version="1.0" encoding="UTF-8"?>
<svg id="Layer_1" data-name="Layer 1" xmlns="http://www.w3.org/2000/svg" viewBox="0 0 646.65 298.61">
  <defs>
    <style>
      .cls-1 {
        fill: #47a3a0;
      }

      .cls-2 {
        fill: #43809d;
      }
    </style>
  </defs>
  <g>
    <path class="cls-2" d="M144.39,138.94l-14.78,75-15.42-75h-25.17v117.44h17.45v-80.53l16.6,80.53h12.42l16.61-80.53v80.53h17.79v-117.44h-25.49Z"/>
    <path d="M190.33,221.74c-4.98,0-8.29,3.31-8.29,8.25v18.64c0,4.92,3.31,8.24,8.29,8.24s8.29-3.31,8.29-8.24v-18.64c0-4.94-3.33-8.25-8.29-8.25Zm3.12,26.89c0,2.14-1.22,3.36-3.12,3.36s-3.13-1.22-3.13-3.36v-18.64c0-2.15,1.22-3.37,3.13-3.37s3.12,1.22,3.12,3.37v18.64Z"/>
    <path d="M202.15,222.23v4.88h5.66v29.27h5.17v-29.27h5.66v-4.88h-16.5Z"/>
    <path d="M243.33,222.23l-2.84,23.07-2.82-23.07h-5.27l-2.82,23.07-2.82-23.07h-5.23l5.02,34.15h5.71l2.74-22.48,2.73,22.48h5.72l5.02-34.15h-5.12Z"/>
    <path d="M262.35,222.23h-6.94l-5.66,34.15h5.17l1.13-7.56h5.55l1.12,7.56h5.27l-5.65-34.15Zm-5.62,21.62l2.1-14.29,2.1,14.29h-4.19Z"/>
    <path d="M284.29,222.23v22.93l-6.59-22.93h-5.72v34.15h5.08v-21.86l6.84,21.86h5.45v-34.15h-5.06Z"/>
    <path d="M295.01,222.23v34.15h5.17v-34.15h-5.17Z"/>
    <path d="M324.52,237.27c-3.66-3.66-4.74-5.23-4.74-7.37s1.03-3.27,2.84-3.27,2.82,1.37,2.82,4v.98l4.98-.53v-.88c0-5.13-2.94-8.45-7.86-8.45s-7.84,3.31-7.84,8.39c0,3.76,1.45,6.39,6.59,11.23,3.85,3.65,4.73,5.22,4.73,7.37,0,2-1.27,3.26-3.31,3.26s-3.33-1.51-3.33-4v-1.27l-4.96,.55v1.22c0,4.88,3.41,8.39,8.33,8.39s8.35-3.51,8.35-8.39c0-3.76-1.61-6.25-6.59-11.21Z"/>
    <path d="M335.48,222.23v34.15h5.17v-34.15h-5.17Z"/>
    <path d="M358.94,241.11c2.24-1.36,3.57-3.8,3.57-6.98v-3.75c0-4.94-3.17-8.15-8.11-8.15h-8.1v34.15h5.17v-14.09h2.68l3.76,14.09h5.36l-4.33-15.27Zm-1.61-6.88c0,2-1.17,3.17-3.17,3.17h-2.68v-10.29h2.68c2,0,3.17,1.17,3.17,3.17v3.94Z"/>
    <path d="M367.38,222.23v5.12h1.85l-1.85,5.13h2.43l2.74-5.61v-4.64h-5.17Z"/>
    <path d="M387.47,237.27c-3.66-3.66-4.74-5.23-4.74-7.37s1.03-3.27,2.84-3.27,2.82,1.37,2.82,4v.98l4.98-.53v-.88c0-5.13-2.94-8.45-7.86-8.45s-7.84,3.31-7.84,8.39c0,3.76,1.45,6.39,6.59,11.23,3.85,3.65,4.73,5.22,4.73,7.37,0,2-1.27,3.26-3.31,3.26s-3.33-1.51-3.33-4v-1.27l-4.96,.55v1.22c0,4.88,3.41,8.39,8.33,8.39s8.35-3.51,8.35-8.39c0-3.76-1.61-6.25-6.59-11.21Z"/>
    <path d="M419.11,222.23h-6.92l-5.66,34.15h5.17l1.12-7.56h5.57l1.12,7.56h5.27l-5.66-34.15Zm-5.61,21.62l2.1-14.29,2.1,14.29h-4.19Z"/>
    <path d="M444.48,233.84v-4c0-4.78-3.27-8.1-8.1-8.1s-8.11,3.31-8.11,8.1v18.93c0,4.78,3.27,8.1,8.11,8.1s8.1-3.31,8.1-8.1v-4.88h-5.08v4.88c0,2-1.22,3.22-2.98,3.22s-2.98-1.22-2.98-3.22v-18.93c0-2,1.22-3.22,2.98-3.22s2.98,1.22,2.98,3.22v4h5.08Z"/>
    <path d="M460.14,222.23h-6.94l-5.66,34.15h5.17l1.12-7.56h5.57l1.12,7.56h5.27l-5.65-34.15Zm-5.62,21.62l2.1-14.29,2.1,14.29h-4.19Z"/>
    <path d="M477.88,222.23h-8.11v34.15h8.11c4.92,0,8.1-3.22,8.1-8.14v-17.86c0-4.94-3.17-8.15-8.1-8.15Zm2.92,26.11c0,2-1.17,3.16-3.17,3.16h-2.68v-24.39h2.68c2,0,3.17,1.17,3.17,3.17v18.05Z"/>
    <path d="M505.82,227.11v-4.88h-14.68v34.15h14.68v-4.88h-9.51v-10h7.56v-4.88h-7.56v-9.51h9.51Z"/>
    <path d="M526.26,222.23l-4.31,21.8-4.49-21.8h-7.31v34.15h5.08v-23.41l4.82,23.41h3.61l4.84-23.41v23.41h5.17v-34.15h-7.41Z"/>
    <path d="M551.07,222.23l-4.1,13.03-4-13.03h-5.51l6.92,19.86v14.29h5.17v-14.29l6.94-19.86h-5.43Z"/>
  </g>
  <g>
    <g>
      <g>
        <path class="cls-2" d="M209.99,206.89s-21.69-57.22-26.4-66.74c64.65,8.72,109.77,33.35,129.06,65.86-26.37-28.01-75.23-44.54-115.04-49.39l12.38,50.26Z"/>
        <path class="cls-2" d="M317.77,197.16c-21.58-29.87-55.73-53.77-90.84-60.01v-22.68c44.95,17.87,76.23,46.32,90.84,82.69Z"/>
        <path class="cls-2" d="M318.83,179.74c-12.01-21.02-32.37-48.41-57.51-58.56v-19.74c26.45,19.29,49.11,45.01,57.51,78.31Z"/>
      </g>
      <g>
        <path class="cls-2" d="M434.32,206.89s21.69-57.22,26.4-66.74c-64.65,8.72-109.77,33.35-129.06,65.86,26.37-28.01,75.23-44.54,115.04-49.39l-12.38,50.26Z"/>
        <path class="cls-2" d="M326.53,197.16c21.58-29.87,55.73-53.77,90.84-60.01v-22.68c-44.95,17.87-76.23,46.32-90.84,82.69Z"/>
        <path class="cls-2" d="M325.48,179.74c12.01-21.02,32.37-48.41,57.51-58.56v-19.74c-26.45,19.29-49.11,45.01-57.51,78.31Z"/>
      </g>
    </g>
    <g>
      <rect class="cls-1" x="315.83" y="115.74" width="12.59" height="76.98"/>
      <path class="cls-1" d="M317.64,41.74h8.98c1.52,0,2.76,1.24,2.76,2.76V114.47h-14.5V44.5c0-1.52,1.24-2.76,2.76-2.76Z"/>
      <path class="cls-1" d="M311.22,102.03c-.82,0-1.48-.66-1.48-1.48V48.36l5.33-2.91c.72-.38,1.61-.13,2,.59,.39,.71,.13,1.61-.59,2l-3.79,2.07v50.45c0,.82-.66,1.48-1.48,1.48Z"/>
      <g>
        <path class="cls-1" d="M328.42,193.52c-.93,6.04-3.04,10.71-6.3,14.02-3.26-3.31-5.33-7.98-6.3-14.02h12.61Z"/>
        <path class="cls-1" d="M322.12,208.96c-.18,0-.33-.15-.33-.33v-1.82c0-.18,.15-.33,.33-.33s.33,.15,.33,.33v1.82c0,.18-.15,.33-.33,.33Z"/>
      </g>
    </g>
  </g>
  <rect class="cls-2" x="326.88" y="214.25" width="230.75" height="1.67"/>
</svg>