<?xml version="1.0" encoding="UTF-8"?>
<svg id="Layer_1" data-name="Layer 1" xmlns="http://www.w3.org/2000/svg" xmlns:xlink="http://www.w3.org/1999/xlink" viewBox="0 0 439.91 203.23">
  <defs>
    <style>
      .cls-1 {
        fill: #fff;
      }

      .cls-2 {
        fill: #672b29;
      }

      .cls-3 {
        fill: #1f1a17;
      }

      .cls-4 {
        clip-path: url(#clippath);
      }

      .cls-5 {
        fill: none;
      }

      .cls-6 {
        fill: url(#linear-gradient);
      }

      .cls-7 {
        fill: #541717;
      }

      .cls-8 {
        fill: #291770;
      }
    </style>
    <clipPath id="clippath">
      <path class="cls-5" d="M301.97,87.72l15.53-.93c.33,2.42,1.02,4.27,2.05,5.54,1.67,2.06,4.08,3.07,7.2,3.07,2.32,0,4.12-.52,5.38-1.57,1.25-1.05,1.88-2.27,1.88-3.65s-.59-2.49-1.79-3.53c-1.2-1.04-3.98-2.02-8.36-2.94-7.16-1.55-12.26-3.59-15.31-6.16-3.07-2.56-4.61-5.83-4.61-9.8,0-2.61,.79-5.08,2.36-7.4,1.57-2.32,3.93-4.14,7.09-5.47,3.16-1.32,7.49-1.99,12.98-1.99,6.75,0,11.9,1.21,15.44,3.62,3.54,2.41,5.64,6.25,6.32,11.51l-15.38,.86c-.41-2.28-1.27-3.95-2.58-4.99-1.3-1.03-3.11-1.55-5.41-1.55-1.91,0-3.33,.38-4.29,1.16-.96,.77-1.44,1.71-1.44,2.82,0,.8,.39,1.52,1.18,2.17,.77,.67,2.59,1.29,5.48,1.87,7.13,1.48,12.23,2.98,15.32,4.49,3.09,1.51,5.34,3.38,6.74,5.63,1.4,2.23,2.12,4.74,2.12,7.52,0,3.25-.95,6.25-2.82,8.99-1.87,2.75-4.49,4.83-7.86,6.25-3.36,1.42-7.6,2.13-12.71,2.13-8.97,0-15.2-1.65-18.65-4.99-3.47-3.32-5.42-7.54-5.88-12.67m-25.46-2.56l-5.84-18.25-5.8,18.25h11.64Zm3.42,10.98h-18.59l-2.56,8.38h-16.67l19.84-50.76h17.79l19.86,50.76h-17.08l-2.59-8.38Zm-88.25-42.38h18.12l10.66,17.14,10.66-17.14h18.01l-20.53,29.5v21.26h-16.35v-21.26l-20.57-29.5Zm-16.71,31.4l-5.84-18.25-5.8,18.25h11.64Zm3.42,10.98h-18.59l-2.56,8.38h-16.67l19.84-50.76h17.79l19.86,50.76h-17.08l-2.59-8.38Zm-73.26-21.82h6.88c.74,0,2.18-.22,4.32-.69,1.08-.21,1.97-.74,2.66-1.6,.68-.85,1.02-1.83,1.02-2.94,0-1.64-.54-2.9-1.62-3.77-1.08-.89-3.11-1.32-6.08-1.32h-7.17v10.32Zm-16.39,30.2V53.75h27.19c5.04,0,8.9,.41,11.56,1.25,2.67,.83,4.82,2.36,6.45,4.62,1.64,2.25,2.45,4.99,2.45,8.21,0,2.82-.63,5.25-1.87,7.29-1.25,2.04-2.97,3.7-5.15,4.98-1.4,.8-3.31,1.48-5.73,2,1.94,.63,3.36,1.25,4.25,1.88,.59,.41,1.46,1.3,2.61,2.66,1.14,1.37,1.91,2.41,2.29,3.16l7.89,14.71h-18.44l-8.72-15.52c-1.11-2-2.09-3.31-2.96-3.91-1.17-.78-2.51-1.17-3.99-1.17h-1.44v20.6h-16.39Zm-37.16-29.12h4c3.15,0,5.35-.52,6.63-1.57,1.27-1.05,1.91-2.4,1.91-4.03s-.55-2.95-1.66-4.05c-1.1-1.11-3.17-1.67-6.22-1.67h-4.65v11.32Zm-16.39-21.64h27.12c5.9,0,10.33,1.35,13.27,4.05,2.94,2.69,4.41,6.55,4.41,11.52s-1.6,9.14-4.81,12.02c-3.21,2.88-8.1,4.33-14.68,4.33h-8.93v18.84h-16.39V53.75Z"/>
    </clipPath>
    <linearGradient id="linear-gradient" x1="840.96" y1="708.47" x2="841.52" y2="708.47" gradientTransform="translate(245281.68 -48461.18) rotate(90) scale(57.7 345.94)" gradientUnits="userSpaceOnUse">
      <stop offset="0" stop-color="#28166f"/>
      <stop offset="1" stop-color="#da251d"/>
    </linearGradient>
  </defs>
  <g class="cls-4">
    <rect class="cls-6" x="35.19" y="52.89" width="314.69" height="52.49"/>
  </g>
  <rect class="cls-7" x="34.81" y="109.65" width="315.07" height="30.71"/>
  <path class="cls-8" d="M88.8,46.01l2.41-.37c.1,.47,.31,.82,.62,1.06,.31,.24,.75,.36,1.32,.36,.62,0,1.09-.11,1.4-.34,.21-.16,.32-.37,.32-.64,0-.18-.06-.34-.17-.46-.12-.11-.39-.22-.8-.31-1.94-.43-3.16-.82-3.68-1.17-.72-.49-1.08-1.17-1.08-2.04,0-.78,.31-1.45,.93-1.98,.62-.54,1.58-.81,2.89-.81s2.17,.2,2.77,.61c.6,.41,1.02,1,1.25,1.8l-2.26,.42c-.1-.35-.28-.62-.55-.81-.27-.19-.66-.28-1.16-.28-.63,0-1.09,.09-1.36,.27-.18,.13-.27,.29-.27,.49,0,.17,.08,.32,.24,.43,.22,.16,.96,.39,2.24,.68,1.28,.29,2.17,.65,2.68,1.07,.5,.43,.75,1.02,.75,1.78,0,.83-.35,1.55-1.04,2.15-.69,.6-1.72,.9-3.08,.9-1.24,0-2.21-.25-2.94-.75-.72-.5-1.19-1.18-1.41-2.04m-3.33-5.49l-.45-2.33v-2.12h2.61v2.12l-.39,2.33h-1.77Zm-4.71,3.72c-.31,.1-.79,.22-1.46,.37-.66,.14-1.1,.28-1.31,.42-.31,.22-.47,.5-.47,.85s.13,.63,.38,.87c.25,.25,.57,.37,.96,.37,.43,0,.85-.14,1.24-.43,.29-.22,.48-.48,.57-.8,.06-.2,.09-.6,.09-1.17v-.48Zm-3.21-1.95l-2.18-.39c.24-.88,.66-1.53,1.26-1.95,.6-.42,1.49-.63,2.67-.63,1.07,0,1.87,.13,2.39,.38,.52,.25,.89,.58,1.11,.97,.21,.39,.32,1.11,.32,2.15l-.03,2.8c0,.8,.04,1.39,.12,1.77,.08,.38,.22,.78,.43,1.22h-2.38c-.06-.16-.14-.4-.23-.71-.04-.14-.07-.24-.08-.28-.41,.4-.85,.7-1.32,.9-.47,.2-.97,.3-1.5,.3-.93,0-1.67-.25-2.21-.76-.54-.51-.81-1.15-.81-1.93,0-.51,.12-.97,.37-1.37,.25-.4,.59-.71,1.03-.92,.44-.21,1.08-.4,1.91-.56,1.12-.21,1.9-.41,2.33-.59v-.24c0-.46-.11-.79-.34-.99-.23-.2-.66-.29-1.29-.29-.43,0-.76,.08-1,.25-.24,.17-.43,.46-.58,.88Zm-12.67-2.77h2.56l2.17,6.44,2.12-6.44h2.49l-3.2,8.73-.58,1.58c-.21,.53-.41,.93-.6,1.21-.19,.28-.41,.5-.66,.68-.25,.17-.55,.31-.91,.41-.36,.1-.77,.15-1.23,.15s-.91-.05-1.36-.15l-.21-1.88c.38,.08,.71,.11,1.02,.11,.56,0,.97-.16,1.24-.49,.27-.33,.47-.74,.62-1.25l-3.45-9.1Zm-3.73,9.08v-9.08h2.4v9.08h-2.4Zm0-10.31v-2.22h2.4v2.22h-2.4Zm-4.51,10.31h-2.4v-9.08h2.23v1.29c.38-.61,.73-1.01,1.03-1.2,.31-.19,.65-.29,1.04-.29,.55,0,1.07,.15,1.58,.45l-.74,2.09c-.4-.26-.78-.39-1.13-.39s-.62,.09-.86,.28c-.24,.18-.42,.52-.55,1-.13,.48-.2,1.5-.2,3.04v2.8Zm-7.16,0v-9.08h2.4v9.08h-2.4Zm0-10.31v-2.22h2.4v2.22h-2.4Zm-7.77,5.7v-2.11h5.45v4.99c-.53,.51-1.3,.97-2.31,1.36-1.01,.39-2.02,.58-3.05,.58-1.31,0-2.45-.27-3.43-.82-.97-.55-1.71-1.34-2.2-2.36-.49-1.02-.73-2.14-.73-3.34,0-1.3,.27-2.47,.82-3.48,.55-1.01,1.35-1.79,2.4-2.33,.8-.42,1.8-.62,3-.62,1.56,0,2.77,.33,3.64,.98,.88,.65,1.44,1.55,1.69,2.71l-2.51,.47c-.18-.62-.51-1.1-1-1.46-.49-.36-1.09-.53-1.82-.53-1.11,0-1.98,.35-2.64,1.05-.65,.7-.98,1.74-.98,3.12,0,1.48,.33,2.6,.99,3.35,.66,.74,1.53,1.11,2.6,1.11,.53,0,1.06-.1,1.6-.31,.53-.21,.99-.46,1.37-.76v-1.59h-2.9Z"/>
  <path class="cls-1" d="M319.69,115.15h6.76l3.98,6.65,3.97-6.65h6.72l-7.66,11.44v8.25h-6.1v-8.25l-7.67-11.44Zm-24.04,0h8l3.09,11.98,3.08-11.98h7.98v19.69h-4.97v-15.01l-3.86,15.01h-4.5l-3.84-15.01v15.01h-4.98v-19.69Zm-19.81,0h16.3v4.2h-10.2v3.13h9.47v4.02h-9.47v3.88h10.5v4.46h-16.6v-19.69Zm-15.22,4.46v10.76h1.49c1.27,0,2.18-.14,2.71-.42,.54-.28,.96-.78,1.26-1.48,.3-.7,.45-1.84,.45-3.42,0-2.09-.34-3.51-1.02-4.28-.68-.77-1.81-1.16-3.39-1.16h-1.52Zm-6.08-4.46h9.04c1.78,0,3.22,.24,4.32,.72,1.09,.49,2,1.18,2.72,2.08,.72,.91,1.23,1.96,1.56,3.16,.32,1.2,.48,2.47,.48,3.81,0,2.1-.24,3.74-.72,4.9-.48,1.16-1.14,2.13-1.99,2.91-.85,.78-1.76,1.31-2.74,1.57-1.33,.36-2.54,.54-3.63,.54h-9.04v-19.69Zm-10.64,12.18l-2.18-7.08-2.16,7.08h4.34Zm1.27,4.26h-6.93l-.95,3.25h-6.22l7.4-19.69h6.63l7.4,19.69h-6.37l-.97-3.25Zm-20.4-4.8l5.33,1.61c-.36,1.49-.92,2.74-1.69,3.75-.77,1-1.73,1.76-2.87,2.27-1.14,.51-2.59,.77-4.35,.77-2.14,0-3.89-.31-5.24-.93-1.36-.62-2.53-1.72-3.52-3.29-.98-1.57-1.48-3.57-1.48-6.01,0-3.26,.87-5.77,2.6-7.51,1.73-1.75,4.19-2.63,7.35-2.63,2.48,0,4.43,.5,5.85,1.5,1.42,1,2.48,2.54,3.16,4.62l-5.37,1.2c-.19-.6-.38-1.04-.59-1.32-.34-.46-.76-.82-1.25-1.07-.5-.25-1.05-.38-1.65-.38-1.37,0-2.43,.55-3.17,1.66-.55,.83-.83,2.12-.83,3.88,0,2.19,.33,3.68,.99,4.49,.67,.81,1.6,1.21,2.79,1.21s2.04-.33,2.64-.98c.6-.65,1.03-1.6,1.3-2.85Zm-23.17,.54l-2.18-7.08-2.16,7.08h4.34Zm1.27,4.26h-6.93l-.95,3.25h-6.22l7.4-19.69h6.63l7.4,19.69h-6.37l-.97-3.25Zm-41.16-16.44h16.3v4.2h-10.2v3.13h9.47v4.02h-9.47v3.88h10.5v4.46h-16.6v-19.69Zm-8.27,11.64l5.33,1.61c-.36,1.49-.92,2.74-1.69,3.75-.77,1-1.73,1.76-2.87,2.27-1.14,.51-2.59,.77-4.35,.77-2.14,0-3.89-.31-5.24-.93-1.36-.62-2.53-1.72-3.52-3.29-.98-1.57-1.48-3.57-1.48-6.01,0-3.26,.87-5.77,2.6-7.51,1.73-1.75,4.19-2.63,7.35-2.63,2.48,0,4.43,.5,5.85,1.5,1.42,1,2.48,2.54,3.16,4.62l-5.37,1.2c-.19-.6-.38-1.04-.59-1.32-.34-.46-.76-.82-1.25-1.07-.5-.25-1.05-.38-1.66-.38-1.37,0-2.43,.55-3.17,1.66-.56,.83-.83,2.12-.83,3.88,0,2.19,.33,3.68,.99,4.49,.66,.81,1.6,1.21,2.79,1.21s2.05-.33,2.64-.98c.6-.65,1.03-1.6,1.3-2.85Zm-35.98-11.64h5.68l7.41,10.89v-10.89h5.73v19.69h-5.73l-7.38-10.81v10.81h-5.72v-19.69Zm-19.91,0h16.3v4.2h-10.2v3.13h9.47v4.02h-9.47v3.88h10.5v4.46h-16.6v-19.69Zm-10.45,0h6.1v19.69h-6.1v-19.69Zm-8.53,11.64l5.33,1.61c-.36,1.49-.92,2.74-1.69,3.75-.77,1-1.73,1.76-2.87,2.27-1.14,.51-2.59,.77-4.35,.77-2.14,0-3.89-.31-5.24-.93-1.36-.62-2.53-1.72-3.52-3.29-.98-1.57-1.48-3.57-1.48-6.01,0-3.26,.87-5.77,2.6-7.51,1.73-1.75,4.19-2.63,7.35-2.63,2.48,0,4.43,.5,5.85,1.5,1.42,1,2.47,2.54,3.16,4.62l-5.37,1.2c-.19-.6-.38-1.04-.59-1.32-.34-.46-.76-.82-1.25-1.07-.5-.25-1.05-.38-1.65-.38-1.38,0-2.43,.55-3.17,1.66-.56,.83-.83,2.12-.83,3.88,0,2.19,.33,3.68,.99,4.49,.66,.81,1.6,1.21,2.79,1.21s2.04-.33,2.64-.98c.6-.65,1.03-1.6,1.3-2.85Zm-34.03,1.53l5.79-.36c.12,.94,.38,1.65,.77,2.15,.62,.8,1.52,1.19,2.69,1.19,.87,0,1.54-.2,2.01-.61,.47-.41,.7-.88,.7-1.42s-.22-.97-.67-1.37c-.45-.4-1.49-.78-3.12-1.14-2.67-.6-4.57-1.39-5.71-2.39-1.15-1-1.72-2.26-1.72-3.8,0-1.01,.29-1.97,.88-2.87,.59-.9,1.47-1.6,2.64-2.12,1.18-.51,2.79-.77,4.84-.77,2.52,0,4.44,.47,5.76,1.4,1.32,.94,2.1,2.43,2.36,4.47l-5.74,.33c-.15-.88-.47-1.53-.96-1.93-.49-.4-1.16-.6-2.02-.6-.71,0-1.24,.15-1.6,.45-.36,.3-.54,.66-.54,1.1,0,.31,.15,.59,.44,.84,.29,.26,.97,.5,2.04,.72,2.66,.57,4.56,1.16,5.71,1.74,1.15,.59,1.99,1.31,2.51,2.18,.52,.87,.79,1.84,.79,2.92,0,1.26-.35,2.43-1.05,3.49-.7,1.07-1.67,1.87-2.93,2.42-1.25,.55-2.83,.83-4.74,.83-3.35,0-5.67-.64-6.95-1.93-1.29-1.29-2.02-2.93-2.19-4.92Z"/>
  <path class="cls-8" d="M340.66,150.42v4.93h3.38v-4.93h-3.38Zm-4.58,6.63v1.45c0,.23,.07,.43,.2,.6,.15,.17,.32,.25,.52,.25s.38-.08,.53-.25c.13-.17,.2-.37,.2-.6v-2.18h-.73c-.2,0-.37,.07-.52,.2-.13,.15-.2,.33-.2,.53Zm-3.7-6.63v-1.2h16.5v1.2h-1.73v9.63c0,.27,.12,.49,.35,.68,.23,.18,.52,.27,.85,.27v.73h-5.53v-.73c.33,0,.62-.09,.85-.27,.23-.18,.35-.41,.35-.68v-3.73h-3.38v1.33c0,.73-.37,1.36-1.12,1.88-.75,.52-1.66,.78-2.73,.78s-1.98-.26-2.73-.78c-.75-.52-1.12-1.14-1.12-1.88,0-.63,.37-1.18,1.12-1.63,.75-.45,1.66-.68,2.73-.68h.73v-4.93h-5.15Zm-12.28,6.25c0,.53,.11,.98,.32,1.35,.22,.38,.48,.58,.8,.58s.59-.19,.83-.58c.22-.37,.32-.82,.32-1.35s-.11-.98-.32-1.35c-.23-.38-.51-.58-.83-.58s-.58,.19-.8,.58c-.22,.37-.32,.82-.32,1.35Zm-4.38-6.25v-1.2h17.15v1.2h-1.73v9.63c0,.27,.12,.49,.35,.68,.23,.18,.52,.27,.85,.27v.73h-5.53v-.73c.33,0,.62-.09,.85-.27,.23-.18,.35-.41,.35-.68v-9.63h-6.85c1.47,.25,2.68,.84,3.63,1.78,.95,.93,1.43,1.98,1.43,3.15,0,1.27-.53,2.28-1.58,3.05-1.05,.77-2.45,1.15-4.2,1.15-1.13,0-2.1-.28-2.9-.85-.8-.55-1.2-1.22-1.2-2.03s.4-1.48,1.2-2.03c.8-.57,1.77-.85,2.9-.85,.47,0,.88,.08,1.25,.25,.38,.17,.68,.4,.9,.7,0-1.2-.37-2.22-1.13-3.05-.75-.85-1.66-1.28-2.73-1.28h-3.03Zm-4.35-5.43c0-.4,.14-.74,.43-1.03,.28-.28,.63-.43,1.02-.43s.73,.14,1,.43c.28,.28,.43,.63,.43,1.03s-.14,.74-.43,1.02c-.27,.28-.6,.43-1,.43s-.74-.14-1.02-.43c-.28-.28-.43-.63-.43-1.02Zm-13.25,5.43v-1.2h17.98v1.2h-1.73v9.63c0,.27,.12,.49,.35,.68,.23,.18,.52,.27,.85,.27v.73h-5.53v-.73c.33,0,.62-.09,.85-.27,.23-.18,.35-.41,.35-.68v-3.25c-.43,.25-.92,.37-1.45,.37-.7,0-1.34-.17-1.93-.5l.25-.95c.58,.33,1.14,.5,1.68,.5,.25,0,.5-.05,.75-.15,.27-.12,.5-.28,.7-.48v-5.18h-7.95c1.33,.1,2.45,.51,3.35,1.23,.92,.72,1.38,1.55,1.38,2.5,0,1.1-.46,2.03-1.38,2.8-.93,.78-2.05,1.18-3.35,1.18,.48,.57,.97,1.01,1.45,1.33,.48,.32,.93,.47,1.33,.47,.35,0,.68-.08,1-.23,.3-.15,.57-.36,.8-.62l.48,.6c-.43,.63-.97,1.13-1.6,1.5-.63,.37-1.3,.55-2,.55-.48,0-.99-.14-1.53-.43-.55-.3-1.08-.72-1.6-1.25-.8-.83-1.43-1.42-1.88-1.78-.52-.42-.93-.62-1.25-.62l.23-.73c.63,.23,1.36,.35,2.18,.35,.93,0,1.73-.33,2.38-1,.67-.67,1-1.47,1-2.43s-.34-1.76-1.03-2.43c-.68-.67-1.51-1-2.48-1h-2.65Zm-11.28-4.2c0-.67,.35-1.23,1.05-1.7,.7-.47,1.55-.7,2.55-.7h2.65v.95h-1.68c-.4,0-.74,.14-1.03,.42-.28,.28-.43,.63-.43,1.03,0,.57,.13,1.11,.37,1.63,.25,.53,.61,.99,1.08,1.37h-3.13c-.47-.38-.83-.84-1.08-1.37-.25-.52-.38-1.06-.38-1.63Zm-3.38,9.73c0,.8,.24,1.48,.72,2.05,.5,.57,1.09,.85,1.78,.85,.37,0,.74-.08,1.13-.25,.38-.17,.73-.41,1.05-.73v-3.85c-.3-.3-.63-.53-1-.7-.38-.17-.77-.25-1.18-.25-.68,0-1.28,.28-1.78,.85-.48,.55-.72,1.23-.72,2.03Zm-4.5-5.53v-1.2h14.03v1.2h-1.73v9.63c0,.27,.12,.49,.35,.68,.23,.18,.52,.27,.85,.27v.73h-5.55v-.73c.33,0,.63-.09,.87-.27,.23-.18,.35-.41,.35-.68v-1.2c-.38,.45-.89,.8-1.53,1.05-.63,.25-1.33,.37-2.1,.37-1.33,0-2.47-.43-3.4-1.28-.93-.83-1.4-1.85-1.4-3.05s.47-2.22,1.4-3.05c.93-.85,2.07-1.28,3.4-1.28,.77,0,1.47,.12,2.1,.38,.63,.25,1.14,.61,1.53,1.07v-2.65h-9.18Zm-11.8,13.58h3.13c0,.67,.37,1.24,1.13,1.73,.75,.47,1.66,.7,2.73,.7,.83,0,1.54-.2,2.13-.6,.58-.4,.87-.88,.87-1.45,0-.47-.11-.87-.32-1.2-.2-.33-.45-.5-.75-.5-.27,0-.5,.07-.7,.2-.18,.15-.28,.32-.28,.53h-3.13c0-.47,.4-.86,1.2-1.18,.8-.33,1.77-.5,2.9-.5s2.16,.26,2.98,.78c.82,.52,1.23,1.14,1.23,1.87,0,.83-.51,1.54-1.53,2.13-1,.58-2.22,.88-3.65,.88-2.12,0-3.93-.32-5.43-.95-1.5-.63-2.33-1.44-2.5-2.43Zm1.78-13.58v5.3c0,.72,.28,1.33,.83,1.85,.53,.52,1.18,.77,1.95,.77s1.42-.26,1.95-.77c.55-.52,.83-1.13,.83-1.85v-5.3h-5.55Zm-4.28,0v-1.2h14.68v1.2h-1.73v9.63c0,.27,.12,.49,.35,.68,.23,.18,.52,.27,.85,.27v.73h-5.55v-.73c.33,0,.63-.09,.88-.27,.23-.18,.35-.41,.35-.68v-2.18c-.38,.67-.97,1.2-1.75,1.6-.78,.38-1.65,.57-2.6,.57-1.2,0-2.22-.42-3.05-1.28-.85-.83-1.28-1.85-1.28-3.05v-5.3h-1.15Zm-14.55,0v-1.2h15.05v1.2h-1.73v9.63c0,.27,.12,.49,.35,.68,.23,.18,.52,.27,.85,.27v.73h-5.53v-.73c.33,0,.62-.09,.85-.27,.23-.18,.35-.41,.35-.68v-6.03c-.37-.3-.8-.53-1.3-.7-.48-.17-1.01-.25-1.58-.25-.77,0-1.42,.32-1.95,.95-.53,.63-.8,1.4-.8,2.3,0,.85,.13,1.62,.4,2.3,.27,.7,.64,1.25,1.12,1.65l-2.88,1.45c-.77-.63-1.36-1.37-1.78-2.2-.42-.82-.63-1.65-.63-2.5,0-1.37,.57-2.53,1.7-3.48,1.12-.97,2.48-1.45,4.08-1.45,.77,0,1.46,.08,2.08,.22,.6,.13,1.11,.34,1.53,.63v-2.53h-10.2Zm-11.8,13.58h3.13c0,.67,.38,1.24,1.13,1.73,.75,.47,1.66,.7,2.73,.7,.83,0,1.54-.2,2.13-.6,.58-.4,.87-.88,.87-1.45,0-.47-.11-.87-.32-1.2-.2-.33-.45-.5-.75-.5-.27,0-.5,.07-.7,.2-.18,.15-.27,.32-.27,.53h-3.13c0-.47,.4-.86,1.2-1.18,.8-.33,1.77-.5,2.9-.5s2.16,.26,2.98,.78c.82,.52,1.23,1.14,1.23,1.87,0,.83-.51,1.54-1.53,2.13-1,.58-2.22,.88-3.65,.88-2.12,0-3.93-.32-5.43-.95-1.5-.63-2.33-1.44-2.5-2.43Zm-.35-6.6c0,.3,.09,.55,.28,.75,.18,.22,.41,.33,.67,.33,.2,0,.38-.11,.53-.33,.13-.2,.2-.45,.2-.75v-1.08h-.73c-.27,0-.49,.11-.67,.33-.18,.2-.28,.45-.28,.75Zm.7-8.05v2.65c0,.17,.05,.31,.15,.43,.1,.12,.22,.17,.35,.17s.24-.06,.33-.17c.1-.12,.15-.26,.15-.43v-2.65c0-.17-.05-.31-.15-.42-.08-.12-.19-.18-.33-.18s-.25,.06-.35,.18c-.1,.12-.15,.26-.15,.42Zm-3.13,1.33c0-.8,.35-1.48,1.05-2.05,.72-.57,1.58-.85,2.58-.85s1.85,.28,2.55,.85c.7,.57,1.05,1.25,1.05,2.05v4.68h2.88v-4.93h-1.2v-1.2h6.05v1.2h-1.73v9.63c0,.27,.12,.49,.35,.68,.23,.18,.52,.27,.85,.27v.73h-5.53v-.73c.33,0,.62-.09,.85-.27,.23-.18,.35-.41,.35-.68v-3.73h-2.88v1.08c0,.7-.31,1.29-.92,1.78-.6,.5-1.33,.75-2.2,.75-.93,0-1.73-.25-2.38-.75-.67-.48-1-1.08-1-1.78,0-.57,.26-1.05,.77-1.45,.52-.4,1.14-.6,1.88-.6h.73v-1.8h-.47c-1,0-1.86-.28-2.58-.85-.7-.55-1.05-1.23-1.05-2.03Zm-5.88-1.45h5.8v1.2h-1.73v9.63c0,.27,.12,.49,.35,.68,.23,.18,.52,.27,.85,.27v.73h-5.53v-.73c.33,0,.62-.09,.85-.27,.23-.18,.35-.41,.35-.68v-4.58h-2.15v-.95h2.15v-4.1h-.95v-1.2Zm-9.63,7.2h.98c0,1,.28,1.86,.85,2.58,.55,.7,1.23,1.05,2.03,1.05,.6,0,1.12-.22,1.55-.67,.42-.45,.63-.99,.63-1.63s-.21-1.17-.63-1.6c-.43-.45-.95-.68-1.55-.68h-.73v-.95h.73c.47,0,.86-.17,1.18-.53,.33-.37,.5-.8,.5-1.3s-.18-.93-.55-1.28c-.38-.35-.83-.52-1.35-.52-.45,0-.86,.1-1.22,.3-.37,.2-.64,.48-.83,.83l-.73-.63c.38-.67,.93-1.2,1.63-1.6,.68-.38,1.43-.57,2.23-.57,1.27,0,2.34,.31,3.23,.93,.9,.6,1.35,1.33,1.35,2.2,0,.73-.29,1.36-.88,1.88-.6,.52-1.32,.77-2.15,.77v.13c.97,0,1.8,.32,2.5,.97,.68,.63,1.03,1.41,1.03,2.33s-.49,1.69-1.48,2.33c-1,.65-2.2,.98-3.6,.98-1.3,0-2.41-.52-3.33-1.55-.92-1.03-1.38-2.28-1.38-3.75Zm-12.18-7.2h6.58v1.2h-1.73v9.63c0,.27,.12,.49,.35,.68,.23,.18,.52,.27,.85,.27v.73h-5.53v-.73c.33,0,.62-.09,.85-.27,.23-.18,.35-.41,.35-.68v-9.63h-1.73v-1.2Zm-15.18,1.2v-1.2h15.68v1.2h-1.73v9.63c0,.27,.12,.49,.35,.68,.23,.18,.52,.27,.85,.27v.73h-5.53v-.73c.33,0,.62-.09,.85-.27,.23-.18,.35-.41,.35-.68v-1.45c-.52,.62-1.18,1.09-2,1.43-.82,.33-1.71,.5-2.67,.5-1.23,0-2.28-.37-3.15-1.1-.87-.72-1.3-1.59-1.3-2.63,0-.83,.32-1.58,.95-2.25,.63-.67,1.43-1.08,2.4-1.25h-4.68v-.95h8.78v.95h-1.2c-.68,0-1.28,.31-1.78,.93-.48,.6-.73,1.33-.73,2.2,0,.7,.27,1.29,.8,1.78,.53,.5,1.18,.75,1.93,.75,.55,0,1.06-.16,1.53-.47,.48-.33,.86-.78,1.13-1.33v-6.73h-10.83Zm-6.08-1.2h6.58v1.2h-1.73v9.63c0,.27,.12,.49,.35,.68,.23,.18,.52,.27,.85,.27v.73h-5.53v-.73c.33,0,.62-.09,.85-.27,.23-.18,.35-.41,.35-.68v-9.63h-1.73v-1.2Zm-5.8,0h6.3v1.2h-1.73v9.63c0,.27,.12,.49,.35,.68,.23,.18,.52,.27,.85,.27v.73h-5.53v-.73c.33,0,.62-.09,.85-.27,.23-.18,.35-.41,.35-.68v-9.63h-1.45v-1.2Zm-7.05,3.6c0,.8,.17,1.48,.5,2.05,.33,.57,.74,.85,1.22,.85s.89-.28,1.23-.85c.33-.57,.5-1.25,.5-2.05,0-.87-.17-1.6-.5-2.2-.33-.62-.74-.93-1.23-.93s-.89,.31-1.22,.93c-.33,.6-.5,1.33-.5,2.2Zm-4,5.3h3.6c.13,.18,.33,.33,.6,.45,.25,.1,.53,.15,.85,.15,.6,0,1.12-.25,1.55-.75,.42-.48,.63-1.08,.63-1.77-.55,.32-1.03,.47-1.45,.47-1.67,0-3.01-.35-4.03-1.05-1-.7-1.5-1.63-1.5-2.8,0-1.23,.5-2.22,1.5-2.95,1.02-.75,2.36-1.13,4.03-1.13s2.95,.55,3.95,1.65c.98,1.08,1.48,2.53,1.48,4.35,0,1.4-.53,2.59-1.6,3.58-1.05,.98-2.33,1.48-3.83,1.48-.37,0-.73-.06-1.08-.17-.33-.13-.64-.32-.92-.55,.6,.83,1.22,1.48,1.85,1.95,.62,.47,1.18,.7,1.7,.7,.45,0,.88-.07,1.28-.23,.4-.15,.74-.36,1.03-.62l.35,.72c-.55,.47-1.18,.82-1.9,1.08-.7,.25-1.42,.37-2.18,.37s-1.39-.12-1.98-.35c-.57-.23-.99-.56-1.28-.98-.58-.87-1.09-1.53-1.53-2-.45-.5-.83-.79-1.12-.88v-.73Zm-8.95-7.7c.73,.13,1.34,.38,1.83,.75,.48,.35,.73,.74,.73,1.18,0,.73-.45,1.36-1.35,1.88-.9,.52-1.98,.77-3.25,.77,0,1,.29,1.85,.88,2.55,.6,.7,1.32,1.05,2.15,1.05,.63,0,1.22-.19,1.75-.58,.53-.37,.91-.86,1.13-1.48v-6.13h-3.85Zm-6.38,0v-1.2h15.08v1.2h-1.73v9.63c0,.27,.12,.49,.35,.68,.23,.18,.52,.27,.85,.27v.73h-5.63v-.73c.37,0,.68-.09,.93-.27,.25-.18,.37-.41,.37-.68v-2.05c-.38,.67-.96,1.19-1.73,1.57-.78,.38-1.65,.58-2.6,.58-1.47,0-2.72-.6-3.75-1.8-1.03-1.2-1.55-2.64-1.55-4.33,.45,.17,1.13,.25,2.05,.25,.7,0,1.29-.19,1.77-.57,.5-.37,.75-.82,.75-1.35s-.25-.98-.75-1.35c-.48-.38-1.08-.58-1.77-.58h-2.65Zm-18.53,0v6.5c0,.53,.13,.98,.4,1.35,.25,.38,.56,.58,.92,.58s.68-.19,.93-.58c.27-.37,.4-.82,.4-1.35v-6.5h-2.65Zm-4.28,0v-1.2h17.8v1.2h-1.73v9.63c0,.27,.12,.49,.35,.68,.23,.18,.52,.27,.85,.27v.73h-5.55v-.73c.33,0,.63-.09,.87-.27,.23-.18,.35-.41,.35-.68v-9.63h-2.9v5.3c0,1.13-.43,2.09-1.3,2.88-.87,.8-1.92,1.2-3.15,1.2s-2.28-.4-3.15-1.2c-.87-.78-1.3-1.74-1.3-2.88v-5.3h-1.15Zm-5.05-3.13c0-1,.63-1.85,1.9-2.55,1.27-.7,2.79-1.05,4.58-1.05,1.62,0,3.16,.48,4.63,1.42,1.47,.93,2.68,2.22,3.63,3.85h-3.13c-.77-1.33-1.63-2.39-2.58-3.18-.93-.77-1.83-1.15-2.68-1.15-.72,0-1.33,.32-1.85,.95-.5,.65-.75,1.43-.75,2.33v.37c0,.38,.03,.61,.08,.67h-3.13c-.23-.27-.41-.54-.52-.82-.12-.3-.18-.58-.18-.85Zm-1.03,3.13v-1.2h6.58v1.2h-1.73v9.63c0,.27,.12,.49,.35,.68,.23,.18,.52,.27,.85,.27v.73h-5.53v-.73c.33,0,.62-.09,.85-.27,.23-.18,.35-.41,.35-.68v-9.63h-1.73Zm-6.08-1.2h6.58v1.2h-1.73v9.63c0,.27,.12,.49,.35,.68,.23,.18,.52,.27,.85,.27v.73h-5.53v-.73c.33,0,.62-.09,.85-.27,.23-.18,.35-.41,.35-.68v-9.63h-1.73v-1.2Zm-5.3,0h5.8v1.2h-1.73v9.63c0,.27,.12,.49,.35,.68,.23,.18,.52,.27,.85,.27v.73h-5.53v-.73c.33,0,.62-.09,.85-.27,.23-.18,.35-.41,.35-.68v-4.58h-2.15v-.95h2.15v-4.1h-.95v-1.2Zm-9.63,7.2h.98c0,1,.28,1.86,.85,2.58,.55,.7,1.23,1.05,2.03,1.05,.6,0,1.12-.22,1.55-.67,.42-.45,.63-.99,.63-1.63s-.21-1.17-.63-1.6c-.43-.45-.95-.68-1.55-.68h-.73v-.95h.73c.47,0,.86-.17,1.18-.53,.33-.37,.5-.8,.5-1.3s-.18-.93-.55-1.28c-.38-.35-.83-.52-1.35-.52-.45,0-.86,.1-1.22,.3-.37,.2-.64,.48-.83,.83l-.73-.63c.38-.67,.93-1.2,1.63-1.6,.68-.38,1.43-.57,2.23-.57,1.27,0,2.34,.31,3.23,.93,.9,.6,1.35,1.33,1.35,2.2,0,.73-.29,1.36-.88,1.88-.6,.52-1.32,.77-2.15,.77v.13c.97,0,1.8,.32,2.5,.97,.68,.63,1.03,1.41,1.03,2.33s-.49,1.69-1.48,2.33c-1,.65-2.2,.98-3.6,.98-1.3,0-2.41-.52-3.33-1.55-.92-1.03-1.38-2.28-1.38-3.75Zm-13.83-6v4.93h3.38v-4.93h-3.38Zm-4.58,6.63v1.45c0,.23,.07,.43,.2,.6,.15,.17,.32,.25,.52,.25s.38-.08,.53-.25c.13-.17,.2-.37,.2-.6v-2.18h-.72c-.2,0-.37,.07-.52,.2-.13,.15-.2,.33-.2,.53Zm-3.7-6.63v-1.2h16.5v1.2h-1.73v9.63c0,.27,.12,.49,.35,.68,.23,.18,.52,.27,.85,.27v.73h-5.53v-.73c.33,0,.62-.09,.85-.27,.23-.18,.35-.41,.35-.68v-3.73h-3.38v1.33c0,.73-.37,1.36-1.13,1.88-.75,.52-1.66,.78-2.73,.78s-1.98-.26-2.73-.78c-.75-.52-1.13-1.14-1.13-1.88,0-.63,.37-1.18,1.13-1.63,.75-.45,1.66-.68,2.73-.68h.72v-4.93h-5.15Zm-10.83,.48v2.53c0,.25,.08,.54,.25,.87,.17,.33,.4,.68,.7,1.05,.3-.37,.53-.72,.7-1.05,.17-.33,.25-.63,.25-.87v-2.53c0-.37-.1-.68-.3-.93-.18-.27-.42-.4-.7-.4-.25,0-.46,.13-.63,.4-.18,.25-.28,.56-.28,.93Zm-3.5,5.78c1.5-.1,2.58-.3,3.25-.6-.92-.45-1.65-1.05-2.2-1.8-.53-.77-.8-1.57-.8-2.4,0-.92,.41-1.69,1.22-2.32,.82-.65,1.81-.98,2.98-.98s2.16,.32,2.98,.98c.82,.63,1.22,1.41,1.22,2.32,0,.78-.3,1.56-.9,2.33-.62,.75-1.43,1.38-2.45,1.88,.83,.48,1.79,.73,2.88,.73,.28-.15,.84-.55,1.68-1.2v-5.18h-.95v-1.2h5.93v1.2h-1.73v9.63c0,.27,.11,.49,.32,.68,.2,.18,.45,.27,.75,.27v.73h-5.65v-.73c.37,0,.67-.09,.92-.27,.27-.18,.4-.41,.4-.68v-3.13c-2.12,1.9-4.68,3.46-7.68,4.68l-.6-.95c2.3-.83,4.14-1.83,5.53-3-.85-.08-1.85-.41-3-.98-1.12,.65-2.4,1.05-3.85,1.2l-.25-1.2Zm-11.13-6.25v-1.2h10.93v1.2h-5.75c1.33,.1,2.45,.51,3.35,1.23,.92,.72,1.38,1.55,1.38,2.5,0,1.1-.46,2.03-1.38,2.8-.93,.78-2.05,1.18-3.35,1.18,.48,.57,.97,1.01,1.45,1.33,.48,.32,.93,.47,1.33,.47,.35,0,.68-.08,1-.23,.3-.15,.57-.36,.8-.62l.47,.6c-.43,.63-.97,1.13-1.6,1.5-.63,.37-1.3,.55-2,.55-.48,0-.99-.14-1.53-.43-.55-.3-1.08-.72-1.6-1.25-.8-.83-1.43-1.42-1.88-1.78-.52-.42-.93-.62-1.25-.62l.23-.73c.63,.23,1.36,.35,2.18,.35,.93,0,1.73-.33,2.38-1,.67-.67,1-1.47,1-2.43s-.34-1.76-1.03-2.43c-.68-.67-1.51-1-2.48-1h-2.65Zm-4.35-1.45c-.3-.37-.53-.73-.7-1.1-.17-.37-.25-.72-.25-1.05,0-.8,.49-1.48,1.47-2.05,.98-.57,2.18-.85,3.58-.85,1.48,0,2.85,.47,4.1,1.4,1.25,.92,2.15,2.13,2.7,3.65h-2.53c-.45-1.22-1-2.2-1.65-2.95-.65-.75-1.28-1.12-1.9-1.12-.57,0-1.04,.25-1.43,.75-.4,.5-.6,1.1-.6,1.8,0,.4,.02,.73,.07,1,.07,.27,.15,.44,.25,.52h-3.13Zm-1.73,1.45v-1.2h6.58v1.2h-1.73v9.63c0,.27,.12,.49,.35,.68,.23,.18,.52,.27,.85,.27v.73h-5.53v-.73c.33,0,.62-.09,.85-.27,.23-.18,.35-.41,.35-.68v-9.63h-1.73Zm-9.9,0v5.3c0,.72,.28,1.33,.83,1.85,.53,.52,1.18,.77,1.95,.77s1.42-.26,1.95-.77c.55-.52,.83-1.13,.83-1.85v-5.3h-5.55Zm-4.28,0v-1.2h14.68v1.2h-1.73v9.63c0,.27,.12,.49,.35,.68,.23,.18,.52,.27,.85,.27v.73h-5.55v-.73c.33,0,.63-.09,.88-.27,.23-.18,.35-.41,.35-.68v-2.18c-.38,.67-.97,1.2-1.75,1.6-.78,.38-1.65,.57-2.6,.57-1.2,0-2.22-.42-3.05-1.28-.85-.83-1.28-1.85-1.28-3.05v-5.3h-1.15Z"/>
  <path class="cls-3" d="M233.36,46.79l-2.22-5.13-2.29,5.13h4.5Zm.38,.81h-5.26l-.63,1.45c-.21,.48-.31,.88-.31,1.2,0,.42,.17,.73,.51,.92,.2,.12,.68,.21,1.46,.27v.41h-4.95v-.41c.53-.08,.98-.3,1.32-.67,.35-.36,.77-1.11,1.28-2.25l5.33-11.89h.21l5.37,12.22c.51,1.16,.93,1.89,1.26,2.19,.25,.23,.6,.36,1.06,.4v.41h-7.21v-.41h.3c.58,0,.99-.08,1.22-.24,.16-.12,.24-.29,.24-.51,0-.13-.02-.27-.07-.4-.01-.07-.12-.34-.33-.83l-.79-1.86Zm-20.71-2.92v4.61c0,.76,.04,1.24,.12,1.43,.09,.19,.25,.36,.5,.5,.25,.15,.58,.22,.99,.22h.5v.41h-7.79v-.41h.5c.43,0,.78-.08,1.04-.23,.19-.1,.34-.28,.44-.53,.08-.17,.12-.63,.12-1.38v-9.8c0-.76-.04-1.24-.12-1.43-.08-.19-.24-.36-.49-.5-.24-.14-.58-.21-.99-.21h-.5v-.41h7.79v.41h-.5c-.43,0-.78,.08-1.04,.23-.19,.1-.34,.28-.45,.53-.08,.18-.12,.64-.12,1.38v4.22h5.26v-4.22c0-.76-.04-1.24-.12-1.43-.08-.19-.25-.36-.5-.5-.25-.14-.58-.21-1-.21h-.48v-.41h7.78v.41h-.48c-.44,0-.79,.08-1.05,.23-.19,.1-.34,.28-.45,.53-.08,.18-.12,.64-.12,1.38v9.8c0,.76,.04,1.24,.12,1.43,.08,.19,.25,.36,.49,.5,.25,.15,.58,.22,1,.22h.48v.41h-7.78v-.41h.48c.44,0,.79-.08,1.05-.23,.19-.1,.34-.28,.45-.53,.08-.17,.12-.63,.12-1.38v-4.61h-5.26Zm-14.29-2.03l5.24,6.56c.74,.92,1.38,1.55,1.91,1.88,.39,.23,.8,.35,1.23,.35v.41h-7.76v-.41c.49-.04,.81-.12,.95-.23,.15-.11,.22-.24,.22-.4,0-.31-.34-.89-1.01-1.74l-3.42-4.3-.55,.46v4.07c0,.78,.04,1.26,.13,1.45,.09,.19,.26,.35,.5,.49,.25,.14,.65,.21,1.2,.21v.41h-7.52v-.41h.5c.43,0,.78-.08,1.04-.23,.19-.1,.34-.28,.44-.53,.08-.17,.12-.63,.12-1.38v-9.8c0-.76-.04-1.24-.12-1.43-.08-.19-.24-.36-.49-.5-.25-.14-.58-.21-.99-.21h-.5v-.41h7.42v.41c-.5,0-.89,.07-1.15,.22-.19,.1-.34,.28-.45,.52-.09,.18-.13,.65-.13,1.41v4.64l5.53-4.47c.77-.62,1.16-1.12,1.16-1.49,0-.28-.16-.5-.47-.66-.16-.08-.56-.13-1.2-.15v-.41h5.81v.41c-.52,.04-.93,.13-1.22,.28-.3,.15-.98,.66-2.05,1.52l-4.36,3.5Zm-18.05-5.21c-1.37,0-2.4,.7-3.11,2.09-.58,1.14-.87,2.78-.87,4.92,0,2.54,.45,4.42,1.34,5.64,.62,.85,1.5,1.27,2.62,1.27,.75,0,1.38-.18,1.89-.55,.64-.47,1.14-1.22,1.5-2.25,.36-1.03,.54-2.37,.54-4.02,0-1.97-.18-3.45-.55-4.42-.37-.98-.83-1.67-1.4-2.07-.57-.4-1.22-.6-1.96-.6Zm-.13-.7c2.37-.09,4.3,.6,5.79,2.07,1.48,1.47,2.22,3.32,2.22,5.53,0,1.89-.55,3.55-1.66,4.99-1.47,1.91-3.54,2.86-6.21,2.86s-4.75-.91-6.22-2.73c-1.16-1.44-1.74-3.14-1.74-5.11,0-2.21,.75-4.06,2.26-5.53,1.51-1.48,3.36-2.17,5.56-2.08Zm-19.34,.21l7.35,9.24v-6.41c0-.89-.13-1.5-.38-1.81-.35-.42-.94-.63-1.77-.62v-.41h4.92v.41c-.63,.08-1.05,.18-1.27,.31-.22,.13-.39,.34-.51,.63-.12,.29-.18,.79-.18,1.49v12.41h-.37l-10.08-12.41v9.47c0,.86,.2,1.43,.59,1.73,.39,.3,.84,.45,1.34,.45h.35v.41h-5.28v-.41c.82,0,1.39-.18,1.71-.51,.32-.33,.48-.89,.48-1.68v-10.52l-.32-.4c-.32-.39-.59-.65-.84-.78-.24-.12-.59-.19-1.04-.21v-.41h5.28Zm-12.87,9.85l-2.22-5.13-2.29,5.13h4.5Zm.37,.81h-5.26l-.63,1.45c-.21,.48-.31,.88-.31,1.2,0,.42,.17,.73,.51,.92,.19,.12,.68,.21,1.46,.27v.41h-4.95v-.41c.53-.08,.98-.3,1.32-.67,.35-.36,.77-1.11,1.28-2.25l5.33-11.89h.21l5.37,12.22c.51,1.16,.93,1.89,1.26,2.19,.25,.23,.6,.36,1.06,.4v.41h-7.21v-.41h.3c.58,0,.99-.08,1.22-.24,.16-.12,.24-.29,.24-.51,0-.13-.02-.27-.07-.4-.01-.07-.12-.34-.33-.83l-.79-1.86Z"/>
  <g>
    <g>
      <path class="cls-2" d="M404.68,116.6c-.38-7.39-5.51-11.15-12.45-12.44-1.65-.31-3.3-.66-4.93-1.04-6.02-1.41-7.27-5.67-7.37-10.23-.07-3.53,.03-7.07-.26-10.58-.42-5.05-2.52-9.63-4.65-14.14-3.16-6.72-7.69-12.4-13.57-16.97-.42-.33-.84-.73-1.09-1.2-.27-.5-.33-1.12-.49-1.68,.61-.07,1.4-.43,1.79-.17,1.8,1.19,3.63,2.39,5.19,3.86,3.76,3.54,6.95,7.58,9.35,12.16,2.46,4.68,4.33,9.57,4.62,14.97,.24,4.43,.55,8.87,1.06,13.28,.21,1.84,.81,3.71,1.6,5.4,1.26,2.68,4.08,2.88,6.54,3.68,3.18,1.03,6.48,1.94,9.36,3.55,3.38,1.89,5.62,4.95,5.71,9.1,.02,.81-.27,1.64-.42,2.46Z"/>
      <path class="cls-2" d="M369.04,116.04c-1.26,1.44-2.47,2.92-3.78,4.3-3.95,4.15-7.25,8.75-9.87,13.84-.89,1.73-1.57,3.57-2.48,5.29-.23,.43-.95,.6-1.45,.88-.22-.54-.76-1.19-.61-1.6,.9-2.6,1.78-5.24,2.98-7.71,2.13-4.36,4.9-8.31,8.57-11.54,1.88-1.66,3.77-3.33,6.64-3.46Z"/>
      <path class="cls-2" d="M392.1,99.33c-1.88-1.26-2.42-3.2-2.63-5.15-.29-2.58-.36-5.2-.36-7.8,.01-4.39-1.7-8.11-4.17-11.58-.88-1.23-1.74-2.48-2.5-3.79-.22-.37-.07-.96-.09-1.45,.51,.07,1.22-.04,1.49,.25,1.83,2.05,3.72,4.07,5.29,6.3,1.87,2.67,1.93,5.91,2.22,9.04,.45,4.7-1.15,9.5,.75,14.17Z"/>
      <path class="cls-2" d="M370.89,126.57c.43-.16,.86-.39,1.31-.46,7.35-1.1,13.58-4.43,19.22-9.17,2.24-1.89,4.93-3.29,8.08-2.16,.77,.28,1.4,.96,2.16,1.51-.4,.33-.51,.47-.55,.45-3.63-1.78-6.31,.23-8.72,2.43-4.04,3.7-8.44,6.66-13.91,7.6-2.47,.42-5.01,.4-7.52,.57-.02-.25-.04-.51-.07-.76Z"/>
      <path class="cls-2" d="M374.08,78.4c-1.07-2.53-2.05-5.11-3.24-7.58-2.58-5.36-5.99-10.12-10.55-14.01-.77-.65-2.22-1.36-1.36-2.52,.93-1.26,1.98,.05,2.74,.66,6.78,5.47,11.24,12.36,12.66,21.05,.13,.77,.09,1.57,.13,2.35-.13,.02-.26,.03-.38,.05Z"/>
      <path class="cls-2" d="M370.27,78.3c-.92-1.3-1.87-2.58-2.76-3.89-2.61-3.85-5.2-7.71-7.8-11.57-.21-.31-.52-.59-.63-.94-.2-.62-.28-1.28-.41-1.92,.72,.21,1.73,.19,2.11,.67,2.22,2.78,4.51,5.56,6.35,8.59,1.5,2.46,2.42,5.27,3.57,7.94,.11,.26,.02,.62,.02,.93l-.44,.21Z"/>
      <path class="cls-2" d="M369.91,87.32c-3.55-.46-6.23-2.37-8.69-4.53-1.61-1.41-2.92-3.17-4.29-4.82-.37-.44-.58-1.05-.71-1.62-.08-.36,.07-1.07,.26-1.12,.38-.11,.99-.02,1.27,.24,1.03,.95,1.93,2.05,2.95,3.01,2.67,2.51,5.39,4.97,8.06,7.47,.43,.4,.76,.92,1.14,1.38Z"/>
      <path class="cls-2" d="M368.09,81.73c-1.78-1.76-3.77-3.35-5.29-5.31-1.81-2.33-3.23-4.98-4.81-7.5-.19-.31-.37-.69-.39-1.04-.03-.4,.14-.8,.21-1.21,.44,.12,1.04,.1,1.28,.38,.84,.98,1.57,2.06,2.31,3.12,2.25,3.24,4.5,6.48,6.73,9.74,.26,.38,.36,.85,.54,1.28-.2,.18-.39,.35-.59,.53Z"/>
      <path class="cls-2" d="M358.02,136.48c-1.27-3.89,2.74-10.65,6.82-11.66-.19,1.63-5.59,10.95-6.82,11.66Z"/>
      <path class="cls-2" d="M369.51,92.32c-1.33-.29-2.74-.39-3.96-.93-2-.89-3.89-2.05-5.8-3.15-.4-.23-.82-.63-.98-1.05-.2-.5-.13-1.1-.18-1.66,.51-.04,1.11-.27,1.51-.07,1.1,.54,2.13,1.25,3.17,1.92,1.76,1.14,3.52,2.29,5.26,3.46,.42,.28,.78,.65,1.17,.98-.07,.16-.13,.33-.2,.49Z"/>
      <path class="cls-2" d="M370.4,96.41c-2.7,.84-5.23,.62-7.65-.38-1.12-.46-2.12-1.28-3.07-2.06-.26-.22-.31-.92-.18-1.31,.07-.22,.76-.47,1.06-.37,3.16,1.13,6.29,2.33,9.43,3.52,.12,.05,.18,.25,.42,.6Z"/>
      <path class="cls-2" d="M371.69,100.21c-3.53,1.87-6.78,1.83-10.02,.17-.38-.2-.57-.79-.85-1.2,.4-.21,.82-.63,1.21-.6,2.91,.24,5.82,.55,8.73,.88,.26,.03,.48,.37,.93,.74Z"/>
      <path class="cls-2" d="M381.9,73.78c.6,.57,1.36,1.05,1.78,1.73,1.17,1.87,2.24,3.81,3.25,5.77,.22,.42,0,1.07-.02,1.61-.49-.22-1.19-.3-1.45-.68-1.29-1.92-2.52-3.88-3.63-5.9-.36-.65-.31-1.52-.45-2.29,.17-.08,.35-.16,.52-.24Z"/>
      <path class="cls-2" d="M373.11,103.59c-1.04,1.82-2.88,1.96-4.53,2.2-1.39,.2-2.86-.06-4.29-.24-.27-.03-.61-.6-.64-.95-.02-.21,.46-.66,.75-.69,2.79-.27,5.59-.47,8.38-.67,.06,0,.14,.15,.32,.35Z"/>
      <path class="cls-2" d="M374.05,105.68c-.06,.52,.02,.95-.16,1.19-1.43,2.02-3.26,3.47-5.87,3.45-.48,0-.96-.48-1.43-.74,.31-.39,.54-.95,.95-1.13,2.09-.95,4.22-1.8,6.51-2.77Z"/>
      <path class="cls-2" d="M376.04,108.04c-.06,2.14-.75,3.42-2.26,4.12-.39,.18-.97-.06-1.47-.1,.15-.42,.19-.97,.48-1.25,.93-.89,1.95-1.68,3.25-2.77Z"/>
      <path class="cls-2" d="M365.35,132.52c-1.46-2.55-.27-5.07,2.2-5.29-.72,1.72-1.38,3.32-2.2,5.29Z"/>
      <path class="cls-2" d="M386.2,84.99c-1.72,.5-3.64-1.05-3.54-2.24,.02-.25,.92-.7,.98-.64,.9,.92,1.72,1.91,2.56,2.88Z"/>
      <path class="cls-2" d="M387.93,112.59c.28,2.35-.48,3.24-2.34,2.88-.02-1.58,.39-2.1,2.34-2.88Z"/>
      <path class="cls-2" d="M388.51,115.85c.12,.33,.44,.82,.33,.97-.49,.62-1.11,1.14-1.69,1.69-.21-.24-.65-.61-.6-.7,.42-.72,.93-1.39,1.41-2.08,.18,.04,.36,.08,.54,.12Z"/>
      <path class="cls-2" d="M383.49,86.63c.86,.75,1.52,1.33,2.18,1.9-.28,.24-.71,.73-.8,.67-.69-.42-1.32-.93-1.92-1.47-.06-.06,.26-.53,.54-1.1Z"/>
      <path class="cls-2" d="M386.07,96.41c-.53-.22-1.07-.42-1.57-.7-.05-.03,.14-.51,.23-.78l1.7,.61-.36,.86Z"/>
    </g>
    <path class="cls-2" d="M399.23,111.79c1.39,0,1.39-2.16,0-2.16s-1.39,2.16,0,2.16h0Z"/>
    <path class="cls-2" d="M385.61,111.79c1.39,0,1.39-2.16,0-2.16s-1.39,2.16,0,2.16h0Z"/>
  </g>
</svg>